<svg xmlns="http://www.w3.org/2000/svg" xmlns:xlink="http://www.w3.org/1999/xlink" viewBox="0 0 4074.72 3448"><defs><style>.cls-1{mask:url(#mask);}.cls-10,.cls-2,.cls-4,.cls-6,.cls-8{mix-blend-mode:multiply;}.cls-2{fill:url(#Áåçûìÿííûé_ãðàäèåíò_7);}.cls-3{mask:url(#mask-2);}.cls-4{fill:url(#Áåçûìÿííûé_ãðàäèåíò_6);}.cls-5{mask:url(#mask-3);}.cls-6{fill:url(#Áåçûìÿííûé_ãðàäèåíò_4);}.cls-7{mask:url(#mask-4);}.cls-8{fill:url(#Áåçûìÿííûé_ãðàäèåíò_3);}.cls-9{mask:url(#mask-5);}.cls-10{fill:url(#Áåçûìÿííûé_ãðàäèåíò_2);}.cls-11{fill:#cac8c8;}.cls-12{fill:#989695;}.cls-13{fill:#fff;}.cls-14{fill:#00fff1;}.cls-15{fill:#00d3cd;}.cls-16{fill:#d7fff7;}.cls-17{fill:#00a098;}.cls-18{fill:#00776e;}.cls-19{fill:#98d8c9;}.cls-20{opacity:0.56;}.cls-21{opacity:0.46;}.cls-22{opacity:0.28;}.cls-23{opacity:0.57;}.cls-24{fill:#00d44d;}.cls-25{fill:#00aa04;}.cls-26{fill:url(#Áåçûìÿííûé_ãðàäèåíò_567);}.cls-27{fill:url(#Áåçûìÿííûé_ãðàäèåíò_567-2);}.cls-28{mask:url(#mask-6);}.cls-29{opacity:0.26;fill:url(#Áåçûìÿííûé_ãðàäèåíò_621);}.cls-30{mask:url(#mask-7);}.cls-31{opacity:0.54;fill:url(#Áåçûìÿííûé_ãðàäèåíò_621-2);}.cls-32{mask:url(#mask-8);}.cls-33{mask:url(#mask-9);}.cls-34{fill:#de5f12;}.cls-35{fill:url(#Áåçûìÿííûé_ãðàäèåíò_567-3);}.cls-36{fill:url(#Áåçûìÿííûé_ãðàäèåíò_567-4);}.cls-37{fill:url(#Áåçûìÿííûé_ãðàäèåíò_609);}.cls-38{mask:url(#mask-10);}.cls-39{fill:url(#Áåçûìÿííûé_ãðàäèåíò_614);}.cls-40{fill:url(#Áåçûìÿííûé_ãðàäèåíò_567-5);}.cls-41{fill:url(#Áåçûìÿííûé_ãðàäèåíò_567-6);}.cls-42{fill:url(#Áåçûìÿííûé_ãðàäèåíò_567-7);}.cls-43{fill:url(#Áåçûìÿííûé_ãðàäèåíò_567-8);}.cls-44{fill:url(#Áåçûìÿííûé_ãðàäèåíò_567-9);}.cls-45{fill:#f0fffc;}.cls-46{fill:#ffb68e;}.cls-47{fill:#003251;}.cls-48{fill:#000538;}.cls-49{fill:#003d68;}.cls-50{fill:#00c0c5;}.cls-51{fill:#172755;}.cls-52,.cls-62,.cls-65,.cls-67{fill:#003b64;}.cls-52,.cls-79{opacity:0.18;}.cls-53{fill:#008184;}.cls-54{fill:#009297;}.cls-55{fill:#0089ce;}.cls-56{fill:#63717d;}.cls-57{fill:#ffb600;}.cls-58{fill:#ffa600;}.cls-59{fill:#001abd;}.cls-60{fill:#003351;}.cls-61{fill:url(#Áåçûìÿííûé_ãðàäèåíò_567-10);}.cls-63{fill:#9df4e8;}.cls-64{fill:#11b7ae;}.cls-65{opacity:0.43;}.cls-66{fill:#dcfeff;}.cls-67{opacity:0.14;}.cls-68{fill:#006370;}.cls-69{fill:url(#Áåçûìÿííûé_ãðàäèåíò_567-11);}.cls-70{fill:url(#Áåçûìÿííûé_ãðàäèåíò_567-12);}.cls-71{fill:url(#Áåçûìÿííûé_ãðàäèåíò_567-13);}.cls-72{fill:#005e7e;}.cls-73{fill:#0072a2;}.cls-74{fill:#00d19d;}.cls-75{fill:#004e15;}.cls-76{fill:#2f375f;}.cls-77{fill:#0a5558;}.cls-78{fill:#0f6d6d;}.cls-80{fill:url(#Áåçûìÿííûé_ãðàäèåíò_567-14);}.cls-81{fill:url(#Áåçûìÿííûé_ãðàäèåíò_567-15);}.cls-82{fill:url(#Áåçûìÿííûé_ãðàäèåíò_567-16);}.cls-83{fill:url(#Áåçûìÿííûé_ãðàäèåíò_567-17);}.cls-84{fill:url(#Áåçûìÿííûé_ãðàäèåíò_567-18);}.cls-85{fill:url(#Áåçûìÿííûé_ãðàäèåíò_567-19);}.cls-86{fill:#063638;}.cls-87{fill:url(#Áåçûìÿííûé_ãðàäèåíò_567-20);}.cls-88{fill:#00445b;}.cls-89{fill:url(#Áåçûìÿííûé_ãðàäèåíò_567-21);}.cls-90{fill:url(#Áåçûìÿííûé_ãðàäèåíò_567-22);}.cls-91{fill:url(#Áåçûìÿííûé_ãðàäèåíò_567-23);}.cls-92{fill:url(#Áåçûìÿííûé_ãðàäèåíò_567-24);}.cls-93{fill:url(#Áåçûìÿííûé_ãðàäèåíò_567-25);}.cls-94{fill:url(#Áåçûìÿííûé_ãðàäèåíò_567-26);}.cls-95{fill:url(#Áåçûìÿííûé_ãðàäèåíò_567-27);}.cls-96{fill:url(#Áåçûìÿííûé_ãðàäèåíò_567-28);}.cls-97{fill:url(#Áåçûìÿííûé_ãðàäèåíò_567-29);}.cls-98{filter:url(#luminosity-noclip-10);}.cls-99{filter:url(#luminosity-noclip-9);}.cls-100{filter:url(#luminosity-noclip-8);}.cls-101{filter:url(#luminosity-noclip-7);}.cls-102{filter:url(#luminosity-noclip-6);}.cls-103{filter:url(#luminosity-noclip-5);}.cls-104{filter:url(#luminosity-noclip-4);}.cls-105{filter:url(#luminosity-noclip-3);}.cls-106{filter:url(#luminosity-noclip-2);}.cls-107{filter:url(#luminosity-noclip);}</style><filter id="luminosity-noclip" x="1695.97" y="-10292" width="176.28" height="32766" filterUnits="userSpaceOnUse" color-interpolation-filters="sRGB"><feFlood flood-color="#fff" result="bg"/><feBlend in="SourceGraphic" in2="bg"/></filter><mask id="mask" x="1695.97" y="-10292" width="176.28" height="32766" maskUnits="userSpaceOnUse"><g class="cls-107"/></mask><linearGradient id="Áåçûìÿííûé_ãðàäèåíò_7" x1="3070.18" y1="2951.13" x2="2492.23" y2="3575.84" gradientTransform="matrix(-1, 0, 0, 1, 4514.5, 0)" gradientUnits="userSpaceOnUse"><stop offset="0" stop-color="#fff"/><stop offset="0.33" stop-color="#ccc"/><stop offset="0.57" stop-color="#5e5e5e"/><stop offset="0.7"/></linearGradient><filter id="luminosity-noclip-2" x="2076.91" y="-10292" width="296.74" height="32766" filterUnits="userSpaceOnUse" color-interpolation-filters="sRGB"><feFlood flood-color="#fff" result="bg"/><feBlend in="SourceGraphic" in2="bg"/></filter><mask id="mask-2" x="2076.91" y="-10292" width="296.74" height="32766" maskUnits="userSpaceOnUse"><g class="cls-106"/></mask><linearGradient id="Áåçûìÿííûé_ãðàäèåíò_6" x1="2863.86" y1="2563.01" x2="1890.94" y2="3614.65" xlink:href="#Áåçûìÿííûé_ãðàäèåíò_7"/><filter id="luminosity-noclip-3" x="2457.59" y="-10292" width="386.03" height="32766" filterUnits="userSpaceOnUse" color-interpolation-filters="sRGB"><feFlood flood-color="#fff" result="bg"/><feBlend in="SourceGraphic" in2="bg"/></filter><mask id="mask-3" x="2457.59" y="-10292" width="386.03" height="32766" maskUnits="userSpaceOnUse"><g class="cls-105"/></mask><linearGradient id="Áåçûìÿííûé_ãðàäèåíò_4" x1="2625.43" y1="1779.18" x2="1359.79" y2="3147.23" xlink:href="#Áåçûìÿííûé_ãðàäèåíò_7"/><filter id="luminosity-noclip-4" x="2848.15" y="-10292" width="403.11" height="32766" filterUnits="userSpaceOnUse" color-interpolation-filters="sRGB"><feFlood flood-color="#fff" result="bg"/><feBlend in="SourceGraphic" in2="bg"/></filter><mask id="mask-4" x="2848.15" y="-10292" width="403.11" height="32766" maskUnits="userSpaceOnUse"><g class="cls-104"/></mask><linearGradient id="Áåçûìÿííûé_ãðàäèåíò_3" x1="2245.5" y1="1297.09" x2="923.84" y2="2725.68" xlink:href="#Áåçûìÿííûé_ãðàäèåíò_7"/><filter id="luminosity-noclip-5" x="2992.83" y="-10292" width="135.62" height="32766" filterUnits="userSpaceOnUse" color-interpolation-filters="sRGB"><feFlood flood-color="#fff" result="bg"/><feBlend in="SourceGraphic" in2="bg"/></filter><mask id="mask-5" x="2992.83" y="-10292" width="135.62" height="32766" maskUnits="userSpaceOnUse"><g class="cls-103"/></mask><linearGradient id="Áåçûìÿííûé_ãðàäèåíò_2" x1="1407.55" y1="482.04" x2="1464.45" y2="591.03" gradientTransform="matrix(-1, 0, 0, 1, 4514.5, 0)" gradientUnits="userSpaceOnUse"><stop offset="0.06" stop-color="#fff"/><stop offset="1"/></linearGradient><linearGradient id="Áåçûìÿííûé_ãðàäèåíò_567" x1="1260.01" y1="1003.67" x2="1683.84" y2="1003.67" gradientTransform="matrix(-1, 0, 0, 1, 4514.5, 0)" gradientUnits="userSpaceOnUse"><stop offset="0.19" stop-color="#ffd234"/><stop offset="0.99" stop-color="#ffb000"/></linearGradient><linearGradient id="Áåçûìÿííûé_ãðàäèåíò_567-2" x1="1352.14" y1="902.69" x2="1629.58" y2="902.69" xlink:href="#Áåçûìÿííûé_ãðàäèåíò_567"/><filter id="luminosity-noclip-6" x="1695.97" y="2938.27" width="176.28" height="569.74" filterUnits="userSpaceOnUse" color-interpolation-filters="sRGB"><feFlood flood-color="#fff" result="bg"/><feBlend in="SourceGraphic" in2="bg"/></filter><mask id="mask-6" x="1651.02" y="2553.51" width="176.28" height="569.74" maskUnits="userSpaceOnUse"><g class="cls-102"><g transform="translate(-44.95 -384.76)"><g class="cls-1"><polygon class="cls-2" points="1695.97 2938.27 1872.25 3508.01 1695.97 3508.01 1695.97 2938.27"/></g></g></g></mask><linearGradient id="Áåçûìÿííûé_ãðàäèåíò_621" x1="3070.18" y1="2951.13" x2="2492.23" y2="3575.84" gradientTransform="matrix(-1, 0, 0, 1, 4469.55, -384.76)" gradientUnits="userSpaceOnUse"><stop offset="0" stop-color="#004e55"/><stop offset="0.33" stop-color="#00565e"/><stop offset="0.57" stop-color="#1f6869"/><stop offset="0.7" stop-color="#528986"/></linearGradient><filter id="luminosity-noclip-7" x="2076.91" y="2538.91" width="296.74" height="969.72" filterUnits="userSpaceOnUse" color-interpolation-filters="sRGB"><feFlood flood-color="#fff" result="bg"/><feBlend in="SourceGraphic" in2="bg"/></filter><mask id="mask-7" x="2031.97" y="2154.15" width="296.74" height="969.72" maskUnits="userSpaceOnUse"><g class="cls-101"><g transform="translate(-44.95 -384.76)"><g class="cls-3"><polygon class="cls-4" points="2076.91 2538.91 2373.66 3498 2076.91 3508.64 2076.91 2538.91"/></g></g></g></mask><linearGradient id="Áåçûìÿííûé_ãðàäèåíò_621-2" x1="2863.86" y1="2563.01" x2="1890.94" y2="3614.65" xlink:href="#Áåçûìÿííûé_ãðàäèåíò_621"/><filter id="luminosity-noclip-8" x="2457.59" y="1734.88" width="386.03" height="1317.65" filterUnits="userSpaceOnUse" color-interpolation-filters="sRGB"><feFlood flood-color="#fff" result="bg"/><feBlend in="SourceGraphic" in2="bg"/></filter><mask id="mask-8" x="2412.64" y="1350.12" width="386.03" height="1317.65" maskUnits="userSpaceOnUse"><g class="cls-100"><g transform="translate(-44.95 -384.76)"><g class="cls-5"><polygon class="cls-6" points="2457.59 1734.88 2843.62 2982.54 2457.59 3052.53 2457.59 1734.88"/></g></g></g></mask><filter id="luminosity-noclip-9" x="2848.15" y="1264.27" width="403.11" height="1317.65" filterUnits="userSpaceOnUse" color-interpolation-filters="sRGB"><feFlood flood-color="#fff" result="bg"/><feBlend in="SourceGraphic" in2="bg"/></filter><mask id="mask-9" x="2803.2" y="879.51" width="403.11" height="1317.65" maskUnits="userSpaceOnUse"><g class="cls-99"><g transform="translate(-44.95 -384.76)"><g class="cls-7"><polygon class="cls-8" points="2848.15 1264.27 3251.26 2567.15 2848.15 2581.92 2848.15 1264.27"/></g></g></g></mask><linearGradient id="Áåçûìÿííûé_ãðàäèåíò_567-3" x1="1451.95" y1="781.07" x2="1573.67" y2="781.07" xlink:href="#Áåçûìÿííûé_ãðàäèåíò_567"/><linearGradient id="Áåçûìÿííûé_ãðàäèåíò_567-4" x1="1374.88" y1="603.3" x2="1551.31" y2="603.3" xlink:href="#Áåçûìÿííûé_ãðàäèåíò_567"/><linearGradient id="Áåçûìÿííûé_ãðàäèåíò_609" x1="1365.62" y1="643.69" x2="1509.67" y2="744.68" gradientTransform="matrix(-1, 0, 0, 1, 4514.5, 0)" gradientUnits="userSpaceOnUse"><stop offset="0.17" stop-color="#e0f3f4"/><stop offset="0.79" stop-color="#4d98a0"/></linearGradient><filter id="luminosity-noclip-10" x="2992.83" y="521.06" width="135.62" height="119.37" filterUnits="userSpaceOnUse" color-interpolation-filters="sRGB"><feFlood flood-color="#fff" result="bg"/><feBlend in="SourceGraphic" in2="bg"/></filter><mask id="mask-10" x="2947.88" y="136.3" width="135.62" height="119.37" maskUnits="userSpaceOnUse"><g class="cls-98"><g transform="translate(-44.95 -384.76)"><g class="cls-9"><path class="cls-10" d="M3107.05,640.43s48.16-67.18,0-103.92-114.22,3.57-114.22,3.57,61.59-2,90.71,22.45S3109.45,625.55,3107.05,640.43Z"/></g></g></g></mask><linearGradient id="Áåçûìÿííûé_ãðàäèåíò_614" x1="1407.55" y1="482.04" x2="1464.45" y2="591.03" gradientTransform="matrix(-1, 0, 0, 1, 4514.5, 0)" gradientUnits="userSpaceOnUse"><stop offset="0.06" stop-color="#fff"/><stop offset="1" stop-color="#fff"/></linearGradient><linearGradient id="Áåçûìÿííûé_ãðàäèåíò_567-5" x1="1923.92" y1="466.88" x2="2067.17" y2="466.88" gradientTransform="matrix(-0.95, -0.32, -0.32, 0.95, 4922.93, 756.31)" xlink:href="#Áåçûìÿííûé_ãðàäèåíò_567"/><linearGradient id="Áåçûìÿííûé_ãðàäèåíò_567-6" x1="2834.64" y1="774.49" x2="2977.88" y2="774.49" gradientTransform="translate(247.41 756.31) rotate(-18.66)" xlink:href="#Áåçûìÿííûé_ãðàäèåíò_567"/><linearGradient id="Áåçûìÿííûé_ãðàäèåíò_567-7" x1="3021.16" y1="1791.05" x2="3153.4" y2="1791.05" gradientTransform="translate(656.67 3104.66) rotate(-78.24)" xlink:href="#Áåçûìÿííûé_ãðàäèåíò_567"/><linearGradient id="Áåçûìÿííûé_ãðàäèåíò_567-8" x1="1547.59" y1="478.33" x2="1638.29" y2="478.33" xlink:href="#Áåçûìÿííûé_ãðàäèåíò_567"/><linearGradient id="Áåçûìÿííûé_ãðàäèåíò_567-9" x1="1315.14" y1="479.73" x2="1394.85" y2="479.73" xlink:href="#Áåçûìÿííûé_ãðàäèåíò_567"/><linearGradient id="Áåçûìÿííûé_ãðàäèåíò_567-10" x1="2438.93" y1="2981.77" x2="2548.96" y2="2981.77" gradientTransform="translate(1022.24 -1095.42) rotate(28.66)" xlink:href="#Áåçûìÿííûé_ãðàäèåíò_567"/><linearGradient id="Áåçûìÿííûé_ãðàäèåíò_567-11" x1="2203.7" y1="2029.19" x2="2271.88" y2="2029.19" xlink:href="#Áåçûìÿííûé_ãðàäèåíò_567"/><linearGradient id="Áåçûìÿííûé_ãðàäèåíò_567-12" x1="2255.71" y1="1973.35" x2="2333.08" y2="1973.35" xlink:href="#Áåçûìÿííûé_ãðàäèåíò_567"/><linearGradient id="Áåçûìÿííûé_ãðàäèåíò_567-13" x1="2287.52" y1="2023.95" x2="2386.32" y2="2023.95" xlink:href="#Áåçûìÿííûé_ãðàäèåíò_567"/><linearGradient id="Áåçûìÿííûé_ãðàäèåíò_567-14" x1="2596.38" y1="1687.4" x2="2605.45" y2="1687.4" gradientTransform="translate(-194.28 -384.76)" xlink:href="#Áåçûìÿííûé_ãðàäèåíò_567"/><linearGradient id="Áåçûìÿííûé_ãðàäèåíò_567-15" x1="2595.22" y1="1686.36" x2="2635.53" y2="1686.36" gradientTransform="translate(-149.33)" xlink:href="#Áåçûìÿííûé_ãðàäèåíò_567"/><linearGradient id="Áåçûìÿííûé_ãðàäèåíò_567-16" x1="2545.33" y1="1687.4" x2="2554.4" y2="1687.4" gradientTransform="translate(-194.28 -384.76)" xlink:href="#Áåçûìÿííûé_ãðàäèåíò_567"/><linearGradient id="Áåçûìÿííûé_ãðàäèåíò_567-17" x1="2544.17" y1="1686.36" x2="2584.48" y2="1686.36" gradientTransform="translate(-149.33)" xlink:href="#Áåçûìÿííûé_ãðàäèåíò_567"/><linearGradient id="Áåçûìÿííûé_ãðàäèåíò_567-18" x1="2547.49" y1="1301.14" x2="2647.58" y2="1301.14" gradientTransform="translate(-149.33)" xlink:href="#Áåçûìÿííûé_ãðàäèåíò_567"/><linearGradient id="Áåçûìÿííûé_ãðàäèåíò_567-19" x1="3470.9" y1="1771.63" x2="3580.93" y2="1771.63" gradientTransform="translate(1022.24 -1095.42) rotate(28.66)" xlink:href="#Áåçûìÿííûé_ãðàäèåíò_567"/><linearGradient id="Áåçûìÿííûé_ãðàäèåíò_567-20" x1="731.48" y1="2112.3" x2="803.13" y2="2112.3" gradientTransform="matrix(-0.98, 0.2, 0.2, 0.98, 3744.42, -722.41)" xlink:href="#Áåçûìÿííûé_ãðàäèåíò_567"/><linearGradient id="Áåçûìÿííûé_ãðàäèåíò_567-21" x1="1189.06" y1="1822.27" x2="1534.27" y2="1822.27" xlink:href="#Áåçûìÿííûé_ãðàäèåíò_567"/><linearGradient id="Áåçûìÿííûé_ãðàäèåíò_567-22" x1="1176.13" y1="1755.32" x2="1232.93" y2="1755.32" xlink:href="#Áåçûìÿííûé_ãðàäèåíò_567"/><linearGradient id="Áåçûìÿííûé_ãðàäèåíò_567-23" x1="1244.37" y1="1417.88" x2="1315.07" y2="1417.88" gradientTransform="matrix(-0.95, -0.32, -0.32, 0.95, 4922.93, 756.31)" xlink:href="#Áåçûìÿííûé_ãðàäèåíò_567"/><linearGradient id="Áåçûìÿííûé_ãðàäèåíò_567-24" x1="2686.07" y1="1904.84" x2="2756.77" y2="1904.84" gradientTransform="translate(247.41 756.31) rotate(-18.66)" xlink:href="#Áåçûìÿííûé_ãðàäèåíò_567"/><linearGradient id="Áåçûìÿííûé_ãðàäèåíò_567-25" x1="1953.86" y1="2319.41" x2="2024.56" y2="2319.41" gradientTransform="translate(656.67 3104.66) rotate(-78.24)" xlink:href="#Áåçûìÿííûé_ãðàäèåíò_567"/><linearGradient id="Áåçûìÿííûé_ãðàäèåíò_567-26" x1="1216.87" y1="1646.58" x2="1261.25" y2="1646.58" xlink:href="#Áåçûìÿííûé_ãðàäèåíò_567"/><linearGradient id="Áåçûìÿííûé_ãðàäèåíò_567-27" x1="1103.13" y1="1647.33" x2="1142.13" y2="1647.33" xlink:href="#Áåçûìÿííûé_ãðàäèåíò_567"/><linearGradient id="Áåçûìÿííûé_ãðàäèåíò_567-28" x1="3404.52" y1="2729.55" x2="3589" y2="2729.55" xlink:href="#Áåçûìÿííûé_ãðàäèåíò_567"/><linearGradient id="Áåçûìÿííûé_ãðàäèåíò_567-29" x1="1717.29" y1="1647.63" x2="1788.94" y2="1647.63" gradientTransform="matrix(-0.62, 0.79, 0.79, 0.62, 1794.32, -1235.91)" xlink:href="#Áåçûìÿííûé_ãðàäèåíò_567"/></defs><title>29</title><g id="Ñëîé_1" data-name="Ñëîé 1"><path class="cls-11" d="M3671.43,2913.07s482.7-405.27,446.28-510.32-191,30.14-208.42,15.37S4147,2289.17,4110.55,2118.8s-304.5,67.32-304.5,67.32Z" transform="translate(-44.95 -384.76)"/><path class="cls-12" d="M3499.11,3330.41s317.7-665.39,446.68-1063.65C4068.76,1887,4306.3,872.08,3285,717.89c-618.15-93.33-854.09,337.63-952.6,716.29-44.69,171.79-308.17-170.32-553.41,31.17s-314.26,944.76-679.89,978.79c-215.07,20-715.29-83.88-874.15,415.77-85.13,267.73,13.36,505.64,13.36,505.64Z" transform="translate(-44.95 -384.76)"/><path class="cls-11" d="M1430.18,3379.52c162.87-677.85-194.44-722.22-277.74-578.18-72,124.6-183.87,73.76-226.15,51.35C681.64,2723,529.73,2599.06,367.65,2718.36c-128.43,94.55-17.4,360.54-39.09,504.46-9.33,61.88-55.64,111.82-55.64,111.82s37.16-128.54,17.52-154.81-29.41,29.59-50.05,26.93,2.57-80.22-41.27-70.3c-69.6,15.74-17.75,148.28-32.19,145.91S88.37,3198.28,65,3215.74C-19.92,3279.1,192.54,3382,192.54,3382Z" transform="translate(-44.95 -384.76)"/><path class="cls-13" d="M433.55,2899.81h788.9a0,0,0,0,1,0,0v493.36a4.33,4.33,0,0,1-4.33,4.33H437.87a4.33,4.33,0,0,1-4.33-4.33V2899.81A0,0,0,0,1,433.55,2899.81Z" transform="translate(1611.05 5912.56) rotate(-180)"/><rect class="cls-14" x="454.71" y="2950.38" width="744.88" height="425.75" transform="translate(1609.36 5941.74) rotate(-180)"/><path class="cls-15" d="M606,3035h464.33a5.85,5.85,0,0,0,0-11.7H606a5.85,5.85,0,1,0,0,11.7Z" transform="translate(-44.95 -384.76)"/><path class="cls-15" d="M606,3087.5h464.33a5.85,5.85,0,1,0,0-11.7H606a5.85,5.85,0,1,0,0,11.7Z" transform="translate(-44.95 -384.76)"/><path class="cls-15" d="M606,3140h464.33a5.85,5.85,0,1,0,0-11.7H606a5.85,5.85,0,1,0,0,11.7Z" transform="translate(-44.95 -384.76)"/><path class="cls-15" d="M606,3192.48h464.33a5.86,5.86,0,0,0,0-11.71H606a5.86,5.86,0,1,0,0,11.71Z" transform="translate(-44.95 -384.76)"/><path class="cls-15" d="M606,3245h464.33a5.85,5.85,0,1,0,0-11.7H606a5.85,5.85,0,1,0,0,11.7Z" transform="translate(-44.95 -384.76)"/><path class="cls-15" d="M606,3297.45h464.33a5.85,5.85,0,1,0,0-11.7H606a5.85,5.85,0,1,0,0,11.7Z" transform="translate(-44.95 -384.76)"/><rect class="cls-16" x="295.35" y="3374.02" width="927.09" height="23.48" transform="translate(1472.85 6386.76) rotate(-180)"/><rect class="cls-17" x="295.35" y="3397.5" width="664.85" height="37.41" transform="translate(1210.61 6447.66) rotate(-180)"/><rect class="cls-18" x="960.2" y="3397.5" width="262.24" height="37.41" transform="translate(2137.7 6447.66) rotate(-180)"/><path class="cls-19" d="M406.43,3301.74h0Z" transform="translate(-44.95 -384.76)"/><path class="cls-11" d="M2741.85,1735s46.7-449.33-15.6-463.73-66.38,231.53-141.79,235.93-197.56-80.11-290.79-1.36c-72.17,60.95-48.68,139.41-97.83,169.21S2080.8,1483,2022,1514.38c-40.76,21.8,32,71.6,2.37,119.79-18.75,30.54-44.55-38.3-120.92-38.3-112.71,0-109.38,128.1-39.14,152.57s135.5,14.49,157.69,65.68c36.93,85.15-116.66,52.35-187,74.44-339.53,106.64-172.63,552.3-320,544-157.86-8.92,928.35,54,928.35,54Z" transform="translate(-44.95 -384.76)"/><path class="cls-19" d="M2096,1732.37a3,3,0,0,0,3-2.52c.21-1.33,5.05-33-12.36-89.36-17.34-56.07-42.22-93.29-42.47-93.66a3,3,0,0,0-5,3.35c.25.37,24.64,36.91,41.7,92.08,17,54.82,12.23,86.32,12.17,86.63a3,3,0,0,0,2.49,3.44A2.67,2.67,0,0,0,2096,1732.37Z" transform="translate(-44.95 -384.76)"/><path class="cls-19" d="M1703.92,2092.74l.45,0,81.71-12.24a2.94,2.94,0,0,0,2.19-1.54,3,3,0,0,0,.09-2.69l-44-94.82a3,3,0,0,0-5.44,2.53l42.32,91.19-77.75,11.64a3,3,0,0,0,.44,6Z" transform="translate(-44.95 -384.76)"/><path class="cls-19" d="M1720.3,2162h.12L1848,2157a3,3,0,0,0,2.88-3.08l-2.76-102.25a3,3,0,1,0-6,.16l2.68,99.29-124.6,4.93a3,3,0,0,0,.11,6Z" transform="translate(-44.95 -384.76)"/><rect class="cls-11" x="3035.79" y="1028.14" width="952.38" height="588.17" rx="2.48" transform="translate(6979.01 2259.69) rotate(-180)"/><rect class="cls-13" x="3766.64" y="973.64" width="73.9" height="258.26"/><rect class="cls-13" x="3651.68" y="874.75" width="73.9" height="357.14"/><rect class="cls-13" x="3196.18" y="875.73" width="73.9" height="357.14"/><rect class="cls-13" x="3536.72" y="1015.92" width="73.9" height="215.97"/><rect class="cls-13" x="3080.59" y="1016.89" width="73.9" height="215.97"/><rect class="cls-13" x="3421.76" y="869.6" width="73.9" height="362.3"/><rect class="cls-13" x="3301.07" y="731.52" width="85.37" height="505.17"/><g class="cls-20"><rect class="cls-13" x="3774.32" y="922.8" width="73.9" height="6"/><rect class="cls-13" x="3774.32" y="903.17" width="73.9" height="6"/><rect class="cls-13" x="3774.32" y="883.54" width="73.9" height="6"/></g><g class="cls-20"><rect class="cls-13" x="3658.04" y="840.68" width="73.9" height="6"/><rect class="cls-13" x="3658.04" y="821.06" width="73.9" height="6"/><rect class="cls-13" x="3658.04" y="801.43" width="73.9" height="6"/></g><g class="cls-20"><rect class="cls-13" x="3542.72" y="973.43" width="73.9" height="6"/><rect class="cls-13" x="3542.72" y="953.81" width="73.9" height="6"/><rect class="cls-13" x="3542.72" y="934.19" width="73.9" height="6"/></g><g class="cls-20"><rect class="cls-13" x="3426.44" y="819.7" width="73.9" height="6"/><rect class="cls-13" x="3426.44" y="800.08" width="73.9" height="6"/><rect class="cls-13" x="3426.44" y="780.45" width="73.9" height="6"/></g><g class="cls-20"><rect class="cls-13" x="3306.8" y="707.65" width="73.9" height="6"/><rect class="cls-13" x="3306.8" y="688.03" width="73.9" height="6"/><rect class="cls-13" x="3306.8" y="668.4" width="73.9" height="6"/></g><g class="cls-20"><rect class="cls-19" x="3196.18" y="833.75" width="73.9" height="6"/><rect class="cls-19" x="3196.18" y="814.13" width="73.9" height="6"/><rect class="cls-19" x="3196.18" y="794.5" width="73.9" height="6"/></g><g class="cls-20"><rect class="cls-19" x="3080.59" y="956.9" width="73.9" height="6"/><rect class="cls-19" x="3080.59" y="937.28" width="73.9" height="6"/><rect class="cls-19" x="3080.59" y="917.65" width="73.9" height="6"/></g><g class="cls-21"><path class="cls-12" d="M3563.32,1501.08c44.56,0,75.94-17.28,108.85-35.41,26.5-14.59,53.89-29.68,91-37.12,85.87-17.14,154.57,53.08,155.25,53.79a12,12,0,0,0,17.31-16.63c-3.16-3.29-78.58-80.49-177.27-60.69-40.77,8.16-71.12,24.88-97.89,39.63-36.64,20.18-68.31,37.6-118.73,31-38.86-5.1-61.61-28.44-85.69-53.16-29.38-30.15-62.68-64.32-127.95-64.32-122.62,0-184.3,105.44-186.86,109.93a12,12,0,0,0,20.82,11.92c.57-1,57.59-97.85,166-97.85,55.15,0,82.16,27.72,110.76,57.07,25.88,26.56,52.64,54,99.75,60.21A187.7,187.7,0,0,0,3563.32,1501.08Z" transform="translate(-44.95 -384.76)"/></g><rect class="cls-11" x="373.52" y="1995.04" width="943.62" height="554.25" rx="2.39" transform="translate(1645.71 4159.56) rotate(-180)"/><polygon class="cls-13" points="1244.9 2164.07 1088.96 1988.14 1048.01 2036.73 944.9 1867.89 877.99 2025.44 722.65 1769.42 620.24 2011.26 467.62 1676.78 467.62 2164.22 1244.9 2164.07"/><polygon class="cls-11" points="444.71 1706.23 474.58 1653.34 510.16 1703.59 444.71 1706.23"/><g class="cls-22"><path class="cls-11" d="M1274.38,2497.08a12,12,0,0,0,10.46-17.84l-82.95-148.83a12,12,0,0,0-22,2.58l-9.22,32.55-82.11-114.4a11.84,11.84,0,0,0-10.11-5,12,12,0,0,0-9.78,5.6L980.24,2392,861,2166a12,12,0,0,0-21.65.86l-84.05,195.63L581.7,2047.17a12,12,0,1,0-21,11.57l185.42,336.88a11.46,11.46,0,0,0,11.1,6.2,12,12,0,0,0,10.44-7.25l83.83-195.12,117.25,222.08a12,12,0,0,0,10.16,6.39,11.78,11.78,0,0,0,10.6-5.59l90-142.71,86.23,120.14A12,12,0,0,0,1187,2396l8.1-28.59,68.83,123.49A12,12,0,0,0,1274.38,2497.08Z" transform="translate(-44.95 -384.76)"/></g><rect class="cls-11" x="788.35" y="1736.14" width="62.6" height="6"/><g class="cls-23"><rect class="cls-13" x="914.41" y="1836.65" width="62.6" height="6"/></g><g class="cls-23"><rect class="cls-13" x="1006.75" y="1845.24" width="62.6" height="6"/></g><rect class="cls-11" x="685.3" y="1725.6" width="62.59" height="6"/><rect class="cls-11" x="487.29" y="1655.02" width="62.6" height="6"/><rect class="cls-11" x="376.59" y="1737.35" width="62.59" height="6"/><g class="cls-23"><rect class="cls-11" x="376.59" y="1773.08" width="62.59" height="6"/></g><g class="cls-23"><rect class="cls-13" x="376.59" y="1808.81" width="62.59" height="6"/></g><g class="cls-23"><rect class="cls-13" x="376.59" y="1844.54" width="62.59" height="6"/></g><rect class="cls-13" x="376.59" y="1880.27" width="62.59" height="6"/><g class="cls-23"><rect class="cls-13" x="376.59" y="1915.98" width="62.59" height="6"/></g><rect class="cls-13" x="376.59" y="1951.72" width="62.59" height="6"/><rect class="cls-13" x="376.59" y="1987.45" width="62.59" height="6"/><rect class="cls-13" x="376.59" y="2023.18" width="62.59" height="6"/><g class="cls-23"><rect class="cls-13" x="376.59" y="2058.91" width="62.59" height="6"/></g><path class="cls-11" d="M3350.92,3464.14h270.6s411.63-448.26,306.45-597.58-223.39,24.26-272,5.08,282.62-365.31,57.5-579.72c-184.62-175.83-658.11,45.33-658.11,45.33L2951.3,3461.5Z" transform="translate(-44.95 -384.76)"/><path class="cls-13" d="M1500.47,2687.14a2.79,2.79,0,0,1,2.79-2.79H1606L1560.92,2592a2.79,2.79,0,0,1,1.29-3.73,110,110,0,1,1-61.74,98.83Zm66.71-95,45.77,93.78a2.79,2.79,0,0,1-2.51,4H1506.09a104.43,104.43,0,1,0,61.09-97.79Z" transform="translate(-44.95 -384.76)"/><path class="cls-13" d="M1587.45,2671.56l-41.92-74.93s-25.06,6.65-39.52,37.46a67.94,67.94,0,0,0-5.67,37.47Z" transform="translate(-44.95 -384.76)"/><path class="cls-13" d="M1592,2599.42a2.8,2.8,0,0,0,2-4.77l-60.77-60.76a2.75,2.75,0,0,0-2-.82h-54.89a2.79,2.79,0,0,0,0,5.58h53.73l60,59.95A2.81,2.81,0,0,0,1592,2599.42Z" transform="translate(-44.95 -384.76)"/><path class="cls-13" d="M1441.6,2521.75H1528a2.8,2.8,0,0,0,0-5.59H1441.6a2.8,2.8,0,0,0,0,5.59Z" transform="translate(-44.95 -384.76)"/><path class="cls-13" d="M1441.6,2504.84H1528a2.79,2.79,0,0,0,0-5.58H1441.6a2.79,2.79,0,0,0,0,5.58Z" transform="translate(-44.95 -384.76)"/><path class="cls-13" d="M1441.6,2487.94H1528a2.79,2.79,0,1,0,0-5.58H1441.6a2.79,2.79,0,0,0,0,5.58Z" transform="translate(-44.95 -384.76)"/><path class="cls-13" d="M1441.6,2471H1528a2.79,2.79,0,0,0,0-5.58H1441.6a2.79,2.79,0,1,0,0,5.58Z" transform="translate(-44.95 -384.76)"/><path class="cls-13" d="M1639.48,2516.87a2.79,2.79,0,0,0,2.21-4.5l-24.52-31.74a2.77,2.77,0,0,0-2-1.08,2.84,2.84,0,0,0-2.15.81l-26.92,27-21.1-26.72a2.76,2.76,0,0,0-2.27-1.07,2.81,2.81,0,0,0-2.2,1.19l-18.25,25.92a2.79,2.79,0,0,0,4.57,3.21L1562.9,2487l20.72,26.26a2.79,2.79,0,0,0,2,1,2.86,2.86,0,0,0,2.14-.81l26.9-26.95,22.58,29.23A2.77,2.77,0,0,0,1639.48,2516.87Z" transform="translate(-44.95 -384.76)"/><path class="cls-13" d="M1561.09,2516.13a2.78,2.78,0,0,0,2.09-1l23.94-27,22.9,24.05a2.79,2.79,0,0,0,3.8.23l27.44-22.63a2.8,2.8,0,1,0-3.56-4.31l-25.43,21-23.2-24.37a2.66,2.66,0,0,0-2.07-.87,2.8,2.8,0,0,0-2,.94l-26,29.32a2.8,2.8,0,0,0,2.09,4.65Z" transform="translate(-44.95 -384.76)"/><path class="cls-13" d="M1486.76,2585.68a14.57,14.57,0,1,1,14.57,14.57A14.59,14.59,0,0,1,1486.76,2585.68Zm5.58,0a9,9,0,1,0,9-9A9,9,0,0,0,1492.34,2585.68Z" transform="translate(-44.95 -384.76)"/><path class="cls-13" d="M1489.16,2565.46h25.49a2.8,2.8,0,0,0,0-5.59h-25.49a2.8,2.8,0,0,0,0,5.59Z" transform="translate(-44.95 -384.76)"/><path class="cls-13" d="M1553.43,2707.9h60.84a2.8,2.8,0,1,0,0-5.59h-60.84a2.8,2.8,0,0,0,0,5.59Z" transform="translate(-44.95 -384.76)"/><rect class="cls-13" x="1513.11" y="2360.82" width="14.88" height="86.78" transform="translate(2996.16 4423.66) rotate(-180)"/><rect class="cls-13" x="1544.53" y="2404.21" width="13.95" height="43.39" transform="translate(3058.05 4467.05) rotate(-180)"/><rect class="cls-13" x="1482.2" y="2404.21" width="13.95" height="43.39" transform="translate(2933.4 4467.05) rotate(-180)"/><rect class="cls-13" x="1574.07" y="2380.64" width="14.88" height="66.96" transform="translate(3118.07 4443.48) rotate(-180)"/><rect class="cls-13" x="1604.55" y="2404.21" width="14.88" height="43.39" transform="translate(3179.03 4467.05) rotate(-180)"/><polygon class="cls-24" points="2627.4 921.86 2935.45 424.69 3010.47 424.69 3206.31 979.9 3144.78 979.54 2853.18 1438.87 2727.68 3123.87 2727.68 922.22 2627.4 921.86"/><polygon class="cls-24" points="2337.63 1295.8 2727.68 1295.8 2853.21 1345.81 2853.21 3123.87 2337.63 3123.87 2337.63 1295.8"/><polygon class="cls-24" points="1578.43 2116.65 1959.38 2116.65 1956.95 3123.87 1576.01 3123.87 1578.43 2116.65"/><rect class="cls-24" x="1203.56" y="2495.01" width="380.68" height="628.86"/><rect class="cls-24" x="1956.95" y="1692.75" width="380.68" height="1431.12"/><rect class="cls-25" x="2457.59" y="1734.88" width="390.02" height="1773.76" transform="translate(5260.25 4858.75) rotate(-180)"/><polygon class="cls-25" points="2703.63 881.76 3010.47 424.69 3338.07 884.95 3219.79 884.59 3219.79 3123.87 2802.69 3123.87 2802.69 882.13 2703.63 881.76"/><path class="cls-26" d="M3054.05,1050.77c90.79,0,193.09-7.66,199.65-36.6,2.08-9.21,0-17.37-6.07-24.26-19.28-21.71-73.88-22.3-76.19-22.32l-.08,9.63c.52,0,51.93.56,68.06,18.75,4.08,4.6,5.37,9.92,3.93,16.26-1.21,5.37-14.77,23.27-138.15,28-71.45,2.73-150.54-.45-182.84-5-41-5.74-69.62-17.11-78.42-31.2-3.27-5.25-3.62-10.63-1-16.44,9.42-21.27,48.91-21.41,49.48-21.42l0-9.62c-1.82,0-47.22.16-59.31,27.44a25.48,25.48,0,0,0,1.67,24.8c10.55,16.9,41.09,29.67,86,36C2940.34,1047.5,2994.74,1050.77,3054.05,1050.77Z" transform="translate(-44.95 -384.76)"/><path class="cls-27" d="M3017.16,944.74c73.33,0,140.4-15.72,144.8-38.36a19.44,19.44,0,0,0-4.44-16.77c-12.91-15.53-48.55-19-50.06-19.09l-1.06,9.58c9,.83,34.3,5.21,42.7,15.32a10.61,10.61,0,0,1,2.46,9.28c-3.87,19.94-105,40.12-201.8,25.63-26.4-4-44.64-11.06-51.35-20a13.67,13.67,0,0,1-2.5-11.93c6.67-28.72,48.77-28.14,49.16-28.13l.25-9.62c-17.74-.37-53,6.6-59.74,35.76a22.5,22.5,0,0,0,4.11,19.35c10.71,14.27,37.65,21,58.35,24.07A471.71,471.71,0,0,0,3017.16,944.74Z" transform="translate(-44.95 -384.76)"/><rect class="cls-25" x="1695.97" y="2541.32" width="380.94" height="967.32" transform="translate(3727.94 5665.19) rotate(-180)"/><rect class="cls-25" x="1315.29" y="2938.27" width="380.68" height="570.37" transform="translate(2966.32 6062.14) rotate(-180)"/><rect class="cls-25" x="2076.91" y="2118.8" width="380.68" height="1389.84" transform="translate(4489.56 5242.67) rotate(-180)"/><g class="cls-28"><polygon class="cls-29" points="1651.02 2553.51 1827.3 3123.24 1651.02 3123.24 1651.02 2553.51"/></g><g class="cls-30"><polygon class="cls-31" points="2031.97 2154.15 2328.71 3113.24 2031.97 3123.87 2031.97 2154.15"/></g><g class="cls-32"><polygon class="cls-24" points="2412.64 1350.12 2798.67 2597.78 2412.64 2667.77 2412.64 1350.12"/></g><g class="cls-33"><polygon class="cls-24" points="2803.2 879.51 3206.31 2182.39 2803.2 2197.16 2803.2 879.51"/></g><path class="cls-34" d="M2585.71,1689.31a5.3,5.3,0,0,0,5-3.16l273.81-679.47a4.71,4.71,0,0,0-3.14-6.18,5.46,5.46,0,0,0-6.78,2.86l-273.8,679.48a4.69,4.69,0,0,0,3.13,6.17A5.78,5.78,0,0,0,2585.71,1689.31Z" transform="translate(-44.95 -384.76)"/><path class="cls-34" d="M2513.79,1689.31a5.27,5.27,0,0,0,4.95-3.16l273.81-679.47a4.7,4.7,0,0,0-3.14-6.18,5.44,5.44,0,0,0-6.77,2.86l-273.81,679.48A4.7,4.7,0,0,0,2512,1689,5.8,5.8,0,0,0,2513.79,1689.31Z" transform="translate(-44.95 -384.76)"/><path class="cls-34" d="M2763.42,1069.83h71.68a4.83,4.83,0,1,0,0-9.62h-71.68a4.83,4.83,0,1,0,0,9.62Z" transform="translate(-44.95 -384.76)"/><path class="cls-34" d="M2733.84,1144.33h71.68a4.83,4.83,0,1,0,0-9.62h-71.68a4.83,4.83,0,1,0,0,9.62Z" transform="translate(-44.95 -384.76)"/><path class="cls-34" d="M2704.26,1218.84h69.14a4.83,4.83,0,1,0,0-9.62h-69.14a4.83,4.83,0,1,0,0,9.62Z" transform="translate(-44.95 -384.76)"/><path class="cls-34" d="M2674.68,1293.34h67.92a4.83,4.83,0,1,0,0-9.62h-67.92a4.83,4.83,0,1,0,0,9.62Z" transform="translate(-44.95 -384.76)"/><path class="cls-34" d="M2645.1,1367.85h70.15a4.83,4.83,0,1,0,0-9.62H2645.1a4.83,4.83,0,1,0,0,9.62Z" transform="translate(-44.95 -384.76)"/><path class="cls-34" d="M2615.52,1442.35h69.71a4.83,4.83,0,1,0,0-9.62h-69.71a4.83,4.83,0,1,0,0,9.62Z" transform="translate(-44.95 -384.76)"/><path class="cls-34" d="M2585.94,1516.86h69.26a4.83,4.83,0,1,0,0-9.62h-69.26a4.83,4.83,0,1,0,0,9.62Z" transform="translate(-44.95 -384.76)"/><path class="cls-34" d="M2555.37,1591.36h68.15a4.83,4.83,0,1,0,0-9.62h-68.15a4.83,4.83,0,1,0,0,9.62Z" transform="translate(-44.95 -384.76)"/><path class="cls-35" d="M2940.94,871.22c4.4,0,107.77-1.49,118.77-42.49,6.17-23,.39-133.13.14-137.81l-10.55.47c2.09,39.12,4.8,117.7.15,135.05-7.53,28.07-81,34.9-108.62,35.16Z" transform="translate(-44.95 -384.76)"/><path class="cls-36" d="M2963.19,581.45c0-44.4,39.5-66,88.21-66s88.22,21.61,88.22,66a74,74,0,0,1-.73,10.14.57.57,0,0,1,0,.13c-.45,8.21-3.42,16.14-7.68,24a77.33,77.33,0,0,1-4.65,7.84c-8,12.58-18.36,25.09-25.85,38.29-13.7,24.14-10.55,29.32-10.55,29.32h-77.84s3.48-5.18-10.22-29.32-36.76-45.33-38.1-69.51v-.12A73.43,73.43,0,0,1,2963.19,581.45Z" transform="translate(-44.95 -384.76)"/><path class="cls-37" d="M3012.08,684.33s15.3,6.79,39.13,6.82,39.14-6.82,39.14-6.82,12.24,8.65,9.1,12.08-4.72,2.86-4.72,2.86,2.21,34.32-8.46,43.47c-9.9,8.5-32.7,8.12-35.93,8-3,.09-24.28.47-34.18-8-10.67-9.15-8.46-43.47-8.46-43.47s-1.59.57-4.73-2.86S3012.08,684.33,3012.08,684.33Z" transform="translate(-44.95 -384.76)"/><path d="M3072.86,690.45c.1-2,1.65-31.23,5.15-57.3A38.57,38.57,0,0,1,3065,626.3a21,21,0,0,1-5.72,5.69,11.61,11.61,0,0,1-8.71,2l.77-3.13a8.15,8.15,0,0,0,5.9-1.43,18.24,18.24,0,0,0,5.14-5.33,16,16,0,0,1-4.78-10.78c-.17-2.76-.79-16.72,3.49-19.78a3.65,3.65,0,0,1,3.16-.55c4.8,1.31,6.84,11.51,5.74,20.21a30.1,30.1,0,0,1-3.25,10.28,35.47,35.47,0,0,0,11.76,6.47c2.28-16.08,5.34-30.44,9.29-35.68,5.11-6.8,9.54-5.67,11.21-4.87,6.42,3.08,8.64,17.53,1.06,35.51a14.56,14.56,0,0,1-10.89,9,21.71,21.71,0,0,1-7.68,0c-3.47,26.35-5,56.19-5.07,56.68ZM3090.65,596c-3.67,4.88-6.57,18.9-8.77,34.7a17.9,17.9,0,0,0,6.49,0,11.13,11.13,0,0,0,8.36-7c7.43-17.61,4.38-29.7.59-31.52a2.51,2.51,0,0,0-1.09-.25C3094,591.94,3091.66,594.7,3090.65,596Zm-29.57,17.06a13,13,0,0,0,3,7.84,27.57,27.57,0,0,0,2.38-8.15c1.11-8.86-1.48-16.28-3.2-16.79C3062,596.59,3060.49,603.39,3061.08,613.09Z" transform="translate(-44.95 -384.76)"/><path d="M3024,633.92a21.71,21.71,0,0,1-7.68,0,14.55,14.55,0,0,1-10.89-9c-7.59-18-5.36-32.43,1.06-35.51,1.66-.8,6.09-1.93,11.21,4.87,4,5.24,7,19.59,9.29,35.67a35.91,35.91,0,0,0,11.75-6.46,30.31,30.31,0,0,1-3.24-10.28c-1.1-8.7.94-18.9,5.73-20.21a3.67,3.67,0,0,1,3.17.55c4.27,3.06,3.65,17,3.49,19.78a16,16,0,0,1-4.78,10.77,18,18,0,0,0,5.14,5.34,8.14,8.14,0,0,0,5.9,1.43l.77,3.13a11.6,11.6,0,0,1-8.71-2,21.13,21.13,0,0,1-5.72-5.68,38.26,38.26,0,0,1-13.05,6.84c3.5,26.07,5,55.29,5.15,57.3l-3.52.15C3029.08,690.11,3027.51,660.27,3024,633.92Zm-9.2-37.89c-1.18-1.55-4.17-5-6.67-3.84-3.79,1.82-6.84,13.91.59,31.52a11.11,11.11,0,0,0,8.36,7,17.7,17.7,0,0,0,6.49,0C3021.41,614.92,3018.51,600.91,3014.84,596ZM3039,612.78a27.5,27.5,0,0,0,2.39,8.17,13.2,13.2,0,0,0,3-7.86c.59-9.7-.87-16.5-2.12-17.08C3040.51,596.5,3037.91,603.92,3039,612.78Z" transform="translate(-44.95 -384.76)"/><g class="cls-38"><path class="cls-39" d="M3107.05,640.43s48.16-67.18,0-103.92-114.22,3.57-114.22,3.57,61.59-2,90.71,22.45S3109.45,625.55,3107.05,640.43Z" transform="translate(-44.95 -384.76)"/></g><path d="M3047.93,706.19c1.18,0,2.39,0,3.62,0,26.27-.55,41.43-5.15,42.06-5.35l-1.13-3c-.15,0-15.34,4.65-41,5.19s-43.12-5.12-43.29-5.18l-1.2,3C3007.68,701,3023.62,706.19,3047.93,706.19Z" transform="translate(-44.95 -384.76)"/><path d="M3053.25,720.51a129.8,129.8,0,0,0,30.55-3.86l-1-3.08c-.18,0-18,4.79-36.06,3.51s-27.45-4.73-27.55-4.77l-1.34,3c.39.15,9.92,3.68,28.62,5C3048.75,720.44,3051,720.51,3053.25,720.51Z" transform="translate(-44.95 -384.76)"/><path d="M3053.25,727.81a129.51,129.51,0,0,0,30.55-3.87l-1-3.07c-.18,0-18,4.79-36.06,3.51s-27.45-4.74-27.55-4.77l-1.34,3c.39.15,9.92,3.68,28.62,5C3048.75,727.74,3051,727.81,3053.25,727.81Z" transform="translate(-44.95 -384.76)"/><path d="M3053.25,735.1a130.4,130.4,0,0,0,30.55-3.86l-1-3.08c-.18.05-18,4.79-36.06,3.51s-27.45-4.73-27.55-4.77l-1.34,3c.39.15,9.92,3.68,28.62,5C3048.75,735,3051,735.1,3053.25,735.1Z" transform="translate(-44.95 -384.76)"/><path class="cls-40" d="M2940.78,593.44a9.42,9.42,0,0,0,4.09-.92c4.3-2,6-6.9,3.7-10.82l-12.42-21.56a9.22,9.22,0,0,0-11.7-3.46l-16.91,7.62-9.35-17.22a8.6,8.6,0,0,0-5.07-4,9.5,9.5,0,0,0-6.72.41l-20.19,9.1-10-18.39a9.2,9.2,0,0,0-11.79-3.63l-28.57,12.89c-4.36,2-6.14,6.77-4,10.74a9.22,9.22,0,0,0,11.79,3.63l20.69-9.33,10,18.4a9.22,9.22,0,0,0,11.79,3.63l20.19-9.11,9.35,17.23c2.16,4,7.44,5.58,11.8,3.63l17.09-7.71,8.43,14.62A8.94,8.94,0,0,0,2940.78,593.44Z" transform="translate(-44.95 -384.76)"/><path class="cls-41" d="M3190.81,593.44a8.94,8.94,0,0,0,7.8-4.29l8.42-14.62,17.1,7.71a9.22,9.22,0,0,0,11.79-3.63l9.36-17.23,20.18,9.11c4.36,2,9.64.34,11.8-3.63l10-18.4,20.68,9.33a9.2,9.2,0,0,0,11.79-3.63c2.16-4,.38-8.78-4-10.74l-28.57-12.89c-4.36-2-9.64-.34-11.79,3.63l-10,18.39-20.18-9.1a9.55,9.55,0,0,0-6.72-.41,8.57,8.57,0,0,0-5.07,4l-9.36,17.22-16.91-7.62a9.21,9.21,0,0,0-11.69,3.46L3183,581.7c-2.26,3.92-.61,8.77,3.7,10.82A9.34,9.34,0,0,0,3190.81,593.44Z" transform="translate(-44.95 -384.76)"/><path class="cls-42" d="M3034.38,513.53a9.37,9.37,0,0,0,4.63-1.21,7.62,7.62,0,0,0,2.83-11.05l-9.57-14,15.95-9.53a7.6,7.6,0,0,0,2.54-11.1l-11.56-16.08L3058,439.29a7.6,7.6,0,0,0,2.54-11.1L3048.22,411l19.31-11.53a7.59,7.59,0,0,0,2.53-11.1,9.32,9.32,0,0,0-12.18-2.31L3031.21,402a7.6,7.6,0,0,0-2.53,11.11L3041,430.27l-18.83,11.25a7.6,7.6,0,0,0-2.54,11.1l11.56,16.08-15.78,9.42a7.62,7.62,0,0,0-2.65,10.95l14.11,20.67A9,9,0,0,0,3034.38,513.53Z" transform="translate(-44.95 -384.76)"/><path class="cls-43" d="M2958.11,519.66a9.22,9.22,0,0,0,6.23-2.35,7.53,7.53,0,0,0,0-11.34l-73.11-66.61a9.39,9.39,0,0,0-12.44,0,7.52,7.52,0,0,0,0,11.34l73.1,66.61A9.21,9.21,0,0,0,2958.11,519.66Z" transform="translate(-44.95 -384.76)"/><path class="cls-44" d="M3128.45,516a9.26,9.26,0,0,0,6.23-2.34l62.1-56.6a7.52,7.52,0,0,0,0-11.34,9.41,9.41,0,0,0-12.44,0l-62.11,56.59a7.53,7.53,0,0,0,0,11.35A9.25,9.25,0,0,0,3128.45,516Z" transform="translate(-44.95 -384.76)"/><path class="cls-13" d="M3648.5,2040.45h208c50.46,0,95.81-35.9,102.42-85.93,1.83-13.83.39-27.34-6.69-38.78-52.18-84.3-129.43,27-155.23,0-8.83-9.25,29.59-109.39-57.64-110.71-88.39-1.33-88.19,85.78-53.49,155.18,18.68,37.38-54.77-14.39-79.44,4.89-12.33,9.65-14.5,23.7-10.56,37.74C3602.32,2025.73,3624.73,2040.45,3648.5,2040.45Z" transform="translate(-44.95 -384.76)"/><path class="cls-11" d="M1298.5,1862.3h-208c-50.47,0-95.81-35.89-102.43-85.92-1.82-13.84-.39-27.35,6.69-38.79,52.19-84.3,129.43,27,155.24,0,8.83-9.25-29.59-109.39,57.63-110.71,88.4-1.33,88.2,85.79,53.5,155.19-18.69,37.37,54.76-14.4,79.43,4.89,12.34,9.64,14.51,23.7,10.57,37.73C1344.68,1847.58,1322.28,1862.3,1298.5,1862.3Z" transform="translate(-44.95 -384.76)"/><circle class="cls-45" cx="1234.95" cy="1520.94" r="17.55"/><path class="cls-13" d="M3693.93,2083.43a23,23,0,1,0,23-23A23,23,0,0,0,3693.93,2083.43Z" transform="translate(-44.95 -384.76)"/><path class="cls-13" d="M3601.38,1753.68a54.19,54.19,0,1,0,54.19-54.18A54.19,54.19,0,0,0,3601.38,1753.68Z" transform="translate(-44.95 -384.76)"/><path class="cls-46" d="M2659.18,947.25l42.24,56.42,71.28,36.54a22.72,22.72,0,0,1,18,4.13c8.44,6.47,9.6,20.8,7.45,22.38s-5.84-1.62-5.84-1.62-8.64-14.08-21.9-16.36c-4.84-.83-70.66-29.9-76.32-32.24-21.11-8.72-54.43-52.9-54.43-52.9Z" transform="translate(-44.95 -384.76)"/><path class="cls-47" d="M2612.32,1111.35l36.74,176.38-15.69,124.89-17.77-2.06s-7.3-57.07-7.3-108.75c0-53-71.7-166.28-64.68-186.51S2616.28,1063.67,2612.32,1111.35Z" transform="translate(-44.95 -384.76)"/><polygon class="cls-46" points="2586.24 1042.59 2570.05 1041.62 2570.73 1023.7 2588.42 1027.85 2586.24 1042.59"/><path class="cls-48" d="M2664,1442.35l-50.84-2.06.77-15.61s18.06-4,29,1.34S2663.26,1433.75,2664,1442.35Z" transform="translate(-44.95 -384.76)"/><path class="cls-49" d="M2632.58,1095.82l92.34,121-42.1,115.39-20.15-5.6s.34-42,13.33-92c8-30.9-139.15-88.56-132.14-108.78S2636.54,1048.13,2632.58,1095.82Z" transform="translate(-44.95 -384.76)"/><polygon class="cls-46" points="2633.24 960.77 2617.05 959.79 2617.72 941.88 2635.41 946.03 2633.24 960.77"/><path class="cls-48" d="M2711,1360.53l-50.85-2.07.77-15.61s18.06-4,29.05,1.35S2710.25,1351.92,2711,1360.53Z" transform="translate(-44.95 -384.76)"/><path class="cls-46" d="M2652.89,846.6s19.15,27.21,17.23,34.72c-1.76,6.9-17.28,7.35-16.11,11.39s14.25,24.64,14.25,24.64-16.67-5.78-23.36-.59c-3,2.32-5.53,4.78-5.53,4.78s-18.73-63.28-2.29-73.29S2652.89,846.6,2652.89,846.6Z" transform="translate(-44.95 -384.76)"/><path class="cls-50" d="M2636.56,910.18s-39.31,4.77-78.19,110.69c-17.83,48.58-14.51,105-14.51,105l100.84-27.75c-8.31-60,39.85-167.56,25.63-184.83C2664.36,906,2643,905.54,2636.56,910.18Z" transform="translate(-44.95 -384.76)"/><path class="cls-46" d="M2681.85,927.46s65.49-46.4,79.89-60.07c16-15.15,31.86-48.65,35.4-61.24a18,18,0,0,0-1-12.85s7.79-1.41,11.61-13.61c2.18-7,1.92-16.18,4.4-13.86s4.22,18.37-1.93,32.91-15.12,48.4-32.35,76.77c-22.85,37.63-98.66,83.4-98.66,83.4Z" transform="translate(-44.95 -384.76)"/><path class="cls-50" d="M2787.86,825.12l15,9.14s-16.23,45.41-47.32,77.93c-31.92,33.39-76.19,61.95-84.27,59.08-16-5.65-36.47-30.95-29.27-45.62,1.61-3.3,53.27-10.87,89.89-37.86C2766.79,862.1,2787.86,825.12,2787.86,825.12Z" transform="translate(-44.95 -384.76)"/><path class="cls-50" d="M2766.08,1036.85s-57.59-41.95-64.66-44.83-17.32-66.79-49-70.32-16.6,54.17-16.6,54.17,38,33.9,59.67,46.51c16.46,9.58,75.19,29.57,75.19,29.57Z" transform="translate(-44.95 -384.76)"/><path class="cls-51" d="M2631.6,885.45s6.51-5.8,5.28-9.25-7-12-3.72-14.37,4.36.43,6.46-.81,23.36-6.08,29.5-23.47-13.67-24.06-22.55-17.07.91,13.79.91,13.79a77.1,77.1,0,0,0-24.39,15.93C2612.11,861.13,2631.6,885.45,2631.6,885.45Z" transform="translate(-44.95 -384.76)"/><ellipse class="cls-52" cx="1875.74" cy="3236.02" rx="185.05" ry="10.95"/><ellipse class="cls-52" cx="2259.01" cy="3220.4" rx="179.02" ry="11.55"/><path class="cls-52" d="M705.57,3538.51c0,6.38,80.15,11.55,179,11.55s179-5.17,179-11.55-80.15-11.55-179-11.55S705.57,3532.13,705.57,3538.51Z" transform="translate(-44.95 -384.76)"/><path class="cls-52" d="M1518.1,3617.44c0,4.14,44.88,7.5,100.24,7.5s100.23-3.36,100.23-7.5-44.87-7.5-100.23-7.5S1518.1,3613.3,1518.1,3617.44Z" transform="translate(-44.95 -384.76)"/><path class="cls-53" d="M1580.87,3242.81,1566,3418.22l8.11,165.87-30.4-3.36s-25.87-139.5-28.92-178.53c-1.25-15.9,8.17-228.08,8.17-228.08S1584.82,3161.77,1580.87,3242.81Z" transform="translate(-44.95 -384.76)"/><path class="cls-46" d="M1548,3604.39s5.43-1.94,7.08-4.27-4-18.59-4-18.59l19.7,2.18v21.38l-24.15,6.42.62-8.43Z" transform="translate(-44.95 -384.76)"/><path class="cls-48" d="M1570.71,3601.84s2.11,12.52,0,15.16-47,3.78-47,3.78l-.74-6.55s9.46-2.22,15-5.05a19.55,19.55,0,0,0,8-8l3.67,6Z" transform="translate(-44.95 -384.76)"/><path class="cls-54" d="M1628.6,3228.25l-4.69,190,8.11,165.87-30.4-3.36s-25.87-139.5-28.92-178.53c-1.25-15.9-20.32-242.77-20.32-242.77S1632.56,3147.21,1628.6,3228.25Z" transform="translate(-44.95 -384.76)"/><path class="cls-49" d="M1600,3008.32a28.4,28.4,0,0,1,27.66,22.25c3.66,16.69,7.56,43.69,7.56,82.93,0,72.63-5.58,107.37-5.58,107.37l-111.91-17s9-79.88-12.78-152.36C1493.15,3012.32,1563.26,3008,1600,3008.32Z" transform="translate(-44.95 -384.76)"/><path class="cls-46" d="M1553.21,2895.45s25.44,21.08,27.53,44.3c1,10.55-18.23,15.61-18.23,15.61-.26,25.91,27.34,51.58,27.34,51.58s-13.72,12.28-31.85,15.9c-27.29,5.46-25.83-6-25-9.07,8.85-33.44-25.78-81.6-10.63-104.22S1553.21,2895.45,1553.21,2895.45Z" transform="translate(-44.95 -384.76)"/><path class="cls-51" d="M1545.41,2902.35a58.8,58.8,0,0,1,18.13-15.15c11-5.62.55-36.43-3.37-35.91s-12.68,19.48-20.93,28.36-28.86,21.75-26.59,47.15,22.92,47.67,22.92,47.67,7.13-8.48,7.34-12.95-12.19-12.54-11.31-17.83,7.63-1,10.54-2.15S1531.65,2923.37,1545.41,2902.35Z" transform="translate(-44.95 -384.76)"/><path class="cls-55" d="M1561.89,3056.38l28-49.44,8-.08-14.7-11.74s-15.38,8-22.88,15.73-10.61,13.24-10.61,13.24l-13.83-16.27-14.85,4.92-3.28,6.7Z" transform="translate(-44.95 -384.76)"/><path class="cls-55" d="M1518.47,3076.27s-63.3,23-74.2,9.51c-9.31-11.52,11.65-59,55.87-109.07,15.73-17.81,26.71-24.9,26.71-24.9l10.4,12.44-60,90.22s34-25.34,37.48-28.72S1525.35,3052.62,1518.47,3076.27Z" transform="translate(-44.95 -384.76)"/><polygon class="cls-56" points="1492.3 2579.49 1507.43 2571.23 1489.07 2529.5 1468.98 2539.97 1492.3 2579.49"/><path class="cls-46" d="M1533.65,2962.49s8.35-4.57,6.42-13.12-5.52-18.42-6.38-22.6-5.37-2.05-5.22,1.79a73.38,73.38,0,0,0,1.25,9.31s-5.66-7.4-6.06-13.11,2.18-15.7-1.76-14.19-10.27,24-8.34,30.71,10.36,14,10.36,14Z" transform="translate(-44.95 -384.76)"/><path class="cls-46" d="M1605.87,3604.39s5.43-1.94,7.08-4.27-4-18.59-4-18.59l19.7,2.18v21.38l-24.15,6.42.62-8.43Z" transform="translate(-44.95 -384.76)"/><path class="cls-48" d="M1628.6,3601.84s2.11,12.52,0,15.16-47,3.78-47,3.78l-.74-6.55s9.46-2.22,15-5.05a19.55,19.55,0,0,0,8-8l3.66,6Z" transform="translate(-44.95 -384.76)"/><path class="cls-55" d="M1613.34,3055.52s37.6,49.6,78,35,71.57-74.46,71.57-74.46l-10.54-11.6s-26.6,36.76-66.73,50c-26.51,8.78-43.53-25.1-58.11-37.34C1603.7,2997.1,1583.79,3022.53,1613.34,3055.52Z" transform="translate(-44.95 -384.76)"/><path class="cls-46" d="M2248.21,3035s74.69-9.26,88.31-10.72,77.56-53.41,77.56-53.41l32.17-10.42s-17.82-1.34-27.37-2.51-10.33,6-10.33,6-64.69,37.14-72.43,37.39c-26.63.86-87.91,5.69-87.91,5.69C2243.13,3013.75,2248.21,3035,2248.21,3035Z" transform="translate(-44.95 -384.76)"/><path class="cls-57" d="M2264,3201.29s47.41,180.68,28.77,236.93c-6.94,21-17.5,134.79-17.5,134.79s.56,23.58,12,28c7.28,2.78-12.41,1.52-12.41,1.52s-19.53-34.72-10.31-41.8-8.68-125.61-1.46-139.15c6.5-12.2-44.26-225.27-44.26-225.27Z" transform="translate(-44.95 -384.76)"/><path class="cls-57" d="M2245.76,3202.15s-19.43,182.3-38.07,238.55c-6.94,21-17.5,134.79-17.5,134.79s.56,23.58,12,28c7.28,2.79-12.41,1.52-12.41,1.52s-19.53-34.72-10.31-41.8S2170.8,3437.57,2178,3424c6.5-12.2,22.58-226.89,22.58-226.89Z" transform="translate(-44.95 -384.76)"/><path class="cls-51" d="M2269.74,3154.41l29.65,208.77s-35.54,3.48-58.61,4.12c-21.34.58-34.68,2.18-34.68,2.18l-5.08-99.2-11.08,100.3-17.38-1.33s12.69-171.84,27.9-193.95,17-23.14,17-23.14Z" transform="translate(-44.95 -384.76)"/><path class="cls-13" d="M2273.18,3164.18l-63.6-7.35s12-46.15,13.33-70.77a196.25,196.25,0,0,0-.21-27.27c-1.61-17.11-8.13-46.54,20.34-51.54,6.61-1.16,12.26-.81,14.65,4.53,14.72,32.77,24,48.27,29.15,59.48-2.74,9.6-14.16,15.36-14.16,15.36C2270.25,3108.72,2274.69,3154.85,2273.18,3164.18Z" transform="translate(-44.95 -384.76)"/><path class="cls-34" d="M2206.69,3604.74a77.17,77.17,0,0,0-8.09-4.27s-.69,4.4-6.06.52-13.59-37-13.59-37-8.45,1.25-11.37,6.22c-2.22,3.78,1.4,13.1,1.4,13.1l.41.08,2.72,26.82h2.48l-.56-25.16a9.76,9.76,0,0,1,5.26,6.17c2.68,10.24,3.93,14.42,6.92,17.62s23.31-.22,23.31-.22S2210.43,3607.08,2206.69,3604.74Z" transform="translate(-44.95 -384.76)"/><path class="cls-34" d="M2291.74,3602.26a77.17,77.17,0,0,0-8.09-4.27s-.69,4.4-6.06.52-13.59-37-13.59-37-8.44,1.25-11.37,6.22c-2.22,3.78,1.4,13.1,1.4,13.1l.41.08,2.72,26.82h2.48l-.56-25.16a9.73,9.73,0,0,1,5.26,6.17c2.68,10.23,3.93,14.42,6.93,17.62s23.31-.22,23.31-.22S2295.48,3604.6,2291.74,3602.26Z" transform="translate(-44.95 -384.76)"/><path class="cls-34" d="M2060.34,3179.45a27.17,27.17,0,0,1,37.38-8.71l3.28,2.05a27.16,27.16,0,0,1,8.7,37.37l-12.76,20.51L2047.58,3200Zm42.52,26.45a19.09,19.09,0,0,0-6.12-26.27l-3.28-2a19.09,19.09,0,0,0-26.27,6.12l-8.5,13.66,35.67,22.19Z" transform="translate(-44.95 -384.76)"/><polygon class="cls-58" points="1997.86 2790.54 2079.99 2841.64 2049.86 2919.03 1944.45 2853.45 1997.86 2790.54"/><polygon class="cls-34" points="2067.3 2873.44 2068.93 2870.83 2035.92 2850.29 2029.5 2860.6 2003.8 2844.61 2010.21 2834.3 1977.63 2814.02 1976 2816.63 2005.98 2835.29 1999.56 2845.59 2030.49 2864.84 2036.9 2854.53 2067.3 2873.44"/><path class="cls-59" d="M2065.46,3221.14a4.5,4.5,0,1,0,6.19-1.44A4.5,4.5,0,0,0,2065.46,3221.14Z" transform="translate(-44.95 -384.76)"/><rect class="cls-59" x="2064.21" y="3221.09" width="4.03" height="15.48" transform="translate(2069.34 6677.12) rotate(-148.1)"/><polygon class="cls-34" points="1944.45 2853.45 1937.63 2841.41 1993.81 2788.02 1998.82 2791.14 1944.45 2853.45"/><path class="cls-46" d="M2241.21,3034.83c-22.72,19.05-89,70.12-89,70.12l-43.76,62.75s5.86,17.39.05,21.15c-12.82,8.29-20.43-13.55-20.43-13.55,5.4,0,8.66,4.33,11.23,1.49.77-.85-1.54-11.55-1.54-11.55l35.95-75.15s92.74-84.5,102.62-78.61a21.7,21.7,0,0,1,7.88,8.33A12.12,12.12,0,0,1,2241.21,3034.83Z" transform="translate(-44.95 -384.76)"/><path class="cls-46" d="M2223.77,2911.19s24.17,20.19,27.56,44.57c1,7.18-16.88,15.64-16.88,15.64,1,17.7,20.83,36.5,20.83,36.5s-9-4.45-17.63,4.94c-5,5.41-12,4.09-11.54,1.95,4.62-23.22-30.86-71.08-21.35-87.2S2223.77,2911.19,2223.77,2911.19Z" transform="translate(-44.95 -384.76)"/><path class="cls-51" d="M2221.8,2920c1-.9,7.89-4.83,16.23,0s0,9.21,0,9.21,20.89-4.47,17.25-18-20.32-19.7-33.48-12.68-11,16.67-11,16.67-28.79,4.33-37,21.35c-11.15,23.17-3.28,43.28,11.8,50.71,13.46,6.63,37.45,1.41,37.45,1.41l11.34-30.91s-23.18-2.2-23.18-7,6.58-2.63,6.58-2.63S2212.55,2928.66,2221.8,2920Z" transform="translate(-44.95 -384.76)"/><path class="cls-60" d="M1852.06,3600.45l18.8-158.56-6.41-215.57s11.93-48.55-38,10.37,7.62,208.6,5.75,216.22c-2.87,11.72-5.75,150.38-5.75,150.38Z" transform="translate(-44.95 -384.76)"/><path class="cls-48" d="M1764,3607.25l17.49-1.07,14.22,9.17s18.16,4,23,8-56.1-1.08-56.1-1.08Z" transform="translate(-44.95 -384.76)"/><path class="cls-49" d="M1788.16,3600.45,1807,3441.89l35.41-221.63s-15.64-26.57-79.8,16.43c-5.89,3.95,7.62,208.6,5.75,216.22-2.87,11.72-5.75,150.38-5.75,150.38Z" transform="translate(-44.95 -384.76)"/><polygon class="cls-46" points="1736.98 3216.38 1718.79 3218.4 1719.14 3224.41 1736.51 3221.42 1736.98 3216.38"/><path class="cls-48" d="M1827.87,3607.25l17.49-1.07,14.22,9.17s18.16,4,23,8-56.1-1.08-56.1-1.08Z" transform="translate(-44.95 -384.76)"/><polygon class="cls-46" points="1800.88 3216.38 1782.69 3218.4 1783.04 3224.41 1800.41 3221.42 1800.88 3216.38"/><path class="cls-13" d="M2053.47,3002.88,1961.31,3030l-112.77-35.21-1.17,50s91.86,22.74,105.58,23.53,50.68-3.41,76.61-21.69c16.94-11.93,34-26.22,34-26.22Z" transform="translate(-44.95 -384.76)"/><path class="cls-46" d="M1847.51,2909.47s16.35,26,11.49,47c-2.2,9.59-20.58,8.51-20.58,8.51-7.71,22.79,1.29,53.45,1.29,53.45s-9.33-2.73-24.76,4.8c-8.89,4.33-18-18.14-16.37-20.63,17.47-26.94-2.26-74,17.63-89.63S1847.51,2909.47,1847.51,2909.47Z" transform="translate(-44.95 -384.76)"/><path class="cls-51" d="M1837.51,2914.46s.53-9.68,13.81-9.43c11.46.22,26.18-25.59,12.42-33.45-16-9.12-27.82,8.42-37.4,19.26-11.42,12.92-16.46,13.67-23.16,15.7-5.14,1.57-14.69,3.8-16.72,14.44-1.18,6.23,5.56,13.21,8.08,16.6a13.07,13.07,0,0,0-9,8.06c-2.16,5.91,20,27.28,20,27.28s11.2-3.08,12.67-7-7.13-14.58-4.83-19,7.74-.8,9.92,1.15c.91.8,4.75-2.5,4-10.39-.22-2.34-4.13-6.59-4.13-6.59s8.36-.51,12.27-5.21C1840.75,2919.56,1837.51,2914.46,1837.51,2914.46Z" transform="translate(-44.95 -384.76)"/><path class="cls-13" d="M1759,3134.76c3.83-39.06-.13-103.29,1.76-113.64s34-48.2,86.1-26.68c5.44,2.25,11.59,6.41,17.57,12.28,14.41,14.13,2.45,95.88,3.52,142s2.89,90.35,2.89,90.35l-18.67,18.35-14.61-31.24L1814.5,3262l-62.1-22.93S1755.18,3173.82,1759,3134.76Z" transform="translate(-44.95 -384.76)"/><path class="cls-46" d="M1752.4,3004.43s12.82-9.15,26-10.67c11.37-1.31,22.25,1.62,23.68,4.09,3.08,5.33-28.44,8.37-28.44,8.37s17.19.93,10.85,4.86c-2.85,1.76-27.94,5.89-27.94,5.89Z" transform="translate(-44.95 -384.76)"/><polygon class="cls-61" points="1774.62 2613.45 1779.51 2629.92 1767.06 2816.67 1790.04 2814.66 1784.03 2630.62 1790.04 2615.44 1774.62 2613.45"/><rect class="cls-34" x="1609.1" y="3245.99" width="133.88" height="94.37" transform="translate(1799.73 -782.89) rotate(29.59)"/><polygon points="1676.93 2928.59 1588.78 2878.54 1594.39 2834.11 1597.98 2834.56 1592.66 2876.59 1676.69 2924.31 1711.55 2898.98 1713.67 2901.9 1676.93 2928.59"/><polygon class="cls-62" points="1679.01 2989.88 1666.01 2982.5 1711.53 2902.33 1716.12 2904.94 1679.01 2989.88"/><rect class="cls-58" x="1666.41" y="3273.36" width="23.12" height="17.17" transform="translate(1794.42 -785.3) rotate(29.59)"/><path class="cls-34" d="M1723.39,3283.85,1666,3251.29l21.92-38.61,57.35,32.57Zm-47.51-35.28,44.8,25.44,14.79-26.05-44.8-25.44Z" transform="translate(-44.95 -384.76)"/><path class="cls-46" d="M1704.16,3255.56s-17.8-1.2-13.66-23.7c2.17-11.8,13.32-20.79,13.32-20.79s23.15-76.38,35.77-103.67c5.69-12.31,28.55,8.91,18.9,12.34s-34.81,86.92-37.86,107.52c-1.43,9.68,4.1,17.64-.24,19.41-5.89,2.41-7.11-19.06-7.11-19.06S1710.5,3244.81,1704.16,3255.56Z" transform="translate(-44.95 -384.76)"/><path class="cls-13" d="M1722.28,3218.87l37.57-80.77,36-112.42-32.88-9.65s-23.52,82.38-31,93.89-32.27,102-32.27,102Z" transform="translate(-44.95 -384.76)"/><path class="cls-46" d="M2053.47,3002.88s61.06-25.81,59.6-19.81-10.38,11.16-12.4,15.39.53,18.55-12,22.51-25.12-.59-25.12-.59Z" transform="translate(-44.95 -384.76)"/><polygon class="cls-13" points="4057.03 2654.35 2814.6 2654.35 2714.91 2690.55 3895.84 2690.55 4057.03 2654.35"/><polygon class="cls-63" points="2714.91 3237.22 3895.84 3237.22 3895.84 2690.55 2714.91 2690.55 2714.91 2734.2 2788.86 2766.32 2714.91 2793.51 2714.91 2800.24 2714.91 2824.51 2735.13 2866.32 2714.91 2894.67 2714.91 2922.39 2780.79 2954.82 2714.91 2954.82 2714.91 2970.28 2714.91 2981.37 2714.91 3005 2749.74 3028.13 2714.91 3072.01 2742.43 3117.29 2714.91 3154.75 2714.91 3169.61 2714.91 3193.84 2731.82 3208.96 2714.91 3225.82 2714.91 3237.22"/><polygon class="cls-64" points="3895.84 3237.22 3971.54 3219.1 3976.63 2672.43 3895.84 2690.55 3895.84 3237.22"/><polygon class="cls-45" points="3515.83 2842.77 3895.84 2842.77 3705.84 2889.88 3515.83 2842.77"/><polygon class="cls-64" points="3895.84 3123.87 3756.76 3095 3895.84 3095 3872.49 3019.03 3904.74 2970.28 3895.84 3123.87"/><polygon class="cls-64" points="3895.84 2816.83 3715.01 2816.83 3913.42 2793.51 3895.84 2816.83"/><polygon class="cls-64" points="3927.94 2716.33 3642.76 2716.33 3913.42 2695.97 3927.94 2716.33"/><polygon class="cls-64" points="3927.94 3144.24 3642.76 3134.05 3913.42 3123.87 3927.94 3144.24"/><polygon class="cls-64" points="3941.32 3214.21 3785.35 3214.21 3926.8 3193.84 3941.32 3214.21"/><polygon class="cls-64" points="3896.85 2800.24 3878.39 2764.58 3913.42 2732.41 3896.85 2800.24"/><polygon class="cls-64" points="4057.03 3201.22 4057.03 3153.1 3971.54 3172.1 4057.03 3146.28 4057.03 3084.2 4009.92 3086.54 4057.03 3073.99 4057.03 2963.89 4040.13 2937.78 4058.33 2912.78 4058.33 2876.33 3980.56 2874.08 4059.63 2853.42 4059.63 2793.51 4047.24 2772.19 4057.03 2751.36 4057.03 2706.15 3984.22 2726.37 4057.03 2690.55 4057.03 2654.35 3941.32 2680.36 3941.32 3225.82 4057.03 3201.22"/><polygon class="cls-45" points="3172.64 3123.87 3671.7 3123.87 3414.98 3154.75 3172.64 3123.87"/><polygon class="cls-45" points="2774.62 2977.74 3123.21 2977.74 2797.8 3028.13 2774.62 2977.74"/><polygon class="cls-45" points="2714.91 2793.51 3049.18 2791.64 2640.92 2824.51 2714.91 2793.51"/><polygon class="cls-45" points="3379.32 3008.72 3878.39 3008.72 3725.1 3039.61 3379.32 3008.72"/><polygon class="cls-45" points="3014.68 2879.23 3372.74 2879.23 3141.88 2903.18 3014.68 2879.23"/><polygon class="cls-45" points="2819.28 3206.35 3177.34 3206.35 2942.55 3218.33 2819.28 3206.35"/><polygon class="cls-64" points="2936.67 2934.1 3599.29 2932.3 3115.56 2951.48 2936.67 2934.1"/><polygon class="cls-64" points="2710.13 2734.21 3136.08 2732.41 2759.26 2751.59 2710.13 2734.21"/><polygon class="cls-64" points="2976.87 3164.01 3349.05 3165.23 3065.84 3179.65 2976.87 3164.01"/><polygon class="cls-45" points="3543.58 2764.11 3878.39 2764.11 3785.35 2782.85 3543.58 2764.11"/><polygon class="cls-45" points="3565.2 3199.59 3900 3199.59 3806.97 3218.33 3565.2 3199.59"/><polygon class="cls-13" points="3895.84 3026.96 4045.07 2993.18 4005.58 3028.13 3895.84 3026.96"/><polygon class="cls-65" points="2700.02 3420.33 3245.51 3239.33 3245.51 2729.2 2341.55 3190.46 2386.72 3314.18 2700.02 3420.33"/><path class="cls-66" d="M3290.45,3114s.8,303-116.95,438.2c-172.48,198-522.44,280.61-522.44,280.61L2431.67,3699h0l-45.18-228.32c81-42,168.13-99.67,221-171.42C2720,3146.36,2702.09,3000,2702.09,3000Z" transform="translate(-44.95 -384.76)"/><path class="cls-67" d="M2463.48,3526l63.57,42.6s-44.66,8.44-69.43,55.47-25.95,74.85-25.95,74.85l-6.88-166.27Z" transform="translate(-44.95 -384.76)"/><path class="cls-68" d="M3033.1,3140.81a6.88,6.88,0,0,0,1.58-13.58l-267.09-63.17a6.82,6.82,0,0,0-8.29,5.11,6.89,6.89,0,0,0,5.11,8.28l267.1,63.17A6.71,6.71,0,0,0,3033.1,3140.81Z" transform="translate(-44.95 -384.76)"/><path class="cls-68" d="M3008.92,3186.5a6.88,6.88,0,0,0,1.81-13.52l-247.07-67.89a6.89,6.89,0,0,0-3.65,13.28l247.08,67.89A7.13,7.13,0,0,0,3008.92,3186.5Z" transform="translate(-44.95 -384.76)"/><path class="cls-68" d="M2991.56,3231a6.89,6.89,0,0,0,2-13.47l-245.87-75.32a6.89,6.89,0,0,0-4,13.17l245.88,75.32A7,7,0,0,0,2991.56,3231Z" transform="translate(-44.95 -384.76)"/><path class="cls-68" d="M3165,3432.45a6.89,6.89,0,0,0,2.48-13.31L2710,3242.62a6.89,6.89,0,0,0-5,12.85L3162.5,3432A7,7,0,0,0,3165,3432.45Z" transform="translate(-44.95 -384.76)"/><path class="cls-68" d="M3121.13,3509.35a6.88,6.88,0,0,0,2.87-13.14l-435.27-199a6.89,6.89,0,1,0-5.73,12.53l435.27,199A6.93,6.93,0,0,0,3121.13,3509.35Z" transform="translate(-44.95 -384.76)"/><path class="cls-68" d="M3055.3,3562.36a6.88,6.88,0,0,0,3-13.1l-409.12-194.65a6.88,6.88,0,1,0-5.91,12.42l409.12,194.65A6.77,6.77,0,0,0,3055.3,3562.36Z" transform="translate(-44.95 -384.76)"/><path class="cls-68" d="M2991.56,3611a6.88,6.88,0,0,0,3.09-13l-393.44-198a6.88,6.88,0,1,0-6.18,12.29l393.44,198A6.82,6.82,0,0,0,2991.56,3611Z" transform="translate(-44.95 -384.76)"/><path class="cls-68" d="M2907.4,3652.09a6.89,6.89,0,0,0,3.22-13l-369.8-195a6.88,6.88,0,1,0-6.42,12.18l369.8,195A6.86,6.86,0,0,0,2907.4,3652.09Z" transform="translate(-44.95 -384.76)"/><path class="cls-68" d="M2722.89,3771.31a6.88,6.88,0,0,0,3.72-12.67l-167.19-107.41a6.88,6.88,0,1,0-7.43,11.59l167.19,107.4A6.84,6.84,0,0,0,2722.89,3771.31Z" transform="translate(-44.95 -384.76)"/><path class="cls-57" d="M2661.55,3757.81c-6-4.17-8.69-10.78-9.34-18.6-.74.13-1.48.25-2.22.33a6.82,6.82,0,0,1-7.21-4.49c-6.87-18.86,4.58-60.77,23.52-81.49l-10.43-5.23c-7.62,7.77-14,21.74-16,31.59a6.94,6.94,0,0,1-7.29,5.46,6.86,6.86,0,0,1-6.32-6.56c-.08-1.72-.09-4.06-.1-6.83-.06-9.62-.17-29.2-4.49-40.81l-17.7-8.86a6.88,6.88,0,0,1,1.14-12.76c9.43-2.79,16,0,19.75,2.85a26.47,26.47,0,0,1,7.22,8.6l22.37,11.19a27,27,0,0,1,5.06-2.24c5.27-1.7,13.06-2.18,21.31,4.11,7.48-19.44,18.64-37.32,38.51-40.93,14-2.56,26.49,3.05,36,16.21,17.54,24.28,20.65,68.73,10.82,86.75A6.87,6.87,0,0,1,2757,3699l-35.16-17.61c1.22,24-7.67,53.37-21.57,69.39-7.09,8.19-15.07,12.35-23.13,12.35A27.08,27.08,0,0,1,2661.55,3757.81Zm31.66-90.78a105.15,105.15,0,0,1-5.38,29.36c-4.4,13.28-11.95,27.49-22,35.87-.52,6.66.32,12,3.57,14.26,2.77,1.93,10.12,7.07,20.41-4.79,13.79-15.91,20.93-48,17.28-67.73Zm-38.68,49.09c2.76-12,7.27-24.16,10.82-33.71,1.1-3,2-5.52,2.69-7.45.13-.41.27-.83.41-1.25C2661,3686.43,2655.61,3703.13,2654.53,3716.12Zm67.21-109.43c-14.09,2.55-22.77,17.78-28.94,34.53,6.58.71,12.95,4.22,18.76,10.43a34.59,34.59,0,0,1,7.29,12.83l37.41,18.74c3.88-16.27.8-47.89-12.15-65.82-5.37-7.43-11.42-11.09-18.42-11.09A22.64,22.64,0,0,0,2721.74,3606.69Zm-83.95,32.6c.46,2.71.81,5.52,1.09,8.4a68.74,68.74,0,0,1,4.27-5.73Z" transform="translate(-44.95 -384.76)"/><path class="cls-57" d="M2431.67,3699l-87-202.23s20.39-20,41.82-26.09c61.47-17.39,131.21,29,131.21,29S2434,3532.68,2431.67,3699Z" transform="translate(-44.95 -384.76)"/><path class="cls-69" d="M2242.62,2081.41c8.27,2.43,91.09-73.69,62-101C2281.81,1959,2250.72,2041.46,2242.62,2081.41Z" transform="translate(-44.95 -384.76)"/><path class="cls-70" d="M2239.63,2085.41s-93-145.39-44-205.7S2283.58,1912.15,2239.63,2085.41Z" transform="translate(-44.95 -384.76)"/><path class="cls-71" d="M2227,2085.41s-120.74-31.88-95.27-98.19S2195.39,1999.65,2227,2085.41Z" transform="translate(-44.95 -384.76)"/><rect class="cls-13" x="2217.12" y="2033.85" width="104.35" height="5.42" transform="translate(-686.21 2560.61) rotate(-59.25)"/><rect class="cls-13" x="2153.86" y="2000.64" width="5.42" height="53.2" transform="translate(-550.13 2936.91) rotate(-69.16)"/><rect class="cls-13" x="2146.39" y="1983.95" width="5.42" height="37.26" transform="translate(-536.84 2903.92) rotate(-68.94)"/><rect class="cls-13" x="2143.29" y="1972.74" width="5.43" height="24.44" transform="matrix(0.51, -0.86, 0.86, 0.51, -697.8, 2443.88)"/><rect class="cls-13" x="2167.51" y="2026.77" width="5.43" height="38.3" transform="translate(-277.13 3428.68) rotate(-79.65)"/><rect class="cls-13" x="2127.45" y="1675.18" width="26.52" height="5.42"/><rect class="cls-13" x="2199.52" y="2063.21" width="5.42" height="22.86" transform="translate(-335.74 3404.16) rotate(-77.8)"/><path class="cls-13" d="M2237,2086l5.31-1.12c-.13-.61-13-62.49-19.48-122.64-6-56-.09-94.21,0-94.59l-5.36-.85c-.06.38-6.11,39.28,0,96C2223.9,2023.21,2236.85,2085.34,2237,2086Z" transform="translate(-44.95 -384.76)"/><polygon class="cls-13" points="2172.15 1539.59 2203.27 1507.27 2199.37 1503.5 2172.4 1531.52 2148.66 1503.62 2144.53 1507.14 2172.15 1539.59"/><polygon class="cls-13" points="2175.41 1581.6 2205.64 1546.19 2201.51 1542.68 2174.9 1573.85 2142.53 1544.79 2138.9 1548.84 2175.41 1581.6"/><polygon class="cls-13" points="2179.46 1614.56 2207.58 1590.66 2204.06 1586.53 2179.16 1607.7 2149.29 1586.39 2146.14 1590.79 2179.46 1614.56"/><polygon class="cls-13" points="2183.73 1646.85 2205.43 1626.48 2201.72 1622.52 2183.39 1639.73 2162 1623.19 2158.68 1627.49 2183.73 1646.85"/><path class="cls-13" d="M2226,2087.93l2-5c-.19-.07-18.84-7.87-43.29-46.2-24.82-38.88-31.08-64.77-31.14-65l-5.28,1.23c.25,1.08,6.47,26.95,31.84,66.71C2205.68,2079.7,2225.18,2087.62,2226,2087.93Z" transform="translate(-44.95 -384.76)"/><path class="cls-48" d="M2025.4,2300.65v-30.72s4.79-22.45,9.66-24.84,8.1,13.89,8.1,13.89l-1.74,41.67Z" transform="translate(-44.95 -384.76)"/><path class="cls-48" d="M2025.79,2135s-2.46-32.92,3.29-40.06c1.86-2.31,7.06-11.54,8.45-13.14,0,0,5.7,0,6.29,4.79a27.89,27.89,0,0,1,0,5.89c-1.17,12.5-.68,42.52-.68,42.52Z" transform="translate(-44.95 -384.76)"/><path class="cls-72" d="M2025.79,2132.46l-118.62-94.35c-38.82,29.38-126,131.8-126,131.8l-42.37-72.62s124-93.76,165.49-104.36l121.52,117Z" transform="translate(-44.95 -384.76)"/><path class="cls-46" d="M1787.51,1936.61s-10.2,17.89-7.5,15.42c18.63-17,109.94-102.07,111-110.11,1.79-13,39.92-86.55,47.45-92s3.35-5.39,8.55-4.1,11.73-24.48,11.73-24.48-26.64,8.72-36.28,21.13c-1.31,1.68-59.08,80.86-64.26,95.24-3.48,9.69-80.06,65.12-80.06,65.12S1743.6,1952.46,1787.51,1936.61Z" transform="translate(-44.95 -384.76)"/><path class="cls-46" d="M1775.25,1810.93s22.86,13.31,27.57,31.38c2.13,8.21-12.35,14.72-12.35,14.72,3.2,20.51,22.33,40.36,22.33,40.36s-8.23,1.63-17,13.54c-5.07,6.87-21-6.69-20.75-9.23,2.6-27.58-31.29-55.72-22.3-75.58S1775.25,1810.93,1775.25,1810.93Z" transform="translate(-44.95 -384.76)"/><path class="cls-51" d="M1769.6,1818.73a47.05,47.05,0,0,1,12.34-14.34c7.94-5.89-4.36-28.85-7.39-27.93s-7.45,17-12.8,25.15-19.94,21-14.82,40.75S1771.3,1877,1771.3,1877s4.53-7.63,4.1-11.19-11.27-8.3-11.27-12.6,5.89-1.75,8-3.08S1761.49,1837.15,1769.6,1818.73Z" transform="translate(-44.95 -384.76)"/><path class="cls-46" d="M1775.25,1810.93s22.86,13.31,27.57,31.38c2.13,8.21-12.35,14.72-12.35,14.72,3.2,20.51,22.33,40.36,22.33,40.36s-8.23,1.63-17,13.54c-5.07,6.87-21-6.69-20.75-9.23,2.6-27.58-31.29-55.72-22.3-75.58S1775.25,1810.93,1775.25,1810.93Z" transform="translate(-44.95 -384.76)"/><path class="cls-51" d="M1769.6,1818.73a47.05,47.05,0,0,1,12.34-14.34c7.94-5.89-4.36-28.85-7.39-27.93s-7.45,17-12.8,25.15-19.94,21-14.82,40.75S1771.3,1877,1771.3,1877s4.53-7.63,4.1-11.19-11.27-8.3-11.27-12.6,5.89-1.75,8-3.08S1761.49,1837.15,1769.6,1818.73Z" transform="translate(-44.95 -384.76)"/><path class="cls-73" d="M2025.4,2281.58l-115.48-144.47c-35.78-7.63-158.52-62.39-158.52-62.39s-68.55,14.36-33.4,70.94c23.47,37.76,170.76,42.35,177.46,41.47s129.66,113.16,129.66,113.16Z" transform="translate(-44.95 -384.76)"/><path class="cls-74" d="M1804.74,2059.12l.53,20.4-10.45-7.71L1793,2095a214.89,214.89,0,0,1-30.41,8.69c-47.57,9-64.23-14.59-64.23-14.59s-3.74-115.63,61.2-182.06c19.2-19.63,39.07-19.89,49.8-16.35,4.49,1.49,3.15,31.67,3.15,31.67S1762.42,2002.16,1804.74,2059.12Z" transform="translate(-44.95 -384.76)"/><path class="cls-74" d="M1804,1890h-.66a82.81,82.81,0,0,0-18.28,2.13c-8.22,1.88-18.4,12-18.4,12l-4.84-9.49s7-6.63,20.25-8a57.51,57.51,0,0,1,12.13.33l12.55-7.37,5.3,12.26Z" transform="translate(-44.95 -384.76)"/><polygon class="cls-13" points="1749.32 1707.13 1651.04 1655.22 1617.22 1721.21 1715.5 1773.13 1749.32 1707.13"/><path class="cls-75" d="M1702.27,2052.65l-26.49,51.7Z" transform="translate(-44.95 -384.76)"/><rect class="cls-76" x="1659.99" y="2076.99" width="58.09" height="3.02" transform="translate(-975.96 2249.02) rotate(-62.87)"/><path class="cls-75" d="M1716.78,2060.23l-26.49,51.7Z" transform="translate(-44.95 -384.76)"/><rect class="cls-76" x="1674.49" y="2084.57" width="58.09" height="3.02" transform="translate(-974.83 2265.97) rotate(-62.87)"/><path class="cls-75" d="M1731.29,2067.81l-26.49,51.7Z" transform="translate(-44.95 -384.76)"/><rect class="cls-76" x="1689" y="2092.15" width="58.09" height="3.02" transform="translate(-973.68 2283.04) rotate(-62.87)"/><path class="cls-75" d="M1745.79,2075.39l-26.49,51.7Z" transform="translate(-44.95 -384.76)"/><rect class="cls-76" x="1703.51" y="2099.73" width="58.09" height="3.02" transform="translate(-972.54 2300.07) rotate(-62.87)"/><path class="cls-75" d="M1760.3,2083l-26.49,51.69Z" transform="translate(-44.95 -384.76)"/><rect class="cls-76" x="1718.01" y="2107.31" width="58.09" height="3.02" transform="translate(-971.4 2317.05) rotate(-62.87)"/><path class="cls-75" d="M1774.81,2090.55l-26.49,51.69Z" transform="translate(-44.95 -384.76)"/><rect class="cls-76" x="1732.52" y="2114.89" width="58.09" height="3.02" transform="translate(-970.24 2334.16) rotate(-62.87)"/><path class="cls-46" d="M1762.51,1910.28s-65,64.45-63.81,69c9.73,37.75,44,85.39,44,85.39s-6.23,7.47-9.36,10.23-21.4,3.73-.49,7.11c18.77,3,24.11-13.16,21.41-20.8-4.45-12.6-23.93-62.66-25.66-72.85-.44-2.61,80.73-47.83,73.83-74.66C1794.42,1882.55,1762.51,1910.28,1762.51,1910.28Z" transform="translate(-44.95 -384.76)"/><polygon class="cls-46" points="1968.43 1713.56 1963.61 1734.35 1980.85 1748.06 1980.85 1725.51 1968.43 1713.56"/><polygon class="cls-46" points="1967.49 1880.96 1965.67 1902.5 1980.17 1915.88 1980.45 1897.17 1967.49 1880.96"/><path class="cls-46" d="M2433,1231c-1.34-6.15-2.92-11.1,2.56-14.22,20.62-11.74,72.56-52.38,77.3-60.78,5.86-10.39,22.67-59.67,22.67-59.67l-.87-14.81s9.47-16.56,12.65-15.79-3.16,14.44-3.64,25.1c-.55,12.16-6.52,61.74-22.53,84.84s-60.24,75.18-78,68.4C2438,1242.06,2434.06,1236.12,2433,1231Z" transform="translate(-44.95 -384.76)"/><path class="cls-77" d="M2416.94,1661.55s26.13-114.62,29.54-124.69,5.3-153,5.3-153l-46.56,9.64,4.83,133L2399,1660Z" transform="translate(-44.95 -384.76)"/><path class="cls-78" d="M2469.2,1661.55s24.62-114.62,28-124.69-24.54-159.53-24.54-159.53l-67.46,16.15,55.58,133-11,133.49Z" transform="translate(-44.95 -384.76)"/><path class="cls-46" d="M2469.48,1695.88s12.25.44,7-3c-19.61-12.74-13.22-31.57-13.22-31.57l-13.4-1.88.25,17.81,11,15.21S2458.31,1697.05,2469.48,1695.88Z" transform="translate(-44.95 -384.76)"/><g class="cls-79"><path class="cls-62" d="M2378.43,1698.59c0,5.41,72.49,9.8,161.91,9.8s161.9-4.39,161.9-9.8-72.48-9.8-161.9-9.8S2378.43,1693.18,2378.43,1698.59Z" transform="translate(-44.95 -384.76)"/></g><polygon class="cls-80" points="2411.18 1314.84 2410.53 1300.13 2402.1 1290.44 2405.59 1314.83 2411.18 1314.84"/><path class="cls-81" d="M2450.57,1671.43s-1.45-1.53-4,2.87c-2,3.35,1.24,11.6,1.24,11.6a13.71,13.71,0,0,1,9.7,6.56,44.79,44.79,0,0,0,5.36,7.88c2.66,2.83,23.28-.23,23.28-.23s.8-1.37-2.51-3.44a66.71,66.71,0,0,0-7.16-3.78s-5.31,3.89-10.06.45S2450.57,1671.43,2450.57,1671.43Z" transform="translate(-44.95 -384.76)"/><path class="cls-46" d="M2418.43,1695.88s12.25.44,7-3c-19.62-12.74-13.23-31.57-13.23-31.57l-13.4-1.88.25,17.81,11,15.21S2407.26,1697.05,2418.43,1695.88Z" transform="translate(-44.95 -384.76)"/><polygon class="cls-82" points="2360.13 1314.84 2359.48 1300.13 2351.05 1290.44 2354.54 1314.83 2360.13 1314.84"/><path class="cls-83" d="M2399.52,1671.43s-1.45-1.53-4,2.87c-2,3.35,1.24,11.6,1.24,11.6a13.71,13.71,0,0,1,9.7,6.56,44.79,44.79,0,0,0,5.36,7.88c2.66,2.83,23.28-.23,23.28-.23s.8-1.37-2.51-3.44a67.07,67.07,0,0,0-7.15-3.78s-5.32,3.89-10.07.45S2399.52,1671.43,2399.52,1671.43Z" transform="translate(-44.95 -384.76)"/><path class="cls-84" d="M2456.09,1209.41c11.13,1.74,15.31,6.49,20.38,16.55,3.88,7.69,12.62,26.1,21,35.18,5.54,6-21.14,128-21.14,128l-78.18,4.31s19.42-53.36,20.71-88,2.75-77,9.38-85C2438.28,1208.47,2446.12,1207.85,2456.09,1209.41Z" transform="translate(-44.95 -384.76)"/><path class="cls-46" d="M2463.79,1245.92c-1.71-6.06-3.59-10.9,1.68-14.35,19.86-13,69.2-56.75,73.41-65.43,5.21-10.72,14.5-69,14.5-69s-9.52-12.68-6.22-14.88c2.46-1.64,8.9,8.22,8.9,8.22s2.08-19.19,5.31-18.63,12.17,11.72,6.15,22.3-4.6,67.08-19.17,91.13-55.49,78.75-73.61,73.07C2469.5,1256.69,2465.22,1251,2463.79,1245.92Z" transform="translate(-44.95 -384.76)"/><path class="cls-46" d="M2475.89,1140s11,21.49,6.11,39.72c-1.44,5.37-16.6,6-16.6,6-4.57,12.8,6.11,32,6.11,32s-8.18-10.5-17.1-6.46c-5.14,2.33-12-.37-11-1.76,10.21-15-13-56.75-1.51-65.29S2475.89,1140,2475.89,1140Z" transform="translate(-44.95 -384.76)"/><path class="cls-51" d="M2471.39,1147.4c8.3-.42,15.38-7.1,15.24-15.41a18.13,18.13,0,0,0-3.37-10c-9.54-14.12-23.37,4.61-23.67,8.6s-11.37-20.78-37.78,1.59.3,52.78-10.14,68.45-20.58,8.9-23.34,22.42,15.05,14.74,15.05,14.74-4.61,8,5.53,14.75,24.88-2.15,24.88-2.15,3.52,12.63,14.43,13.51,22.72-31.36,15.49-58.61c-8.66-32.61-16-37.74-16.34-45.72s4.3-2.77,6.45-2.46C2455.74,1157.42,2452.86,1148.34,2471.39,1147.4Z" transform="translate(-44.95 -384.76)"/><path class="cls-13" d="M3575.61,2422.45c.15,1.17-2,7.83-6.62,10.93s-14.92,3.54-14.92,3.54l-1.77,13.78s11.15-2.79,17.79-9.5,8.2-10,8.2-10Z" transform="translate(-44.95 -384.76)"/><path class="cls-13" d="M3548.39,2440.15s-9.52-1.74-12-8.91,2.26-11,2.26-11l-8.28,9.91s-.84,3.68,6.91,10,13.29,10.55,13.29,10.55Z" transform="translate(-44.95 -384.76)"/><path class="cls-52" d="M3158.14,3058.8c0,5.64,155.64,10.21,347.63,10.21s347.63-4.57,347.63-10.21-155.64-10.21-347.63-10.21S3158.14,3053.16,3158.14,3058.8Z" transform="translate(-44.95 -384.76)"/><polygon class="cls-46" points="3427.14 2154.08 3474.61 2154.08 3474.61 2173.23 3431.25 2182.57 3427.14 2154.08"/><path class="cls-60" d="M3380.22,3033.49l-5.1-178.82-24.3-205.28s11.94-48.55-38,10.37,25.51,198.31,23.64,205.93c-2.87,11.72,18.15,170.63,18.15,170.63Z" transform="translate(-44.95 -384.76)"/><path class="cls-48" d="M3356,3040.28l17.48-1.07,14.22,9.18s18.16,4,23,8-56.09-1.08-56.09-1.08Z" transform="translate(-44.95 -384.76)"/><polygon class="cls-46" points="3329.05 2649.41 3310.86 2651.43 3311.2 2657.45 3328.57 2654.45 3329.05 2649.41"/><path class="cls-60" d="M3224.94,3033.49l30-163.69-13.17-196.45s-14.86-54.6,50.58-13.59c38.66,24.24,4.48,181.24,3.41,215.09-1,32.51-45.2,161.47-45.2,161.47Z" transform="translate(-44.95 -384.76)"/><path class="cls-48" d="M3228.34,3040.28l17.48-1.07,14.22,9.18s18.16,4,23,8-56.09-1.08-56.09-1.08Z" transform="translate(-44.95 -384.76)"/><polygon class="cls-46" points="3201.2 2651.07 3184.16 2649.18 3183.5 2657.45 3200.88 2654.45 3201.2 2651.07"/><path class="cls-13" d="M3478.59,2531.59l-43.44-8.39-84-83-24,43.86s71.17,62.37,83,69.37,46.6,20.23,78,15.9c20.52-2.82-4.66.5-4.66.5Z" transform="translate(-44.95 -384.76)"/><path class="cls-46" d="M3333.45,2342.51s16.35,25.94,11.49,47c-2.21,9.59-20.59,8.51-20.59,8.51-7.71,22.8,1.3,53.45,1.3,53.45s-9.33-2.73-24.76,4.8c-8.89,4.34-18-18.14-16.38-20.63,17.47-26.94-2.26-74.05,17.64-89.63S3333.45,2342.51,3333.45,2342.51Z" transform="translate(-44.95 -384.76)"/><path class="cls-51" d="M3323.45,2347.49s.53-9.68,13.81-9.43c11.45.22,26.17-25.58,12.41-33.45-16-9.12-27.81,8.42-37.39,19.26-11.43,12.92-16.47,13.67-23.16,15.71-5.14,1.56-14.69,3.79-16.72,14.43-1.19,6.23,5.56,13.22,8.08,16.61a13,13,0,0,0-9,8.05c-2.17,5.92,20,27.28,20,27.28s11.19-3.08,12.67-7-7.13-14.58-4.83-19,7.73-.8,9.92,1.15c.9.81,4.74-2.5,4-10.39-.21-2.33-4.13-6.59-4.13-6.59s8.37-.5,12.28-5.2C3326.69,2352.6,3323.45,2347.49,3323.45,2347.49Z" transform="translate(-44.95 -384.76)"/><path class="cls-13" d="M3245,2567.79c3.84-39.06-.12-103.29,1.77-113.64s34-48.2,86.09-26.68c5.44,2.25,9.2,4.2,15.18,10.07,14.41,14.13,4.85,98.09,5.91,144.2s2.89,90.35,2.89,90.35l-18.67,18.36-14.61-31.24L3300.44,2695l-62.11-22.93S3241.12,2606.85,3245,2567.79Z" transform="translate(-44.95 -384.76)"/><polygon class="cls-85" points="3260.55 2046.48 3265.44 2062.96 3253 2249.7 3275.97 2247.69 3269.96 2063.66 3275.97 2048.47 3260.55 2046.48"/><path class="cls-46" d="M3151,2670.25s-17-5.34-7.71-26.24c4.88-11,17.83-17.08,17.83-17.08s40.44-68.8,59.12-92.37c8.42-10.62,28.33,20.05,18.14,21.12s-56.92,71.63-64.72,90.93c-3.66,9.08-.16,18.11-4.8,18.82-6.29,1-2.43-20.2-2.43-20.2S3159.64,2661.3,3151,2670.25Z" transform="translate(-44.95 -384.76)"/><path class="cls-13" d="M3215.67,2585l33.68-40.54,26.87-94.28-27.14-1.39s-29.26,74.13-36.76,85.63-24,42.64-24,42.64Z" transform="translate(-44.95 -384.76)"/><path class="cls-60" d="M3483.5,3033.49l22.92-198.59,6.48-185.51s-11.93-48.55,38,10.37-7.69,178.54-5.82,186.16c2.87,11.71-36,190.4-36,190.4Z" transform="translate(-44.95 -384.76)"/><path class="cls-48" d="M3507.69,3040.28l-17.49-1.07-14.22,9.18s-18.16,4-23,8,56.09-1.08,56.09-1.08Z" transform="translate(-44.95 -384.76)"/><polygon class="cls-46" points="3444.78 2649.41 3462.97 2651.43 3462.63 2657.45 3445.26 2654.45 3444.78 2649.41"/><path class="cls-60" d="M3638.78,3033.49l-16.22-174.57-.59-185.57s14.86-54.6-50.57-13.59c-38.66,24.24,9.27,170.36,10.34,204.21,1,32.51,31.45,172.35,31.45,172.35Z" transform="translate(-44.95 -384.76)"/><path class="cls-48" d="M3635.38,3040.28l-17.48-1.07-14.22,9.18s-18.16,4-23,8,56.09-1.08,56.09-1.08Z" transform="translate(-44.95 -384.76)"/><polygon class="cls-46" points="3572.64 2651.07 3589.67 2649.18 3590.33 2657.45 3572.95 2654.45 3572.64 2651.07"/><path class="cls-54" d="M3404.6,2458l36.44,15,88.21-45.13,1.16,50s-66.29,32.79-80,33.59-37.73-19.74-37.73-19.74Z" transform="translate(-44.95 -384.76)"/><path class="cls-54" d="M3618.77,2567.79c-3.83-39.06.12-103.29-1.76-113.64s-34-48.2-86.1-26.68c-5.44,2.25-9.2,4.2-15.18,10.07-14.4,14.13-4.84,98.09-5.91,144.2s-2.89,90.35-2.89,90.35l23.53,8,9.75-20.85L3552.3,2678l73.09-5.88S3622.6,2606.85,3618.77,2567.79Z" transform="translate(-44.95 -384.76)"/><path class="cls-46" d="M3558.83,2324.44s-23.55,19.65-25.43,41.21c-.85,9.79,17,14.43,17,14.43.31,24.07-17.71,50.46-17.71,50.46s.74,1.92,13.09,13.83c7.12,6.87,31.69-13.36,30.93-16.22-8.32-31,25-69.75,10.84-90.7S3558.83,2324.44,3558.83,2324.44Z" transform="translate(-44.95 -384.76)"/><path class="cls-51" d="M3566.81,2332.26s4.73-4-8-7.82c-11-3.32-1.59-33.4,13.93-36.64,18-3.76,32.37,5.46,37.9,27.7,4.17,16.74-14.5,15.81-8.75,19.81,4.41,3.07,12.81,8.14,11.46,18.89-.8,6.29-9.36,10.86-12.81,13.3a13.06,13.06,0,0,1,6.12,10.45c.24,6.3-27.48,19.78-27.48,19.78s-9.7-6.38-9.9-10.54,11.27-11.67,10.44-16.59-7.11-3.14-9.79-2c-1.11.49-3.74-3.84-.61-11.12.92-2.15,5.95-5,5.95-5s-7.8-3.06-10.07-8.73C3562.16,2336.12,3566.81,2332.26,3566.81,2332.26Z" transform="translate(-44.95 -384.76)"/><polygon class="cls-13" points="3513.28 2046.48 3508.39 2062.96 3521.22 2168.32 3493.49 2168.32 3503.87 2063.66 3497.86 2048.47 3513.28 2046.48"/><path class="cls-46" d="M3712.77,2670.25s17-5.34,7.71-26.24c-4.88-11-17.83-17.08-17.83-17.08s-40.44-68.8-59.12-92.37c-8.42-10.62-28.32,20.05-18.14,21.12s56.92,71.63,64.72,90.93c3.67,9.08.16,18.11,4.8,18.82,6.29,1,2.43-20.2,2.43-20.2S3704.08,2661.3,3712.77,2670.25Z" transform="translate(-44.95 -384.76)"/><path class="cls-54" d="M3638.78,2573.8l-24.4-29.38-27.07-95c-2.42-8.5,2.27-23.4,9.42-18.21h0a44.4,44.4,0,0,1,29.35,29.58c7.82,25.92,20.34,65.91,25.32,73.56,7.5,11.51,16.17,16.39,16.17,16.39Z" transform="translate(-44.95 -384.76)"/><path class="cls-46" d="M3407.42,2459.14s-55.67-34.75-69.44-34.75-22.58,4.86-19.82,6.85,20,5.83,23.54,8.91-11.18,5.31-6.48,8.6,27.15,2.51,32.81,8.1,43.65,30.63,43.65,30.63Z" transform="translate(-44.95 -384.76)"/><path class="cls-86" d="M3357.13,2413.9l2-165.77,4.09-200.43s9.15-83.31,52.61-15.93-19.31,224.81-18.41,232.9c1.38,12.45-14.32,155.59-14.32,155.59Z" transform="translate(-44.95 -384.76)"/><path class="cls-48" d="M3523.09,2439.2l-18.18.55-13.83,10.83s-18.39,5.86-23,10.49,57.89-6.44,57.89-6.44Z" transform="translate(-44.95 -384.76)"/><path class="cls-77" d="M3497.44,2434.46,3463,2272.31l-64.82-169.85s-2.62-88.12,67.79-49.75c6.46,3.52,35.37,219.62,38,227.32,4.08,11.85,20.2,154.94,20.2,154.94Z" transform="translate(-44.95 -384.76)"/><polygon class="cls-46" points="3459 2049.82 3478 2050.18 3478.22 2056.44 3459.97 2054.99 3459 2049.82"/><path class="cls-48" d="M3381.11,2424.15l-17.85-3.46-15.88,7.53s-19.23,1.68-24.74,5.18,57.9,6.44,57.9,6.44Z" transform="translate(-44.95 -384.76)"/><polygon class="cls-46" points="3318.5 2030.68 3336.96 2035.21 3335.79 2041.36 3318.31 2035.93 3318.5 2030.68"/><path class="cls-46" d="M3225.18,1699.76s-14.89,11,1.32,28.37c8.49,9.1,23.28,10.73,23.28,10.73s50.21,101.69,76.52,118.49c11.86,7.58,112.25,13.68,112.25,13.68l-.72-39.35s-91.55,1.91-101.91,4.31-66.3-104.39-80.49-120.7c-6.67-7.67-6.29-17.72-11.08-16.84-6.5,1.19,4.45,20.65,4.45,20.65S3236.74,1705.61,3225.18,1699.76Z" transform="translate(-44.95 -384.76)"/><path class="cls-86" d="M3273.34,1741.25l61.49,89.76,109.22-2.55-1.23,50.48s-105.72-2.81-118.72-8.68-34.73-48-49.8-77.28c-9.83-19.13-18.67-40.49-18.67-40.49Z" transform="translate(-44.95 -384.76)"/><polygon class="cls-13" points="3223.08 1347.94 3228.39 1356.49 3210.68 1367.73 3206.28 1357.51 3223.08 1347.94"/><path class="cls-46" d="M3474.42,1742.86s-24.23,20.66-25.93,43.07c-.78,10.18,17.77,14.8,17.77,14.8.6,25-17.81,52.58-17.81,52.58s10.1.17,23.06,12.4c7.47,7,23.44-12.41,22.61-15.38-9-32.11,25.13-72.7,10.23-94.29S3474.42,1742.86,3474.42,1742.86Z" transform="translate(-44.95 -384.76)"/><path class="cls-51" d="M3482.79,1750.89s-4.77,4.2-15.43-1.07-12.92-23.25.5-32.78c3.68-2.61,18.07-7.89,26.2,12.29,0,0,10.36-5.71,16.71,1.45,9,10.21,1.91,23.66,1.91,23.66s14.71,1.31,13.69,18a20.65,20.65,0,0,1-8.14,14.63,13.54,13.54,0,0,1,6.47,10.78c.32,6.53-9,13.29-15.35,10.74,0,0-2.3,3.82-3.83,5.8-4.67,6-9.13,4.3-9.13,4.3s-10.14-6.52-10.4-10.82,11.58-12.25,10.66-17.35-7.42-3.18-10.19-1.92c-1.14.51-5.34-5.78-2.17-13.37.93-2.25,4.87-4.91,4.87-4.91,0-2.37-6.71-5-7.89-7.47C3477.61,1755.12,3482.79,1750.89,3482.79,1750.89Z" transform="translate(-44.95 -384.76)"/><path class="cls-13" d="M3469.28,2060.74l-3,3.72s-22.6,22.05-40.38,24.73c-57.64,8.69-60.09-36.93-60.09-36.93s54.57-187,64.33-203.92c16.51-28.64,49.54-19.26,61.73-13.22,12,5.94,21,15.57,27.36,24.6a29.25,29.25,0,0,1-2.85,37.12C3490.18,1923.92,3433.06,2007.91,3469.28,2060.74Z" transform="translate(-44.95 -384.76)"/><path class="cls-86" d="M3491.84,1835.12l-64.69,107,35.92-115.27a55.07,55.07,0,0,0-14.29.38,67.61,67.61,0,0,0-21.22,6.74c-18.65,9.56-32.07,94.27-47.38,139.65s-30.79,88.66-30.79,88.66l22,33.42,15-35.9,11.8,42.62,80.16-4.11s5.9-64.94,14.17-104.83,32.06-102.34,33.39-113.19S3520.61,1843.35,3491.84,1835.12Z" transform="translate(-44.95 -384.76)"/><polygon class="cls-87" points="3432.76 1445.01 3424.08 1454.58 3416.02 1501.45 3382.21 1557.39 3396.13 1498.02 3420.14 1453.32 3420.25 1443.93 3432.76 1445.01"/><rect class="cls-13" x="2871.44" y="1331.68" width="493.74" height="254.42"/><path class="cls-88" d="M2950.42,1960.22a5.25,5.25,0,0,1-5.24-5.24V1751.45a5.25,5.25,0,1,1,10.49,0V1955A5.25,5.25,0,0,1,2950.42,1960.22Z" transform="translate(-44.95 -384.76)"/><path class="cls-88" d="M3374.88,1933.58h-444.1a5.25,5.25,0,0,1,0-10.5h444.1a5.25,5.25,0,0,1,0,10.5Z" transform="translate(-44.95 -384.76)"/><path class="cls-89" d="M2985.47,1908.94a5.19,5.19,0,0,1-2.44-.61,5.25,5.25,0,0,1-2.2-7.09l26.63-50.48a5.22,5.22,0,0,1,4.22-2.78,5.29,5.29,0,0,1,4.62,2.09l27.48,36.73,46.78-66a5.28,5.28,0,0,1,4.2-2.21h.08a5.24,5.24,0,0,1,4.18,2.08l48.12,63.59,47.82-93.15a5.28,5.28,0,0,1,4.58-2.85,5,5,0,0,1,4.67,2.7L3260,1891.1l55.3-152a5.25,5.25,0,0,1,9.86,3.59l-59.22,162.83a5.25,5.25,0,0,1-9.52.76l-56.56-101.58-47.15,91.84a5.25,5.25,0,0,1-8.86.78L3095,1832.75l-46.8,66A5.24,5.24,0,0,1,3044,1901a5.33,5.33,0,0,1-4.27-2.1L3012.87,1863l-22.76,43.13A5.24,5.24,0,0,1,2985.47,1908.94Z" transform="translate(-44.95 -384.76)"/><path class="cls-90" d="M3333.12,1778.86a5.25,5.25,0,0,1-4.95-3.5L3317.44,1745l-27.82,17.65a5.25,5.25,0,0,1-5.62-8.86l33.38-21.18a5.25,5.25,0,0,1,7.76,2.68l12.92,36.6a5.25,5.25,0,0,1-4.94,7Z" transform="translate(-44.95 -384.76)"/><path class="cls-88" d="M3105.82,1773.17h39.9a5.25,5.25,0,1,0,0-10.49h-39.9a5.25,5.25,0,0,0,0,10.49Z" transform="translate(-44.95 -384.76)"/><path class="cls-88" d="M3116.38,1807.36h-39.9a5.25,5.25,0,0,1,0-10.5h39.9a5.25,5.25,0,0,1,0,10.5Z" transform="translate(-44.95 -384.76)"/><path class="cls-88" d="M3026.9,1838.91H2987a5.25,5.25,0,1,1,0-10.49h39.9a5.25,5.25,0,0,1,0,10.49Z" transform="translate(-44.95 -384.76)"/><path class="cls-88" d="M3383.17,1814.37h-39.9a5.25,5.25,0,1,1,0-10.49h39.9a5.25,5.25,0,1,1,0,10.49Z" transform="translate(-44.95 -384.76)"/><path class="cls-88" d="M3383.17,1838.91h-39.9a5.25,5.25,0,1,1,0-10.49h39.9a5.25,5.25,0,1,1,0,10.49Z" transform="translate(-44.95 -384.76)"/><path class="cls-88" d="M3383.17,1863.45h-39.9a5.25,5.25,0,1,1,0-10.49h39.9a5.25,5.25,0,1,1,0,10.49Z" transform="translate(-44.95 -384.76)"/><path class="cls-88" d="M3383.17,1888h-39.9a5.25,5.25,0,1,1,0-10.49h39.9a5.25,5.25,0,1,1,0,10.49Z" transform="translate(-44.95 -384.76)"/><path class="cls-46" d="M3267,1964.94s.8,18.5,24.25,14.76c12.3-2,21.92-13.31,21.92-13.31s112.38,15.2,141,2.78c12.92-5.6,38.08-57.11,38.08-57.11l.57-35.81s-47.18,63.06-51,73-123.62-3.37-145.08-.71c-10.09,1.24-18.21-4.69-20.16-.23-2.64,6,19.61,7.85,19.61,7.85S3278.34,1958.62,3267,1964.94Z" transform="translate(-44.95 -384.76)"/><path class="cls-77" d="M3328.35,1948.19l108.79-.82,71.72-103.72s8.71,5,14.85,21.79c11,30-47.88,105.26-60,112.76s-59.21,2-91.92-1.9c-21.36-2.53-44-7.14-44-7.14Z" transform="translate(-44.95 -384.76)"/><polygon class="cls-13" points="3273.34 1563.06 3283.4 1563.43 3282.82 1584.4 3271.88 1582.34 3273.34 1563.06"/><path class="cls-91" d="M3284.85,1708.39a4.31,4.31,0,0,0,3.81-6.31l-6.08-11.57a4.3,4.3,0,0,0-5.72-1.86l-8.28,4.09-4.58-9.25a4.32,4.32,0,0,0-2.48-2.17,4.37,4.37,0,0,0-3.29.22l-9.87,4.89-4.89-9.87a4.3,4.3,0,0,0-5.77-2l-14,6.92a4.31,4.31,0,1,0,3.82,7.72l10.12-5,4.89,9.87a4.3,4.3,0,0,0,5.77,2l9.88-4.89,4.57,9.25a4.31,4.31,0,0,0,5.77,1.95l8.37-4.14,4.12,7.86A4.32,4.32,0,0,0,3284.85,1708.39Z" transform="translate(-44.95 -384.76)"/><path class="cls-92" d="M3407.19,1708.39a4.3,4.3,0,0,0,3.81-2.3l4.13-7.86,8.36,4.14a4.3,4.3,0,0,0,5.77-1.95l4.58-9.25,9.88,4.89a4.3,4.3,0,0,0,5.77-2l4.88-9.87,10.13,5a4.31,4.31,0,0,0,3.82-7.72l-14-6.92a4.3,4.3,0,0,0-5.77,2l-4.89,9.87-9.88-4.89a4.31,4.31,0,0,0-5.77,2l-4.58,9.25-8.27-4.09a4.31,4.31,0,0,0-5.73,1.86l-6.07,11.57a4.3,4.3,0,0,0,3.81,6.31Z" transform="translate(-44.95 -384.76)"/><path class="cls-93" d="M3330.64,1665.48a4.3,4.3,0,0,0,3.65-6.58l-4.68-7.53,7.81-5.12a4.31,4.31,0,0,0,1.24-6l-5.66-8.63,9.22-6a4.32,4.32,0,0,0,1.24-6l-6-9.21,9.44-6.19a4.31,4.31,0,0,0-4.72-7.21l-13,8.55a4.32,4.32,0,0,0-1.24,6l6,9.21-9.21,6a4.3,4.3,0,0,0-1.24,6l5.65,8.63-7.72,5.06a4.31,4.31,0,0,0-1.29,5.88l6.9,11.1A4.31,4.31,0,0,0,3330.64,1665.48Z" transform="translate(-44.95 -384.76)"/><path class="cls-94" d="M3293.33,1668.77a4.31,4.31,0,0,0,3-7.35l-35.77-35.77a4.31,4.31,0,0,0-6.09,6.09l35.77,35.77A4.29,4.29,0,0,0,3293.33,1668.77Z" transform="translate(-44.95 -384.76)"/><path class="cls-95" d="M3376.67,1666.83a4.29,4.29,0,0,0,3-1.26l30.39-30.39a4.31,4.31,0,0,0-6.09-6.09l-30.39,30.39a4.31,4.31,0,0,0,3,7.35Z" transform="translate(-44.95 -384.76)"/><path class="cls-46" d="M1126.49,3004.63s71.84-11,107.91-25.09c15.94-6.22,42.54-69.12,51.83-82.29,5.43-7.71,48.59-17.8,51-16.78,4.77,2.05-19.52,12.21-19.52,12.21,2.21,1.36,10.53.31,11.38,6.94.54,4.16-19.24-6.23-32.36,8.12s-17.55,67.65-49.22,93.5c-42,34.29-137,38.84-137,38.84Z" transform="translate(-44.95 -384.76)"/><path class="cls-47" d="M1036.69,3217.12l16,170.57L946.3,3508.25l-29,11.63s63.46-94.7,81.49-148.34S928,3235,936,3211.72,1041.25,3162.19,1036.69,3217.12Z" transform="translate(-44.95 -384.76)"/><polygon class="cls-46" points="887.83 3137.02 872.3 3135.1 881.71 3120.67 901.35 3123.49 887.83 3137.02"/><path class="cls-48" d="M975.54,3539.69l-58.49-2.37.89-18s20.78-4.66,33.41,1.55S974.74,3529.78,975.54,3539.69Z" transform="translate(-44.95 -384.76)"/><path class="cls-48" d="M830,3538.18l-58.49-2.37.89-18s20.78-4.66,33.41,1.55S829.22,3528.27,830,3538.18Z" transform="translate(-44.95 -384.76)"/><path class="cls-46" d="M1188.42,2943.65s-7.8,40.26-16.09,45c-7.62,4.35-21.28-9-23.85-4.54s-9.7,33.72-9.7,33.72-9.1-19.73-19.42-21.22c-4.61-.66-9-.81-9-.81s40.13-70.76,63-64.74S1188.42,2943.65,1188.42,2943.65Z" transform="translate(-44.95 -384.76)"/><path class="cls-49" d="M800.78,3509.34s101.47-126.47,113.49-148.13C921.4,3348.37,997,3204.8,997,3204.8H910.74s-26.4,58.42-45.65,139.4c-1,4.38-74.24,145.65-74.24,145.65Z" transform="translate(-44.95 -384.76)"/><polygon class="cls-46" points="727.48 3133.06 746.92 3132.33 754.29 3120.41 745.9 3105.09 727.48 3133.06"/><path class="cls-13" d="M1107.07,2992.53s-47.56-10.68-136.27,96.32c-40.69,49.08-60.06,116-60.06,116l128.39,9.36C1054.21,3141,1154.36,3036,1145,3010,1141,2999.15,1116.44,2989.79,1107.07,2992.53Z" transform="translate(-44.95 -384.76)"/><path class="cls-46" d="M1125.86,3041.12l-54.26,46.48-78.95,61.34a24.85,24.85,0,0,1-5.12,22.16c-8.79,10.47-29,12.05-31.27,9.41s2.06-7.2,2.06-7.2,19.52-10.8,22.21-27.15c1-6,47.64-46.21,64-66.75,13.8-17.28,44.71-57.13,66.92-67.62a16.26,16.26,0,0,1,18.5,3.27h0A16.34,16.34,0,0,1,1125.86,3041.12Z" transform="translate(-44.95 -384.76)"/><path class="cls-51" d="M1135.77,2958s10.72.81,12.71-3.23,4.68-16.39,9.58-15.59,3.34,4.23,6.23,5,25.35,15.52,46,6.08,9.67-32.72-4.12-34.6-11.44,12.6-11.44,12.6a94.89,94.89,0,0,0-35-8C1140.71,2919.92,1135.77,2958,1135.77,2958Z" transform="translate(-44.95 -384.76)"/><path class="cls-34" d="M687.84,3545.15a7.67,7.67,0,0,0,8.08-2.74l620.64-863.35c2.28-3.17,1.25-7.55-2.29-9.79s-8.26-1.48-10.54,1.69L683.09,3534.31c-2.28,3.17-1.25,7.56,2.29,9.79A8.42,8.42,0,0,0,687.84,3545.15Z" transform="translate(-44.95 -384.76)"/><path class="cls-34" d="M586.44,3520.31a7.69,7.69,0,0,0,8.08-2.73l620.64-863.36c2.28-3.17,1.25-7.55-2.29-9.79s-8.26-1.48-10.54,1.69L581.69,3509.48c-2.28,3.17-1.25,7.55,2.29,9.79A8.39,8.39,0,0,0,586.44,3520.31Z" transform="translate(-44.95 -384.76)"/><path class="cls-34" d="M1152.28,2733.19l101,24.75c4.11,1,8.19-1.21,9.11-5s-1.67-7.6-5.79-8.61l-101.05-24.75c-4.11-1-8.18,1.22-9.1,5S1148.17,2732.18,1152.28,2733.19Z" transform="translate(-44.95 -384.76)"/><path class="cls-34" d="M1084.85,2828l101.05,24.75c4.12,1,8.19-1.21,9.11-5s-1.67-7.6-5.78-8.61l-101.06-24.75c-4.11-1-8.18,1.22-9.1,5S1080.74,2827,1084.85,2828Z" transform="translate(-44.95 -384.76)"/><path class="cls-34" d="M1017.42,2922.83l97.47,23.87c4.11,1,8.19-1.21,9.11-5s-1.67-7.6-5.79-8.6l-97.46-23.88c-4.12-1-8.19,1.22-9.11,5S1013.31,2921.82,1017.42,2922.83Z" transform="translate(-44.95 -384.76)"/><path class="cls-34" d="M950,3017.65l95.75,23.45c4.11,1,8.19-1.21,9.1-5s-1.67-7.6-5.78-8.6l-95.75-23.46c-4.11-1-8.19,1.22-9.11,5S945.89,3016.64,950,3017.65Z" transform="translate(-44.95 -384.76)"/><path class="cls-34" d="M882.57,3112.47l98.9,24.23c4.11,1,8.19-1.22,9.1-5s-1.67-7.6-5.78-8.61l-98.9-24.23c-4.11-1-8.19,1.22-9.1,5S878.46,3111.46,882.57,3112.47Z" transform="translate(-44.95 -384.76)"/><path class="cls-34" d="M815.14,3207.29l98.28,24.08c4.11,1,8.18-1.22,9.1-5s-1.67-7.6-5.78-8.61l-98.27-24.07c-4.12-1-8.19,1.21-9.11,5S811,3206.29,815.14,3207.29Z" transform="translate(-44.95 -384.76)"/><path class="cls-34" d="M747.71,3302.11,845.36,3326c4.11,1,8.19-1.21,9.11-5s-1.67-7.6-5.79-8.61L751,3288.55c-4.11-1-8.19,1.21-9.11,5S743.6,3301.11,747.71,3302.11Z" transform="translate(-44.95 -384.76)"/><path class="cls-34" d="M678.89,3396.59,775,3420.13c4.11,1,8.19-1.22,9.1-5s-1.67-7.6-5.78-8.61L682.21,3383c-4.11-1-8.19,1.22-9.11,5S674.77,3395.58,678.89,3396.59Z" transform="translate(-44.95 -384.76)"/><path class="cls-46" d="M1050,2601.88s55.4,53.42,64.09,63.57,62.26,60.75,62.26,60.75l31.3,6.66s4.33,1.58,0-6.75S1180.3,2716,1180.3,2716s-43.45-57.49-47.92-63.58c-15.39-20.95-60.47-78.82-60.47-78.82C1063.68,2573.27,1050,2601.88,1050,2601.88Z" transform="translate(-44.95 -384.76)"/><path class="cls-46" d="M1071.4,2721.67s-11.4,240.72-36.16,261.47c-16.52,13.85-90.16,101-90.16,101s1,28.46,12.14,32.74c7.11,2.72-12.11,1.49-12.11,1.49s-19.05-33.89-10.05-40.79,57.8-101.18,64.84-114.4c6.34-11.9,2.9-251.42,2.9-251.42Z" transform="translate(-44.95 -384.76)"/><path class="cls-46" d="M1079.18,2700.18S998.07,2908,931.79,2972.09c-11,10.59-151.13,99.26-151.13,99.26l-15,18.28s-14.4-8.55,8.39-36.52c10.71-13.14,15-5,15-5L906.27,2946.7s74-221.95,84-230.4C1038.56,2675.62,1079.18,2700.18,1079.18,2700.18Z" transform="translate(-44.95 -384.76)"/><path class="cls-96" d="M990.73,2709.89c6.86-6.83,12.55-10.92,17-13.39l34.54-25.35a128,128,0,0,0,6.36-38.8c.07-6.25-.34-16-1.26-25.8-1.58-16.7-7.94-45.41,19.85-50.29,6.45-1.13,12-.79,14.29,4.41,14.37,32,23.4,47.1,28.44,58-2.67,9.37-13.81,15-13.81,15-6.26,19-20.3,75.77-21.77,84.87l-16.17,175.11s-34.19,9.8-55,9.67-33.64-4.13-33.64-4.13l-15.7-1.85-28.37-7.59S972.18,2728.36,990.73,2709.89Z" transform="translate(-44.95 -384.76)"/><polygon class="cls-62" points="702.86 2690.74 725.86 2668.59 726.59 2660.36 701.22 2688.96 702.86 2690.74"/><path class="cls-62" d="M787.43,3046.39s-6.47-5.23-12-4c-4.19.91-8.48,9.67-8.48,9.67s4.95,5.82-2.52,14.27c-6.84,7.74-10,12.48-10.28,16.75s15.57,16.58,15.57,16.58,1.71-.38.92-4.61a75.32,75.32,0,0,0-2.28-8.63s-3.62,2.41-4.38-4S787.43,3046.39,787.43,3046.39Z" transform="translate(-44.95 -384.76)"/><polygon class="cls-62" points="885.33 2738.76 884.62 2706.84 879.06 2700.72 882.91 2738.76 885.33 2738.76"/><path class="cls-62" d="M934.53,3078.42s-8.24,1.21-11.09,6.07c-2.17,3.69,1.37,12.78,1.37,12.78s8.29.94,10.06,7.73c2.61,10,3.83,14.07,6.75,17.19s22.75-.22,22.75-.22.88-1.51-2.77-3.79a72.42,72.42,0,0,0-7.89-4.17s-.67,4.29-5.91.5S934.53,3078.42,934.53,3078.42Z" transform="translate(-44.95 -384.76)"/><path class="cls-34" d="M889,2724.28a26.49,26.49,0,0,1,36.46-8.49l3.21,2a26.51,26.51,0,0,1,8.49,36.47l-12.45,20-48.16-30Zm41.48,25.81a18.61,18.61,0,0,0-6-25.63l-3.2-2a18.62,18.62,0,0,0-25.63,6l-8.3,13.33,34.81,21.66Z" transform="translate(-44.95 -384.76)"/><polygon class="cls-58" points="826.92 2335.47 907.06 2385.33 877.66 2460.85 774.81 2396.85 826.92 2335.47"/><polygon class="cls-34" points="894.68 2416.36 896.26 2413.82 864.05 2393.77 857.8 2403.83 832.72 2388.23 838.98 2378.17 807.18 2358.38 805.59 2360.93 834.84 2379.13 828.58 2389.19 858.76 2407.97 865.02 2397.91 894.68 2416.36"/><path class="cls-59" d="M894,2765a4.39,4.39,0,1,0,6-1.41A4.4,4.4,0,0,0,894,2765Z" transform="translate(-44.95 -384.76)"/><rect class="cls-59" x="892.75" y="2764.91" width="3.93" height="15.11" transform="translate(144.42 5214.27) rotate(-148.1)"/><polygon class="cls-34" points="774.81 2396.85 768.15 2385.11 822.97 2333.01 827.86 2336.05 774.81 2396.85"/><path class="cls-46" d="M1065.46,2583.17c-22.17,18.58-86.83,68.42-86.83,68.42l-42.7,61.22s5.71,17,.05,20.64c-12.51,8.09-19.94-13.22-19.94-13.22,5.27,0,8.45,4.23,11,1.45.75-.83-1.5-11.27-1.5-11.27l35.08-73.32s90.49-82.46,100.13-76.71a21.16,21.16,0,0,1,7.68,8.13A11.82,11.82,0,0,1,1065.46,2583.17Z" transform="translate(-44.95 -384.76)"/><path class="cls-46" d="M1048.45,2462.53s23.58,19.7,26.89,43.48c1,7-16.47,15.26-16.47,15.26,1,17.27,20.31,35.62,20.31,35.62s-8.75-4.34-17.19,4.82c-4.87,5.28-11.68,4-11.26,1.9,4.51-22.66-30.12-69.35-20.84-85.09S1048.45,2462.53,1048.45,2462.53Z" transform="translate(-44.95 -384.76)"/><path class="cls-51" d="M1046.52,2471.13c.94-.88,14.23-17.93,0-21-9.79-2.09-24.91,1.27-46.78,37.1-13.08,21.41-6.83,37.56-5.12,61.25,1,14.6-1.71,60.05-1.71,60.05l65.07-49.18s-21.74-53.57-21.74-58.28,6.43-2.56,6.43-2.56S1037.49,2479.57,1046.52,2471.13Z" transform="translate(-44.95 -384.76)"/><path class="cls-46" d="M1948.69,1754.75s-18.43.38-17.26-19.88c.62-10.62,10.85-19.48,10.85-19.48s-6.88-10.6,2.35-35.78c4.16-11.35,11.68-1.81,10.52,7.19-1.47,11.47,6.92,23.08,6.6,41.56-.15,8.69,6.61,15.29,2.4,17.21-5.72,2.61-9.9-16.3-9.9-16.3S1953.74,1744.72,1948.69,1754.75Z" transform="translate(-44.95 -384.76)"/><path class="cls-86" d="M1958.69,1701.4l24.92-74.6,52.8-99.37-24-28.14s-52.78,89.92-58.91,100.72-14.58,39.32-15.59,67.46c-.59,16,0,35.62,0,35.62Z" transform="translate(-44.95 -384.76)"/><polygon class="cls-13" points="1915.2 1325.21 1913.74 1316.64 1893.01 1318.33 1896.23 1327.56 1915.2 1325.21"/><path class="cls-86" d="M2091,2071.57l2-165.76,4.1-200.44s9.15-83.31,52.61-15.92-19.31,224.81-18.41,232.9c1.38,12.45-14.33,155.59-14.33,155.59Z" transform="translate(-44.95 -384.76)"/><path class="cls-48" d="M2257,2096.87l-18.18.56L2225,2108.26s-18.4,5.86-23,10.48,57.9-6.43,57.9-6.43Z" transform="translate(-44.95 -384.76)"/><path class="cls-77" d="M2231.34,2092.14,2196.87,1930l-64.82-169.84s-7.4-105.5,63-67.13c6.47,3.52,40.16,237,42.82,244.7,4.08,11.84,20.2,154.93,20.2,154.93Z" transform="translate(-44.95 -384.76)"/><polygon class="cls-46" points="2192.9 1707.5 2211.9 1707.86 2212.11 1714.11 2193.86 1712.66 2192.9 1707.5"/><path class="cls-48" d="M2115,2081.83l-17.86-3.46-15.87,7.53s-19.57,7.47-25.08,11,58.23.65,58.23.65Z" transform="translate(-44.95 -384.76)"/><polygon class="cls-46" points="2052.4 1688.36 2070.86 1692.88 2069.69 1699.03 2052.21 1693.61 2052.4 1688.36"/><path class="cls-46" d="M1973.14,1423.5s-5.05,31.44,8.18,49.61c6,8.25,23.13-.26,23.13-.26,16.64,18.63,20.52,51.58,20.52,51.58s7.81-6.41,25.61-5.51c10.25.53,9.79-24.65,7.23-26.37-27.65-18.61-28-71.64-53.34-78.42S1973.14,1423.5,1973.14,1423.5Z" transform="translate(-44.95 -384.76)"/><path class="cls-51" d="M1984.72,1424.19s-.9,6.29-12.44,9.19-24.91-9.33-20.87-25.28c1.1-4.37,8.64-17.73,27.91-7.64,0,0,4.19-11.06,13.66-9.72,13.51,1.91,16.8,16.77,16.8,16.77s12-8.53,22.11,4.86a20.7,20.7,0,0,1,3.29,16.41,13.55,13.55,0,0,1,11.91,4c4.48,4.77,1.79,15.93-4.72,18.14,0,0,.72,4.39.84,6.89.37,7.63-4.16,9.19-4.16,9.19s-12,1.62-14.94-1.5.88-16.83-3.13-20.11-7.71,2.39-9,5.14c-.54,1.14-7.81-.93-10.32-8.77-.75-2.31.53-6.89.53-6.89-1.56-1.79-8.35.55-10.85-.58C1983.52,1430.77,1984.72,1424.19,1984.72,1424.19Z" transform="translate(-44.95 -384.76)"/><path class="cls-13" d="M2175.32,1668.85l.1,4.8s-2.91,31.44-14.71,45c-38.25,44-69.69,10.84-69.69,10.84s-79.69-177.75-83.23-197c-6-32.51,25.23-46.78,38.43-50.09,13-3.26,26.08-1.76,36.78,1a29.26,29.26,0,0,1,21.9,30.11C2102.53,1551.13,2113.49,1652.11,2175.32,1668.85Z" transform="translate(-44.95 -384.76)"/><path class="cls-86" d="M2046.22,1482.45l20.14,123.43-47.38-111a54.79,54.79,0,0,0-10.63,9.56,67.18,67.18,0,0,0-11.79,18.88c-8,19.37,36.71,92.56,54.46,137s34,87.47,34,87.47l38.41,11.19-11.88-37,36.62,24.81,58.37-55.1s-37.61-53.27-57.18-89-41.94-98.7-48-107.82S2073.46,1470.06,2046.22,1482.45Z" transform="translate(-44.95 -384.76)"/><polygon class="cls-97" points="1987.05 1102.78 1986.64 1115.69 2010.89 1156.61 2021.42 1221.12 1993.52 1166.89 1982.83 1117.29 1976.82 1110.07 1987.05 1102.78"/><path class="cls-46" d="M1957.53,1745.75s13.14,13,27.84-5.6c7.72-9.78,7.08-24.64,7.08-24.64s50.27-36.14,62.9-64.69c5.7-12.88-26.51-16.16-22.57-6.28s-50.5,52.46-64.47,69c-6.57,7.75-16.57,8.89-15,13.5,2.16,6.24,19.73-7.53,19.73-7.53S1961.57,1733.43,1957.53,1745.75Z" transform="translate(-44.95 -384.76)"/><path class="cls-77" d="M1991.25,1691.86l51.44-94.89,16.67-112.27s9.8-2.22,25.68,6c28.4,14.61,8.83,103.69,5,117.43s-21.13,55.67-47.8,75c-17.42,12.62-37.19,24.59-37.19,24.59Z" transform="translate(-44.95 -384.76)"/><polygon class="cls-13" points="1938.66 1313.64 1946.31 1307.1 1960.1 1322.9 1950.66 1328.81 1938.66 1313.64"/></g></svg>