<?xml version="1.0" encoding="utf-8"?>
<!-- Generator: Adobe Illustrator 24.0.0, SVG Export Plug-In . SVG Version: 6.00 Build 0)  -->
<svg version="1.1" id="Camada_1" xmlns="http://www.w3.org/2000/svg" xmlns:xlink="http://www.w3.org/1999/xlink" x="0px" y="0px"
	 viewBox="0 0 2913.5 2913.5" style="enable-background:new 0 0 2913.5 2913.5;" xml:space="preserve">
<style type="text/css">
	.st0{fill:url(#SVGID_1_);}
	.st1{opacity:0.3;fill:#00D423;enable-background:new    ;}
	.st2{fill:url(#SVGID_2_);}
	.st3{opacity:0.5;fill:#FFFFFF;enable-background:new    ;}
	.st4{fill:url(#SVGID_3_);}
	.st5{fill:url(#SVGID_4_);}
	.st6{fill:url(#SVGID_5_);}
	.st7{fill:url(#SVGID_6_);}
	.st8{fill:url(#SVGID_7_);}
	.st9{fill:url(#SVGID_8_);}
	.st10{fill:url(#SVGID_9_);}
	.st11{clip-path:url(#SVGID_11_);}
	.st12{fill:url(#SVGID_12_);}
	.st13{opacity:0.3;fill:url(#SVGID_13_);enable-background:new    ;}
	.st14{opacity:0.3;fill:url(#SVGID_14_);enable-background:new    ;}
	.st15{fill:url(#SVGID_15_);}
	.st16{fill:url(#SVGID_16_);}
	.st17{fill:url(#SVGID_17_);}
	.st18{fill:#F4F7FA;}
	.st19{fill:url(#SVGID_18_);}
	.st20{fill:url(#SVGID_19_);}
	.st21{fill:url(#SVGID_20_);}
	.st22{fill:#FFFFFF;}
	.st23{fill:url(#SVGID_21_);}
	.st24{opacity:0.3;fill:url(#SVGID_22_);enable-background:new    ;}
	.st25{fill:url(#SVGID_23_);}
	.st26{fill:#D8DEE8;}
	.st27{fill:url(#SVGID_24_);}
	.st28{fill:url(#SVGID_25_);}
	.st29{fill:url(#SVGID_26_);}
	.st30{opacity:0.48;fill:#FFFFFF;enable-background:new    ;}
	.st31{fill:url(#SVGID_27_);}
	.st32{fill:url(#SVGID_28_);}
	.st33{fill:url(#SVGID_29_);}
	.st34{fill:url(#SVGID_30_);}
	.st35{fill:url(#SVGID_31_);}
	.st36{fill:url(#SVGID_32_);}
	.st37{fill:url(#SVGID_33_);}
	.st38{fill:url(#SVGID_34_);}
	.st39{fill:url(#SVGID_35_);}
	.st40{opacity:0.3;enable-background:new    ;}
	.st41{fill:url(#SVGID_36_);}
	.st42{opacity:0.3;fill:url(#SVGID_37_);enable-background:new    ;}
	.st43{fill:url(#SVGID_38_);}
	.st44{fill:url(#SVGID_39_);}
	.st45{fill:url(#SVGID_40_);}
	.st46{fill:url(#SVGID_41_);}
	.st47{fill:url(#SVGID_42_);}
	.st48{fill:url(#SVGID_43_);}
	.st49{fill:url(#SVGID_44_);}
	.st50{fill:url(#SVGID_45_);}
	.st51{fill:url(#SVGID_46_);}
	.st52{fill:url(#SVGID_47_);}
	.st53{fill:url(#SVGID_48_);}
	.st54{fill:url(#SVGID_49_);}
	.st55{fill:url(#SVGID_50_);}
	.st56{fill:url(#SVGID_51_);}
	.st57{opacity:0.3;fill:url(#SVGID_52_);enable-background:new    ;}
	.st58{fill:url(#SVGID_53_);}
	.st59{fill:url(#SVGID_54_);}
</style>
<title>head-image</title>
<g>
	<g id="Illustration">
		
			<linearGradient id="SVGID_1_" gradientUnits="userSpaceOnUse" x1="1914.4897" y1="-880.1202" x2="1890.5996" y2="189.2099" gradientTransform="matrix(-0.82 -0.23 -0.25 0.89 3697.3899 2916.1401)">
			<stop  offset="0" style="stop-color:#0B2A00"/>
			<stop  offset="1" style="stop-color:#00FF00"/>
		</linearGradient>
		<path class="st0" d="M1980.9,2453c-39.3-25.9,55.9-258.3,141.7-412.1c70.5-126.3,153.4-233,177.4-220.7c18.3,9.4-4.6,85.2,12,91.2
			c22.3,8.1,69.1-125.8,114.7-121.3c28.1,2.8,52.3,57.8,53.2,108.3c1.6,91.2-73,151.6-235.3,310
			C2036.4,2411.4,2001.1,2466.3,1980.9,2453z"/>
		<path class="st1" d="M2047.8,2302.7c21.9-65.6,20-107.4,59.8-149.8c34.8-37,56.2-26.4,97.3-69.3c46.4-48.5,30.2-73.9,69.1-111.4
			c54-52.1,106-23.1,151.8-70c14.5-14.8,29.4-38.3,36.7-77.7c10.2,20.6,16.9,47.9,17.4,73.9c1.6,91.2-73,151.6-235.3,310
			c-208,203-243.4,257.9-263.6,244.6c-3.1-2-5.3-5.3-6.8-9.7C2013.5,2389.6,2035.1,2340.9,2047.8,2302.7z"/>
		
			<linearGradient id="SVGID_2_" gradientUnits="userSpaceOnUse" x1="1847.5051" y1="-122.7428" x2="1417.375" y2="-881.4327" gradientTransform="matrix(-0.82 -0.23 -0.25 0.89 3697.3899 2916.1401)">
			<stop  offset="0" style="stop-color:#00BF35"/>
			<stop  offset="1" style="stop-color:#9571F6"/>
		</linearGradient>
		<path class="st2" d="M1905.7,2571.9c83.9-187.6,179-321.7,250.4-409c160.6-196.6,238.8-202.8,273.1-200.1
			c45.7,3.5,104.4,29.6,113.4,73.4c16.9,81.9-147.6,189.5-129.6,220.4c9.3,16,54.7-10.4,73.1,10.6c25.1,28.6-23.6,119.5-36.6,141.4
			C2348.3,2577.9,2013.6,2575.8,1905.7,2571.9z"/>
		<path class="st3" d="M2067.5,2428.6c75.3-48.3,97.8-43.4,138.2-88.1c74.5-82.4,47.2-153.1,116.3-205.9
			c49.3-37.6,77.9-12.9,147-52.7c26.1-15.2,49.8-34.4,70-56.9c1.6,3.6,2.7,7.4,3.6,11.2c16.9,81.9-147.6,189.5-129.6,220.4
			c9.3,16,54.7-10.4,73.1,10.6c25.1,28.6-23.6,119.5-36.6,141.4c-101.1,169.4-435.8,167.2-543.7,163.4c1.5-3.4,3.1-6.8,4.6-10.2
			C1970.5,2496.6,2026,2455.2,2067.5,2428.6z"/>
		
			<linearGradient id="SVGID_3_" gradientUnits="userSpaceOnUse" x1="1111.5396" y1="-1480.7815" x2="806.5506" y2="-1121.0917" gradientTransform="matrix(0.9504 -0.3112 0.3112 0.9504 611.9164 2643.0425)">
			<stop  offset="0" style="stop-color:#AA80F9"/>
			<stop  offset="1" style="stop-color:#6165D7"/>
		</linearGradient>
		<path class="st4" d="M1330.9,1426.4c-38.2,9.9-81.3-2.3-108.5-33.8L839.3,947.7c-34.9-40.5-30.2-100.8,10.5-135
			c41.1-34.4,122.1-36.2,157.6,4.6L1398,1266c36.8,42.3,31,103.6-12.8,136.7C1374.4,1410.8,1343.6,1423.2,1330.9,1426.4z"/>
		
			<linearGradient id="SVGID_4_" gradientUnits="userSpaceOnUse" x1="1073.9817" y1="-1512.6772" x2="768.9417" y2="-1152.9272" gradientTransform="matrix(0.9504 -0.3112 0.3112 0.9504 611.9164 2643.0425)">
			<stop  offset="0" style="stop-color:#AA80F9"/>
			<stop  offset="1" style="stop-color:#6165D7"/>
		</linearGradient>
		<path class="st5" d="M849.9,812.7c41.1-34.4,122.1-36.2,157.6,4.6l357,410.2c-36.5,2.4-76.1,16.2-125.3-4.8
			c-82-35-74.1-116.8-145.4-164c-32.6-21.6-85.4-38.3-175.3-19l-79.2-91.9C804.4,907.2,809.1,846.9,849.9,812.7z"/>
		
			<linearGradient id="SVGID_5_" gradientUnits="userSpaceOnUse" x1="3100.3948" y1="-1737.9786" x2="2853.9619" y2="-1447.3478" gradientTransform="matrix(-0.95 0.31 0.31 0.95 4124.5801 1495.5499)">
			<stop  offset="0" style="stop-color:#444B75"/>
			<stop  offset="1" style="stop-color:#26264F"/>
		</linearGradient>
		<path class="st6" d="M687.3,752.8c1.8-0.6,3.7-1.1,5.6-1.4L825,706.5l112.9,344.7l-128.6,40.2c-3,1.9-6.2,3.4-9.6,4.6
			c-45.4,14.9-107.4-49.9-138.4-144.6S641.9,767.7,687.3,752.8z"/>
		
			<linearGradient id="SVGID_6_" gradientUnits="userSpaceOnUse" x1="1252.3544" y1="-2140.8982" x2="1533.8645" y2="-583.8381" gradientTransform="matrix(0.9504 -0.3112 0.3112 0.9504 611.9164 2643.0425)">
			<stop  offset="0" style="stop-color:#444B8C"/>
			<stop  offset="1" style="stop-color:#26264F"/>
		</linearGradient>
		<path class="st7" d="M825,706.5c-12.6,131.2,24.8,245.6,112.9,344.7l1089.9-5.9L1721.1,74.6L825,706.5z"/>
		
			<linearGradient id="SVGID_7_" gradientUnits="userSpaceOnUse" x1="1156.0366" y1="-2138.0806" x2="1441.0566" y2="-561.5901" gradientTransform="matrix(0.9504 -0.3112 0.3112 0.9504 611.9164 2643.0425)">
			<stop  offset="0" style="stop-color:#444B8C"/>
			<stop  offset="1" style="stop-color:#26264F"/>
		</linearGradient>
		<path class="st8" d="M1668.4,848.1c-105.4-4.8-179.1-131.3-289.4-100.2c-86.6,24.4-85.2,115.7-171.8,134.2
			c-88.7,18.9-133.3-68.8-239.9-69.9c-48.5-0.5-93.2,17.2-133.4,44.2c16.5,70.5,51.1,135.4,103.9,194.8l1089.9-5.9L1861.9,736
			C1783.2,824.5,1719.5,850.5,1668.4,848.1z"/>
		
			<linearGradient id="SVGID_8_" gradientUnits="userSpaceOnUse" x1="2084.2083" y1="-1921.5679" x2="1523.4774" y2="-1260.2706" gradientTransform="matrix(-0.9504 0.3112 0.3112 0.9504 4125.3569 1492.8981)">
			<stop  offset="0" style="stop-color:#E38DDD"/>
			<stop  offset="1" style="stop-color:#9571F6"/>
		</linearGradient>
		<path class="st9" d="M1752.1,42c132.5-43.4,313.2,145.4,403.7,421.7s56.4,535.4-76.1,578.8c-132.5,43.4-313.2-145.4-403.7-421.7
			S1619.6,85.3,1752.1,42z"/>
		
			<linearGradient id="SVGID_9_" gradientUnits="userSpaceOnUse" x1="2127.3796" y1="-1600.8354" x2="1586.8097" y2="-1587.0554" gradientTransform="matrix(-0.95 0.31 0.31 0.95 4124.5801 1495.5499)">
			<stop  offset="0" style="stop-color:#406C7E"/>
			<stop  offset="1" style="stop-color:#3C3B6B"/>
		</linearGradient>
		<path class="st10" d="M2074.2,1025.4c28.1-9.2,51.9-30,70.7-62c19.1-32.5,32.1-74.7,38.8-125.4c14-106.7-1.9-237.7-44.8-368.8
			s-107.6-246.2-182-323.9c-35.4-37-70.9-63.3-105.5-78.2c-34-14.6-65.5-17.4-93.6-8.2s-51.9,30.1-70.6,62
			c-19.1,32.5-32.2,74.7-38.8,125.5c-5.9,44.6-6.5,93.5-2.1,144.8c6.1,71.5,73.9,125.9,98.9,202.2c26.6,81.1,9.5,177.9,49.9,241.7
			c24.9,39.3,51.8,74.4,80.2,104c35.4,37,70.9,63.3,105.5,78.2C2014.5,1031.9,2046,1034.6,2074.2,1025.4z"/>
		<g>
			<g>
				<defs>
					<path id="SVGID_10_" d="M2074.2,1025.4c28.1-9.2,51.9-30,70.7-62c19.1-32.5,32.1-74.7,38.8-125.4
						c14-106.7-1.9-237.7-44.8-368.8s-107.6-246.2-182-323.9c-35.4-37-70.9-63.3-105.5-78.2c-34-14.6-65.5-17.4-93.6-8.2
						s-51.9,30.1-70.6,62c-19.1,32.5-32.2,74.7-38.8,125.5c-14,106.7,1.9,237.7,44.8,368.8s107.6,246.2,182,323.9
						c35.4,37,70.9,63.3,105.5,78.2C2014.5,1031.9,2046,1034.6,2074.2,1025.4z"/>
				</defs>
				<clipPath id="SVGID_11_">
					<use xlink:href="#SVGID_10_"  style="overflow:visible;"/>
				</clipPath>
				<g class="st11">
					
						<linearGradient id="SVGID_12_" gradientUnits="userSpaceOnUse" x1="1629.1606" y1="-2091.7021" x2="1812.9607" y2="-1075.062" gradientTransform="matrix(0.9504 -0.3112 0.3112 0.9504 611.9164 2643.0425)">
						<stop  offset="0" style="stop-color:#AA80F9"/>
						<stop  offset="1" style="stop-color:#6165D7"/>
					</linearGradient>
					<path class="st12" d="M1937.8,542.3c41.5,126.7-9.5,254.8-112.4,285.7c-101.3,30.4-215-45.2-255.3-168.4
						c-40.4-123.2,7-250.2,107.2-284C1779,341.1,1896.3,415.5,1937.8,542.3z"/>
					
						<linearGradient id="SVGID_13_" gradientUnits="userSpaceOnUse" x1="1735.1416" y1="-1960.7305" x2="1870.7515" y2="-1210.6104" gradientTransform="matrix(0.9504 -0.3112 0.3112 0.9504 611.9164 2643.0425)">
						<stop  offset="0" style="stop-color:#FFC444"/>
						<stop  offset="1" style="stop-color:#F36F56"/>
					</linearGradient>
					<path class="st13" d="M1921,545.5c30.8,94.1,14.4,182.2-36,196.6c-49.6,14.2-113.5-48.7-143.4-140.2s-15.3-179.1,33.4-195.8
						C1824.5,389.1,1890.2,451.4,1921,545.5z"/>
				</g>
			</g>
		</g>
		
			<linearGradient id="SVGID_14_" gradientUnits="userSpaceOnUse" x1="4291.186" y1="-1640.4324" x2="4708.3862" y2="-1271.8624" gradientTransform="matrix(-0.95 0.31 0.31 0.95 6833.2598 608.57)">
			<stop  offset="0" style="stop-color:#E38DDD"/>
			<stop  offset="1" style="stop-color:#9571F6"/>
		</linearGradient>
		<path class="st14" d="M1995.3,527l313.6-88.7c25.6-7.2,52,3.4,58.7,23.8l0,0c6.7,20.4-9,42.5-34.8,49.2L2017,593.4
			c-21,5.5-42.6-4.8-48.6-23l0,0C1962.5,552.3,1974.4,532.9,1995.3,527z"/>
		
			<linearGradient id="SVGID_15_" gradientUnits="userSpaceOnUse" x1="4132.9683" y1="-1865.9371" x2="4476.8784" y2="-1687.6969" gradientTransform="matrix(-0.95 0.31 0.31 0.95 6833.2598 608.57)">
			<stop  offset="0" style="stop-color:#444B8C"/>
			<stop  offset="1" style="stop-color:#26264F"/>
		</linearGradient>
		<path class="st15" d="M1922.1,346L2279,222.5c29.9-10.3,61.6,2.5,70.2,28.9l0,0c8.6,26.4-9.3,55.6-39.5,65l-360.4,112.9
			c-23.4,7.3-48-5.2-55.4-27.9l0,0C1886.6,378.8,1899,354,1922.1,346z"/>
		
			<linearGradient id="SVGID_16_" gradientUnits="userSpaceOnUse" x1="4192.5151" y1="-1686.8707" x2="4591.9854" y2="-1333.9707" gradientTransform="matrix(-0.95 0.31 0.31 0.95 6833.2598 608.57)">
			<stop  offset="0" style="stop-color:#AA80F9"/>
			<stop  offset="1" style="stop-color:#6165D7"/>
		</linearGradient>
		<path class="st16" d="M2087.6,446.5l295.9-87c24.1-7.1,49.1,3.2,55.6,23l0,0c6.5,19.8-8.1,41.3-32.3,47.9l-297.9,80.8
			c-19.9,5.4-40.5-4.6-46.3-22.3l0,0C2056.7,471.3,2067.8,452.3,2087.6,446.5z"/>
		<path class="st1" d="M2363.1,246.3c8.7,26.5,39.2,40.6,68.8,31.4c30.1-9.4,47.7-39.4,38.7-66.9s-40.9-41.2-70.6-30.8
			C2370.7,190.2,2354.5,219.8,2363.1,246.3z"/>
		
			<linearGradient id="SVGID_17_" gradientUnits="userSpaceOnUse" x1="4261.5088" y1="-1547.4752" x2="4747.3389" y2="-1118.2753" gradientTransform="matrix(-0.95 0.31 0.31 0.95 6833.2598 608.57)">
			<stop  offset="0" style="stop-color:#40447E"/>
			<stop  offset="1" style="stop-color:#3C3B6B"/>
		</linearGradient>
		<path class="st17" d="M2000.6,620.6l378.9-92.5c31.8-7.8,65.2,7.6,73.9,34.4l0,0c8.8,26.8-10.6,54.2-42.7,61L2028.2,705
			c-24.7,5.3-50.6-9.1-58.1-32.1l0,0C1962.6,649.9,1976.1,626.5,2000.6,620.6z"/>
		<path class="st18" d="M2353.2,585.8c6.6,20.1,31.5,32.2,55.9,26.9c24.8-5.4,39.7-26.5,32.9-47.2s-32.5-32.5-57.1-26.6
			C2360.7,544.6,2346.6,565.6,2353.2,585.8z"/>
		
			<linearGradient id="SVGID_18_" gradientUnits="userSpaceOnUse" x1="1688.8711" y1="662.589" x2="1497.4911" y2="742.9688" gradientTransform="matrix(1 0 0 1 -429.07 2020.62)">
			<stop  offset="0" style="stop-color:#40447E"/>
			<stop  offset="1" style="stop-color:#3C3B6B"/>
		</linearGradient>
		<path class="st19" d="M2833.4,2578.5L109,2554.8v70.2c0,19.1,11.9,35.3,28,38.1l770.4,138.2c9.1,1.6,18.4,2.1,27.6,1.3
			L2803.8,2645c16.7-1.4,29.6-17.7,29.6-37.2L2833.4,2578.5z"/>
		
			<linearGradient id="SVGID_19_" gradientUnits="userSpaceOnUse" x1="1433.3257" y1="-180.8802" x2="1225.6257" y2="-93.6499" gradientTransform="matrix(1 0 0 1 -429.07 2020.62)">
			<stop  offset="0" style="stop-color:#40447E"/>
			<stop  offset="1" style="stop-color:#3C3B6B"/>
		</linearGradient>
		<path class="st20" d="M1956.4,2464.7L139,2593.1c-32.5,2.3-59-22.1-59-54.6V1239.4c0.1-32.5,26.5-58.8,59-58.7h1817.4
			c26.8,0,48.5,23.8,48.5,53.1v1174.5C2004.9,2437.5,1983.2,2462.8,1956.4,2464.7z"/>
		
			<linearGradient id="SVGID_20_" gradientUnits="userSpaceOnUse" x1="538.07" y1="-133.645" x2="2462.97" y2="-133.645" gradientTransform="matrix(1 0 0 1 -429.07 2020.62)">
			<stop  offset="0" style="stop-color:#40447E"/>
			<stop  offset="1" style="stop-color:#3C3B6B"/>
		</linearGradient>
		<path class="st21" d="M1985.4,2464.7L168,2593.1c-32.5,2.3-59-22.1-59-54.6V1239.4c0.1-32.5,26.5-58.8,59-58.7h1817.4
			c26.8,0,48.5,23.8,48.5,53.1v1174.5C2033.8,2437.5,2012.2,2462.8,1985.4,2464.7z"/>
		<path class="st22" d="M1928.8,2381.9L236.1,2493.5c-26.5,1.7-48-18.3-48-44.8V1311.2c0-26.5,21.5-48,48-48.1l1692.7-7
			c22.1-0.1,40,19.4,40,43.5v1036C1968.7,2359.7,1950.9,2380.4,1928.8,2381.9z"/>
		<path class="st22" d="M1140.9,1216.2c0,12.1-9.3,21.9-20.9,21.9s-21-9.8-21-21.8s9.4-21.9,21-21.9
			C1131.6,1194.3,1140.9,1204.1,1140.9,1216.2z"/>
		
			<linearGradient id="SVGID_21_" gradientUnits="userSpaceOnUse" x1="538.07" y1="578.1861" x2="3262.3701" y2="578.1861" gradientTransform="matrix(1 0 0 1 -429.07 2020.62)">
			<stop  offset="0" style="stop-color:#40447E"/>
			<stop  offset="1" style="stop-color:#3C3B6B"/>
		</linearGradient>
		<path class="st23" d="M1940,2458.9L109,2594.1l798.3,143.3c9.1,1.6,18.4,2.1,27.6,1.3l1898.4-160.1L1969,2459.9
			C1959.5,2458.5,1949.7,2458.2,1940,2458.9z"/>
		
			<linearGradient id="SVGID_22_" gradientUnits="userSpaceOnUse" x1="376.2" y1="172.3999" x2="2372.3" y2="172.3999" gradientTransform="matrix(1 0 0 1 0 2404)">
			<stop  offset="0" style="stop-color:#40447E"/>
			<stop  offset="1" style="stop-color:#3C3B6B"/>
		</linearGradient>
		<polygon class="st24" points="376.2,2597.5 1900.6,2483.2 2372.3,2547.5 861.1,2669.6 		"/>
		
			<linearGradient id="SVGID_23_" gradientUnits="userSpaceOnUse" x1="1958.5046" y1="-1126.1337" x2="936.7045" y2="-29.8237" gradientTransform="matrix(1 0 0 1 -429.07 2020.62)">
			<stop  offset="0" style="stop-color:#AA80F9"/>
			<stop  offset="1" style="stop-color:#6165D7"/>
		</linearGradient>
		<path class="st25" d="M1968.9,1476l-1781,22.1v-201.2c0-22.6,18.3-40.8,40.8-40.8H1928c22.6,0,40.9,18.3,40.9,40.8l0,0
			L1968.9,1476z"/>
		<polygon class="st26" points="1304.5,2015.1 297.5,2056.6 297.5,1581 1304.5,1564.1 		"/>
		<polygon class="st26" points="1877.4,1991.4 1363.9,2012.6 1363.9,1563.1 1877.4,1554.5 		"/>
		<polygon class="st26" points="1877.4,2315.7 297.5,2409.7 297.5,2118.8 1877.4,2048.4 		"/>
		
			<linearGradient id="SVGID_24_" gradientUnits="userSpaceOnUse" x1="695.27" y1="-651.97" x2="744.67" y2="-651.97" gradientTransform="matrix(1 0 0 1 -429.07 2020.62)">
			<stop  offset="0" style="stop-color:#444B8C"/>
			<stop  offset="1" style="stop-color:#26264F"/>
		</linearGradient>
		<path class="st27" d="M315.6,1368.5c0,12.7-11,23-24.7,23.1s-24.7-10.1-24.7-22.8s11.1-23,24.7-23.1S315.6,1355.9,315.6,1368.5z"
			/>
		
			<linearGradient id="SVGID_25_" gradientUnits="userSpaceOnUse" x1="784.87" y1="-652.47" x2="833.77" y2="-652.47" gradientTransform="matrix(1 0 0 1 -429.07 2020.62)">
			<stop  offset="0" style="stop-color:#444B8C"/>
			<stop  offset="1" style="stop-color:#26264F"/>
		</linearGradient>
		<path class="st28" d="M404.7,1368c0,12.4-10.9,22.5-24.4,22.6s-24.5-9.9-24.5-22.3s11-22.5,24.5-22.6S404.7,1355.6,404.7,1368z"/>
		
			<linearGradient id="SVGID_26_" gradientUnits="userSpaceOnUse" x1="873.67" y1="-652.97" x2="922.17" y2="-652.97" gradientTransform="matrix(1 0 0 1 -429.07 2020.62)">
			<stop  offset="0" style="stop-color:#444B8C"/>
			<stop  offset="1" style="stop-color:#26264F"/>
		</linearGradient>
		<path class="st29" d="M493.1,1367.5c0,12.3-10.8,22.4-24.2,22.5s-24.3-9.8-24.3-22.2s10.9-22.4,24.3-22.5
			S493.1,1355.2,493.1,1367.5z"/>
		<path class="st30" d="M1547.5,2108.4c-140.1-75.4-250.3,20.1-356.6-74.1c-64.5-57.1-32.8-99.7-112.1-185.1
			c-87.8-94.6-145-62.8-233.3-147.9c-111.6-107.6-55.8-191.4-151.9-268.6c-116.7-93.7-242.4-7-353.5-96.9
			c-47.9-38.8-74.2-95.1-87.9-155.1H143.5c-19,0-34.5,15.4-34.5,34.5V2562c0,19,15.5,33.4,34.5,32l1852.2-131.5
			c9.1-0.6,17.1-6,22.3-13.6c-135.6-4.9-218.9-50.4-272.1-97.4C1641.8,2259.5,1659.8,2168.8,1547.5,2108.4z"/>
		
			<linearGradient id="SVGID_27_" gradientUnits="userSpaceOnUse" x1="2280.5669" y1="-441.8517" x2="1428.927" y2="995.2883" gradientTransform="matrix(1 0 0 1 -429.07 2020.62)">
			<stop  offset="0" style="stop-color:#2D7F00"/>
			<stop  offset="1" style="stop-color:#94FFA1"/>
		</linearGradient>
		<path class="st31" d="M2704.1,1438.4l-202.7,331.7l-618.4-7l-274.3,530.7l-708.1,24.8L533,2884.7c-6.5,10.1-17.4,16.6-29.4,17.6
			l-48,4.1c-21.8,3.4-68.3-3.2-61.2-24.1l248.9-563.1l204.7-91.6l688.4-26.3l260.5-521.7l632.6-7l212-322.1L2704.1,1438.4z"/>
		
			<linearGradient id="SVGID_28_" gradientUnits="userSpaceOnUse" x1="2213.3" y1="1492.5863" x2="2339.8999" y2="1492.5863" gradientTransform="matrix(1 0 0 -1 0 2914.2363)">
			<stop  offset="0" style="stop-color:#2D7F00"/>
			<stop  offset="1" style="stop-color:#94FFA1"/>
		</linearGradient>
		<polygon class="st32" points="2326.9,1460.7 2213.3,1408.4 2339.9,1382.6 		"/>
		
			<linearGradient id="SVGID_29_" gradientUnits="userSpaceOnUse" x1="2768.1365" y1="-1313.6781" x2="2736.2964" y2="-1037.6781" gradientTransform="matrix(1 0 0 1 0 2404)">
			<stop  offset="0" style="stop-color:#2D7F00"/>
			<stop  offset="1" style="stop-color:#94FFA1"/>
		</linearGradient>
		<polygon class="st33" points="2760,1350.6 2819.5,1438.4 2687.5,1438.4 2642.9,1382.6 		"/>
		
			<linearGradient id="SVGID_30_" gradientUnits="userSpaceOnUse" x1="2782.7725" y1="-1063.8956" x2="2846.4727" y2="-1530.9756" gradientTransform="matrix(1 0 0 1 0 2404)">
			<stop  offset="0" style="stop-color:#2D7F00"/>
			<stop  offset="1" style="stop-color:#94FFA1"/>
		</linearGradient>
		<polygon class="st34" points="2833.4,1046.2 2778.3,1005.3 2754.4,1336.2 2778.3,1378.7 2819.5,1438.4 		"/>
		
			<linearGradient id="SVGID_31_" gradientUnits="userSpaceOnUse" x1="1722.9857" y1="-759.4006" x2="1412.4757" y2="-188.8104" gradientTransform="matrix(1 0 0 1 0 2404)">
			<stop  offset="0" style="stop-color:#51D67C"/>
			<stop  offset="1" style="stop-color:#15FF45"/>
		</linearGradient>
		<polygon class="st35" points="1284.1,2163.1 1569.6,2241.1 1843.9,1710.4 1558.4,1632.4 		"/>
		
			<linearGradient id="SVGID_32_" gradientUnits="userSpaceOnUse" x1="1189.4104" y1="141.3866" x2="610.6104" y2="1035.1766" gradientTransform="matrix(1 0 0 1 -429.07 2020.62)">
			<stop  offset="0" style="stop-color:#51D67C"/>
			<stop  offset="1" style="stop-color:#00D401"/>
		</linearGradient>
		<path class="st36" d="M189.5,2844.8l213.8,58.4c22.6,6.2,46.6-3,59.3-22.6l398.9-614.7l-285.5-78l-401.2,618.2
			c-7.7,11.9-4.3,27.7,7.6,35.4C184.5,2843,187,2844.1,189.5,2844.8z"/>
		
			<linearGradient id="SVGID_33_" gradientUnits="userSpaceOnUse" x1="1489.441" y1="-263.264" x2="275.281" y2="-48.3039" gradientTransform="matrix(1 0 0 1 0 2404)">
			<stop  offset="0" style="stop-color:#51D67C"/>
			<stop  offset="1" style="stop-color:#00D401"/>
		</linearGradient>
		<polygon class="st37" points="576,2187.9 861.5,2265.9 1569.6,2241.1 1284.1,2163.1 		"/>
		
			<linearGradient id="SVGID_34_" gradientUnits="userSpaceOnUse" x1="2022.8766" y1="-851.1183" x2="1998.9966" y2="-617.5782" gradientTransform="matrix(1 0 0 1 0 2404)">
			<stop  offset="0" style="stop-color:#03BF00"/>
			<stop  offset="1" style="stop-color:#00D401"/>
		</linearGradient>
		<polygon class="st38" points="1558.4,1632.4 1843.9,1710.4 2462.4,1717.4 2176.8,1639.4 		"/>
		
			<linearGradient id="SVGID_35_" gradientUnits="userSpaceOnUse" x1="2337.2393" y1="-808.8748" x2="2836.1692" y2="-1443.1548" gradientTransform="matrix(1 0 0 1 0 2404)">
			<stop  offset="0" style="stop-color:#2D7F00"/>
			<stop  offset="1" style="stop-color:#94FFA1"/>
		</linearGradient>
		<polygon class="st39" points="2213.3,1408.4 2321.5,1402.7 2176.8,1639.4 2462.4,1717.4 2665.8,1384.6 2778.3,1378.7 
			2778.3,1005.3 		"/>
		<g class="st40">
			
				<linearGradient id="SVGID_36_" gradientUnits="userSpaceOnUse" x1="2128.2822" y1="-388.9308" x2="1817.7821" y2="181.6593" gradientTransform="matrix(1 0 0 1 -429.07 2020.62)">
				<stop  offset="0" style="stop-color:#FF9085"/>
				<stop  offset="1" style="stop-color:#15FF45"/>
			</linearGradient>
			<path class="st41" d="M1383.8,2143.9c82.1-65.9,156.5-25.8,209-79.6c44.9-46-1.6-83.5,49.8-197.1
				c41.8-92.4,103.1-135,115.4-143.3c14.2-9.5,29.2-17.8,44.8-24.7l-244.3-66.8l-274.3,530.7l63.7,17.4
				C1358.3,2166.9,1370.4,2154.6,1383.8,2143.9z"/>
		</g>
		
			<linearGradient id="SVGID_37_" gradientUnits="userSpaceOnUse" x1="2506.9788" y1="-435.6234" x2="2420.0789" y2="-275.9333" gradientTransform="matrix(1 0 0 1 -429.07 2020.62)">
			<stop  offset="0" style="stop-color:#FF9085"/>
			<stop  offset="1" style="stop-color:#15FF45"/>
		</linearGradient>
		<path class="st42" d="M1879.4,1646.2c-52.2,3.6-61.6,5.5-61.7,8c-0.3,7.3,83.5,21.7,169.2,23.9c76.2,2,89.6-7.3,171.2-2
			c53.1,3.4,88.7,10.1,89.6,6c1-4.9-48.3-22.9-101.5-33.8C2073.7,1633.4,2007.9,1637.5,1879.4,1646.2z"/>
		
			<linearGradient id="SVGID_38_" gradientUnits="userSpaceOnUse" x1="1164.9417" y1="125.5494" x2="586.1416" y2="1019.3395" gradientTransform="matrix(1 0 0 1 -429.07 2020.62)">
			<stop  offset="0" style="stop-color:#03BF00"/>
			<stop  offset="1" style="stop-color:#00D401"/>
		</linearGradient>
		<path class="st43" d="M428.4,2579.8c44.2-72,60.5-145.5,137.3-181.1c58.9-27.3,98.9-7.3,151.3-41.8
			c40.8-26.9,62.8-69.6,75.4-109.8L576,2188l-385.3,593.8C323.7,2717.1,391.1,2640.5,428.4,2579.8z"/>
		
			<linearGradient id="SVGID_39_" gradientUnits="userSpaceOnUse" x1="4124.2358" y1="-83.3916" x2="4316.5591" y2="-83.3916" gradientTransform="matrix(-1 0 0 1 5393.1499 2020.62)">
			<stop  offset="0" style="stop-color:#425A4D"/>
			<stop  offset="1" style="stop-color:#425A4D"/>
		</linearGradient>
		<path class="st44" d="M1108.7,1737.6c24.2-7.1,56.6,37.4,83.5,74.4c40.3,55.3,87.3,119.9,74.6,197.5
			c-12.5,76.3-77.9,135.8-96.5,127.3c-16-7.3,14.7-58.6-8.8-127.3c-19-55.4-50.4-55.4-71.4-109.7
			C1063.9,1832.2,1078.9,1746.3,1108.7,1737.6z"/>
		
			<linearGradient id="SVGID_40_" gradientUnits="userSpaceOnUse" x1="1051.7668" y1="615.9861" x2="1424.745" y2="615.9861" gradientTransform="matrix(1 0 0 -1 0 2914.2363)">
			<stop  offset="0" style="stop-color:#425A4D"/>
			<stop  offset="1" style="stop-color:#425A4D"/>
		</linearGradient>
		<path class="st45" d="M1120.7,2089.1c124.7,30.3,206.9,78.9,254.8,113.3c26,18.6,38,30.3,44.5,47.2
			c36.9,96.5-152.9,242.5-173.1,257.8l-26.5-61.8c19.6-107.6,52.3-141.4,79.6-151.5c7.6-2.8,20.5-5.8,20.2-9.4
			c-0.6-8.6-72.7,3.6-141.6-21.6c-68.7-25.1-137.7-88.7-125.4-130.8C1055.5,2124.6,1064.9,2102.4,1120.7,2089.1z"/>
		
			<linearGradient id="SVGID_41_" gradientUnits="userSpaceOnUse" x1="2100.8433" y1="1151.6941" x2="2116.9634" y2="1441.854" gradientTransform="matrix(0.96 0.29 -0.29 0.96 -403.89 997.3201)">
			<stop  offset="0" style="stop-color:#E38DDD"/>
			<stop  offset="1" style="stop-color:#B40005"/>
		</linearGradient>
		<path class="st46" d="M1241.6,2794.6c0,0-11.6,4.1-11.7,13.3s11.8,49.6,24.6,64c12.8,14.4,14-7.1,13.2-20.9
			c-0.8-13.8-4.2-44.7-7.3-50.7S1241.6,2794.6,1241.6,2794.6z"/>
		
			<linearGradient id="SVGID_42_" gradientUnits="userSpaceOnUse" x1="1052.0001" y1="601.9362" x2="1372.3096" y2="601.9362" gradientTransform="matrix(1 0 0 -1 0 2914.2363)">
			<stop  offset="0" style="stop-color:#42734D"/>
			<stop  offset="1" style="stop-color:#425A4D"/>
		</linearGradient>
		<path class="st47" d="M1278.9,2230.2c22.7-0.4,75.8-4.7,89.9,21.6c11.8,21.9-8.9,55.1-21.6,75.5c-34.5,55.5-68.1,61.2-91.7,95.3
			c-9.1,13.2-17.4,31.6-20.1,58l-15-35c19.6-107.6,52.3-141.4,79.6-151.5c7.6-2.8,20.5-5.8,20.2-9.4c-0.6-8.6-72.7,3.6-141.6-21.6
			c-62.6-22.9-125.3-77.8-126.6-119.1C1151.2,2215.1,1225.9,2231.3,1278.9,2230.2z"/>
		
			<linearGradient id="SVGID_43_" gradientUnits="userSpaceOnUse" x1="9072.5498" y1="778.7019" x2="9096.8164" y2="778.7019" gradientTransform="matrix(-1 0 0 1 10331.71 2020.62)">
			<stop  offset="0" style="stop-color:#AC7A68"/>
			<stop  offset="1" style="stop-color:#AC7A68"/>
		</linearGradient>
		<path class="st48" d="M1234.9,2755.6c0.7,14.1,1.9,26,3,34.8c2.4,19.4,4.6,27.1,7.6,34.1c2.6,6.1,9.2,19.4,12.3,18.5
			c3.1-0.9-0.1-15.7-2.6-56.7c-0.4-5.9-1.5-24.9-1.5-24.9l0,0L1234.9,2755.6z"/>
		
			<linearGradient id="SVGID_44_" gradientUnits="userSpaceOnUse" x1="911.0715" y1="474.4523" x2="1297.8398" y2="474.4523" gradientTransform="matrix(1 0 0 -1 0 2914.2363)">
			<stop  offset="0" style="stop-color:#425A4D"/>
			<stop  offset="1" style="stop-color:#425A4D"/>
		</linearGradient>
		<path class="st49" d="M1048.8,2097.2c55.4,33.2,104.7,75.8,145.6,125.9c32,39.3,80.7,99,98.3,188.1c9.4,47.5,4.8,90.1-4.9,173.3
			c-7.6,65.9-19,131.3-34,195.9l-16.6,6.7c-14.8-27.2-34.2-70.2-41.1-125.3c-11.3-90.1,22.3-118.7,6.2-182.5
			c-14-55.3-54.6-89.3-135.8-157.1c-66.7-55.8-128.2-88.8-151-158.4c-3.9-11.8-7.2-26.3-0.9-39.6
			C928.3,2095.6,980.4,2085.6,1048.8,2097.2z"/>
		
			<linearGradient id="SVGID_45_" gradientUnits="userSpaceOnUse" x1="6036.7275" y1="-345.2984" x2="5594.4775" y2="25.0416" gradientTransform="matrix(-1 -5.000000e-02 -5.000000e-02 1 6488.9302 2156.6401)">
			<stop  offset="0" style="stop-color:#444B8C"/>
			<stop  offset="1" style="stop-color:#26264F"/>
		</linearGradient>
		<path class="st50" d="M991.4,1742.7c18.7-4,49.3-3.2,78.6-26.2c8.8-6.9,40-31.5,36.2-66.6c-3.3-30.9-32.6-47.6-36.3-49.5
			c-20.8-11.4-41.4-8.9-64.4-5.7c-29.8,4.1-39.6,12.2-60.3,17.8c-51.2,13.8-68.4-15-120-12.6c-65.8,3.1-71.5,51.7-126.9,52.9
			c-62.2,1.4-74.1-59.5-135.5-69.8c-85.2-14.3-214.1,77.4-211.5,183.2c1.5,61.1,47,131.1,105.1,152.1c33.9,12.3,70.4,8.4,80.8,30.4
			c7.4,15.7-9.3,27.7-7.7,55c2,35.2,32.3,59.9,37.2,63.9c45.4,37,147.3,18.3,216.8-34.1C909,1938.9,890,1764.5,991.4,1742.7z"/>
		
			<linearGradient id="SVGID_46_" gradientUnits="userSpaceOnUse" x1="-1321.1313" y1="58.1107" x2="-961.9814" y2="-264.7994" gradientTransform="matrix(1 0 0 1 2145.6899 2020.62)">
			<stop  offset="0" style="stop-color:#829A77"/>
			<stop  offset="1" style="stop-color:#829A77"/>
		</linearGradient>
		<path class="st51" d="M847.4,1730.2c48.2-5.9,96.6-9.2,145.1-9.9c114.4-1.6,130.8,13,135,23.7c7.8,20-5.6,30,2,65
			c4.6,20.9,0.3,30.4,9,52.8c8.6,21.9,1.8,33.6-5.7,84.8c-9.7,65.5-14.1,98.8,4.2,125.2c12.7,18.4,27,19.9,25.6,28.6
			c-2.9,18.6-67.1,8.3-148.4,44c-23.5,10.3-45.2,23.1-63.4,33.7c-42.6,25-50.4,34.5-70.1,45.9c-62.3,35.8-155.9,39.2-204.9-4
			c-18.3-16.1-31.6-39.9-25.6-48.5c8.2-11.8,44.7,15,78.2-1.4c22.2-10.9,18-28.4,43.7-49.1c30.9-24.9,52.4-11.9,73.4-28
			c32.8-25.3,17.9-85.8,8.7-187.2C848.8,1847.4,846.5,1788.8,847.4,1730.2z"/>
		
			<linearGradient id="SVGID_47_" gradientUnits="userSpaceOnUse" x1="9277.5391" y1="-312.5208" x2="9404.1826" y2="-312.5208" gradientTransform="matrix(-1 0 0 1 10331.71 2020.62)">
			<stop  offset="0" style="stop-color:#AC7A68"/>
			<stop  offset="1" style="stop-color:#AC7A68"/>
		</linearGradient>
		<path class="st52" d="M971.2,1706.6c-15.6,9.7-40.8,22.3-43.6,25.8s76.4,17,125.7-7.9c0,0,7.6-4.2-22.1-10.2
			c-6.3-1.3-5.1-13.6-4.3-26.3l-5.9-11C1021,1677,986.8,1696.9,971.2,1706.6z"/>
		
			<linearGradient id="SVGID_48_" gradientUnits="userSpaceOnUse" x1="9293.6846" y1="15.6292" x2="9290.9551" y2="-234.2707" gradientTransform="matrix(-1 0 0 1 10331.71 2020.62)">
			<stop  offset="0" style="stop-color:#AC7A68"/>
			<stop  offset="1" style="stop-color:#AC7A68"/>
		</linearGradient>
		<path class="st53" d="M1010.5,1669.5c0,0-6.1,26,16.7,38.8c20.5,11.5,55.1-35.6,48.6-53.1c-2.2-5.8-9.9-13.3-17.9-15.9
			c-5.7-1.8-27.1-1.1-36.3,17c-2.4-5.3-6.7-8-9.6-7.2c-3.7,1.1-4.2,7.8-4.3,9.3C1007.5,1662.3,1008.5,1666.1,1010.5,1669.5z"/>
		
			<linearGradient id="SVGID_49_" gradientUnits="userSpaceOnUse" x1="-1309.3777" y1="71.1792" x2="-950.2276" y2="-251.7307" gradientTransform="matrix(1 0 0 1 2145.6899 2020.62)">
			<stop  offset="0" style="stop-color:#829A77"/>
			<stop  offset="1" style="stop-color:#829A77"/>
		</linearGradient>
		<path class="st54" d="M1046,2085.7c-23.6,9.8-26.7,30.9-59.3,42.8c-31.1,11.4-41.5-2.9-72.5,6.6c-46.6,14.2-64.3,59.2-71.4,54.9
			c-6.5-3.9-0.3-46.9,29.7-74.7c34.4-32,71.4-17.3,93.4-50.5c8.6-12.9,15.2-33.6,7.7-49.4c-10.1-21.5-36.5-14.1-50.5-31.9
			c-25.2-32,33.7-89.6,17.6-138.4c-6.4-19.4-26.9-43.8-93-60.2c0.9,48.9,3.7,89.7,6.5,120.7c9.2,101.4,24.1,161.9-8.7,187.2
			c-21,16.2-42.5,3.1-73.4,28c-25.7,20.7-21.4,38.2-43.7,49.1c-33.5,16.4-70-10.5-78.2,1.4c-6,8.7,7.3,32.4,25.6,48.5
			c49,43.3,142.6,39.8,204.9,4c19.7-11.3,27.6-20.9,70.1-45.9c18.2-10.7,39.8-23.4,63.4-33.7c57.1-25,105.7-27.4,130.6-33.1
			C1095.3,2078.3,1065.1,2077.8,1046,2085.7z"/>
		
			<linearGradient id="SVGID_50_" gradientUnits="userSpaceOnUse" x1="-1190.9336" y1="122.48" x2="-864.2899" y2="122.48" gradientTransform="matrix(1 0 0 1 2145.6899 2020.62)">
			<stop  offset="0" style="stop-color:#444B8C"/>
			<stop  offset="1" style="stop-color:#26264F"/>
		</linearGradient>
		<path class="st55" d="M1273.4,2118.8l-298.9,14.5c-4.1,0.2-7.8,2.4-10,5.9l-8.3,13.3c-2.8,4.6-1.4,10.5,3.1,13.4
			c1.6,1,3.6,1.5,5.5,1.5l316.6-12.1L1273.4,2118.8z"/>
		
			<linearGradient id="SVGID_51_" gradientUnits="userSpaceOnUse" x1="-1035.6899" y1="36.6799" x2="-587.2781" y2="36.6799" gradientTransform="matrix(1 0 0 1 2145.6899 2020.62)">
			<stop  offset="0" style="stop-color:#444B8C"/>
			<stop  offset="1" style="stop-color:#26264F"/>
		</linearGradient>
		<path class="st56" d="M1547.7,1953.7l-308.8,6c-9.1,0.2-17.5,5.2-22,13.1L1110,2160.9l326.1-13c9-0.4,17.1-5.2,21.7-12.9
			l99.1-165.5c3-5,1.4-11.4-3.6-14.3C1551.6,1954.2,1549.7,1953.7,1547.7,1953.7z"/>
		
			<linearGradient id="SVGID_52_" gradientUnits="userSpaceOnUse" x1="6784.2026" y1="-82.2826" x2="6998.3726" y2="130.1774" gradientTransform="matrix(-1 0 0 1 8237.96 2020.62)">
			<stop  offset="0" style="stop-color:#444B8C"/>
			<stop  offset="1" style="stop-color:#26264F"/>
		</linearGradient>
		<path class="st57" d="M1216.9,1972.8c4.5-7.9,12.9-12.9,22-13.1l6.8-0.1c1,10,4.1,19.1,10.2,26.4c19,23,50.7,8.8,74.2,33.1
			c25.9,26.7,2,58.5,25.1,83.4c24.4,26.2,63.8,4.9,109.1,21.6l-6.5,10.9c-4.6,7.7-12.8,12.5-21.7,12.9l-326.1,13L1216.9,1972.8z"/>
		
			<linearGradient id="SVGID_53_" gradientUnits="userSpaceOnUse" x1="-1172.3186" y1="55.6786" x2="-1446.5986" y2="-214.2113" gradientTransform="matrix(1 0 0 1 2145.6899 2020.62)">
			<stop  offset="0" style="stop-color:#425A4D"/>
			<stop  offset="1" style="stop-color:#425A4D"/>
		</linearGradient>
		<path class="st58" d="M1023.5,2119c3.3-8.9,6.7-17.8,10.1-26.7c-37.2-10.2-88.7-25.3-141.5-44.1c-13-4.7-17.8-10.7-21.3-15.3
			c-27.1-35.9,41.8-99.2,40.6-181.4c-0.8-57-35.4-122.1-65.8-122.9c-61.9-1.5-198.3,261-83.4,373
			C819.1,2157.2,925.7,2163.6,1023.5,2119z"/>
		
			<linearGradient id="SVGID_54_" gradientUnits="userSpaceOnUse" x1="1395.2034" y1="22.9336" x2="1483.9135" y2="85.0237" gradientTransform="matrix(1 0 0 1 -429.07 2020.62)">
			<stop  offset="0" style="stop-color:#AC7A68"/>
			<stop  offset="1" style="stop-color:#AC7A68"/>
		</linearGradient>
		<path class="st59" d="M1033.6,2092.3c23.4-12.4,51.3,0.3,53.1,1.2c7.5,3.6,14.4,8.5,20.2,14.4c0.8,1.2,11,15.2,7.3,19.7
			c-3,3.6-14.4,0.6-28.2-7.9c-8.2-1.2-16.4-1.4-24.7-0.6c-18.9,1.8-27.6,7.7-34.4,2.6c-5-3.8-6.7-11.8-4.9-17.7
			C1023.8,2097.6,1029.6,2094.4,1033.6,2092.3z"/>
	</g>
</g>
</svg>
