<?xml version="1.0" encoding="utf-8"?>
<!-- Generator: Adobe Illustrator 24.0.0, SVG Export Plug-In . SVG Version: 6.00 Build 0)  -->
<svg version="1.1" id="Camada_1" xmlns="http://www.w3.org/2000/svg" xmlns:xlink="http://www.w3.org/1999/xlink" x="0px" y="0px"
	 viewBox="0 0 290 331" style="enable-background:new 0 0 290 331;" xml:space="preserve">
<style type="text/css">
	.st0{fill:#1B1B1B;}
	.st1{fill:#039200;}
</style>
<path class="st0" d="M30,0h126c16.6,0,30,13.4,30,30v271c0,16.6-13.4,30-30,30H30c-16.6,0-30-13.4-30-30V30C0,13.4,13.4,0,30,0z"/>
<path class="st0" d="M129,0h121c16.6,0,30,13.4,30,30v75c0,16.6-13.4,30-30,30H129c-16.6,0-30-13.4-30-30V30C99,13.4,112.4,0,129,0z
	"/>
<ellipse class="st0" cx="150.5" cy="202.5" rx="116.5" ry="82.5"/>
<path class="st1" d="M277.3,202.2c0,14-2.2,27.1-6.6,39.4c-4.4,12.3-10.7,23-18.8,32.1c-8.1,9.1-17.8,16.3-29.1,21.5
	c-11.3,5.3-24,7.9-37.8,7.9h-67.1c-14,0-26.7-2.6-38.1-7.9s-21.2-12.4-29.4-21.5c-8.1-9.1-14.3-19.8-18.7-32.1
	c-4.4-12.3-6.6-25.4-6.6-39.4c0-13.9,2.2-26.9,6.6-39.1c4.4-12.3,10.6-23,18.7-32.1c8.2-9.2,18-16.4,29.4-21.7
	c11.4-5.3,24.1-8,38.1-8H185c13.9,0,26.5,2.7,37.8,8c11.3,5.3,21,12.5,29.1,21.7c8.2,9.1,14.4,19.8,18.8,32.1
	C275.1,175.3,277.3,188.3,277.3,202.2z M248.5,202.2c0-9.9-1.5-19.3-4.4-28c-2.9-8.7-7.1-16.3-12.7-22.8c-5.4-6.6-12.1-11.7-20-15.5
	c-7.8-3.8-16.6-5.8-26.6-5.8h-67.1c-9.9,0-18.9,1.9-26.9,5.8c-7.9,3.8-14.6,8.9-20.1,15.5c-5.4,6.5-9.7,14.1-12.7,22.8
	c-2.9,8.7-4.4,18-4.4,28c0,9.9,1.5,19.3,4.4,28.1c3,8.7,7.2,16.4,12.7,22.9c5.5,6.5,12.2,11.6,20.1,15.3c8,3.8,16.9,5.6,26.9,5.6
	H185c9.9,0,18.8-1.9,26.6-5.6c7.9-3.8,14.5-8.9,20-15.3c5.5-6.6,9.8-14.2,12.7-22.9C247.1,221.5,248.5,212.1,248.5,202.2z"/>
</svg>
