<?xml version="1.0" encoding="utf-8"?>
<!-- Generator: Adobe Illustrator 24.0.0, SVG Export Plug-In . SVG Version: 6.00 Build 0)  -->
<svg version="1.1" id="Camada_1" xmlns="http://www.w3.org/2000/svg" xmlns:xlink="http://www.w3.org/1999/xlink" x="0px" y="0px"
	 viewBox="0 0 2441 631" style="enable-background:new 0 0 2441 631;" xml:space="preserve">
<style type="text/css">
	.st0{fill:#E2E2E2;}
	.st1{fill:#FFFFFF;}
	.st2{fill:#039200;}
	.st3{fill:#1B1B1B;}
</style>
<path class="st0" d="M400.4,504.7c0-14.6,2.2-27,6.6-37.3c4.5-10.3,11.2-18.7,20-25.2c8.8-6.6,19.8-11.3,32.9-14.3
	c13.2-3,28.5-4.5,46-4.5c12.2,0,24,1.1,35.4,3.4c11.4,2.2,23.1,5.7,34.9,10.5c1.5,0.7,2.6,1.5,3.2,2.5c0.7,0.9,1,1.9,1,2.8
	c0,1.1-0.4,2.1-1.3,3c-0.8,0.8-1.9,1.3-3.2,1.3c-0.4,0-1.3-0.2-2.7-0.7c-10.8-4.5-21.9-7.9-33.5-10.1c-11.5-2.3-22.8-3.4-33.9-3.4
	c-16.7,0-30.9,1.4-42.8,4.2c-11.8,2.7-21.5,7-29.1,12.9c-7.5,5.8-13,13.3-16.5,22.4c-3.5,9-5.2,19.8-5.2,32.5s1.7,23.5,5.2,32.6
	c3.5,9,9,16.5,16.5,22.4c7.6,5.8,17.3,10.1,29.1,12.9c11.8,2.7,26.1,4.1,42.8,4.1c11.1,0,22.4-1.1,33.9-3.4
	c11.5-2.3,22.7-5.6,33.5-10.1c0.8-0.4,1.6-0.6,2.5-0.6c1.4,0,2.5,0.4,3.4,1.3c0.9,0.8,1.4,1.8,1.4,3c0,0.9-0.3,1.9-1,2.8
	c-0.7,0.9-1.8,1.7-3.4,2.4c-11.9,4.9-23.6,8.4-35,10.7c-11.3,2.2-23.1,3.2-35.3,3.2c-17.4,0-32.8-1.5-46-4.5
	c-13.1-3-24.1-7.7-32.9-14.2c-8.8-6.6-15.5-15-20-25.2C402.6,531.8,400.4,519.3,400.4,504.7z M740.1,584.4
	c-12.9,0-23.9-1.3-32.8-3.8c-8.9-2.6-16.1-6.3-21.7-11.1c-5.4-4.8-9.4-10.6-11.8-17.4c-2.4-6.8-3.7-14.6-3.7-23.2
	c0-9.9,1.4-18.4,4.1-25.5c2.8-7.1,7.1-13,12.8-17.6c5.8-4.6,13.1-8,21.8-10.1c8.8-2.2,19.2-3.2,31.2-3.2s22.4,1.1,31.1,3.2
	c8.8,2.2,16.1,5.5,21.8,10.1c5.8,4.6,10.1,10.5,12.8,17.6c2.8,7,4.2,15.5,4.2,25.5c0,8.6-1.2,16.4-3.7,23.2
	c-2.4,6.8-6.4,12.7-12,17.4c-5.4,4.8-12.6,8.5-21.5,11.1C764,583.1,753,584.4,740.1,584.4z M740.1,576.1c8.5,0,15.9-0.6,22.1-1.8
	c6.2-1.3,11.4-3.1,15.8-5.3c4.4-2.3,7.9-4.9,10.5-7.9c2.7-3,4.8-6.2,6.3-9.7c1.6-3.6,2.6-7.2,3.1-11c0.6-3.8,0.8-7.7,0.8-11.5
	c0-8.7-1.1-16.1-3.4-22.2c-2.3-6.1-5.8-11.1-10.5-14.9c-4.8-3.8-10.9-6.6-18.3-8.3c-7.4-1.8-16.2-2.7-26.4-2.7
	c-10.3,0-19.2,0.9-26.6,2.7c-7.3,1.7-13.4,4.5-18.1,8.3c-4.8,3.8-8.3,8.8-10.5,14.9c-2.3,6.1-3.4,13.5-3.4,22.2
	c0,3.8,0.2,7.7,0.7,11.5c0.6,3.8,1.6,7.4,3.1,11c1.6,3.5,3.7,6.7,6.3,9.7c2.7,3,6.2,5.6,10.5,7.9c4.4,2.3,9.7,4,15.9,5.3
	C724.2,575.5,731.6,576.1,740.1,576.1z M1089.4,514.2c0-6.5-0.6-11.9-1.7-16.2c-1-4.3-2.7-7.7-4.9-10.3c-2.2-2.6-4.9-4.5-8.2-5.5
	c-3.3-1-7.2-1.5-11.7-1.5c-12,0-22,2.4-29.9,7.3c-7.9,4.9-14.4,11.6-19.7,20.1v67.5c0,1.7-0.2,3-0.6,3.9c-0.3,0.9-0.7,1.7-1.3,2.3
	c-0.6,0.5-1.2,0.8-1.8,1c-0.6,0.1-1.1,0.1-1.7,0.1c-0.7,0-1.4,0-2.1-0.1c-0.7-0.1-1.3-0.4-1.8-0.8c-0.6-0.5-1-1.2-1.4-2.1
	c-0.4-1-0.6-2.4-0.6-4.2v-67.5c0-8.5-2-15.2-6-20.1c-3.9-4.9-10.3-7.3-19.1-7.3c-6.7,0-12.8,0.8-18.6,2.3s-10.8,3.5-15.3,6
	c-4.4,2.5-8.1,5.5-11.1,9c-3,3.4-5.1,6.9-6.2,10.7v66.9c0,3.3-0.6,5.3-1.7,6.2c-1,0.8-2.1,1.1-3.2,1.1c-0.7,0-1.4,0-2.1-0.1
	c-0.8-0.1-1.5-0.4-2.1-0.8c-0.6-0.5-1.1-1.2-1.5-2.1c-0.4-1-0.6-2.4-0.6-4.2v-93.5c0-3,0.6-4.9,1.8-5.6c1.2-0.8,2.5-1.3,3.9-1.3
	c1.6,0,2.9,0.4,3.8,1.3c1,0.8,1.5,2.6,1.5,5.6v17.3c1.5-4.2,3.8-8,7-11.4c3.3-3.4,7.1-6.2,11.5-8.4c4.5-2.3,9.5-4.1,15-5.3
	c5.5-1.2,11.3-1.8,17.4-1.8c7.1,0,12.8,1,17.2,3c4.4,1.9,7.8,4.2,10.3,7c2.4,2.7,4.1,5.6,5.1,8.6c1,3,1.8,5.6,2.3,7.7
	c1.7-2.9,3.9-5.9,6.8-9c2.9-3.1,6.4-5.9,10.5-8.4c4.2-2.6,9.1-4.7,14.8-6.3c5.6-1.7,12-2.5,19.3-2.5c12.9,0,22.5,3.3,28.7,10
	c6.2,6.6,9.3,17.2,9.3,31.8v61.5c0,1.7-0.2,3-0.6,3.9c-0.4,0.9-0.8,1.7-1.4,2.3c-0.5,0.5-1,0.8-1.7,1c-0.7,0.1-1.3,0.1-1.8,0.1
	c-0.8,0-1.5,0-2.1-0.1c-0.7-0.1-1.3-0.4-1.8-0.8c-0.6-0.5-1-1.2-1.4-2.1c-0.3-1-0.4-2.4-0.4-4.2V514.2z M1283,472.5
	c8.4,0,16.4,0.9,23.9,2.7c7.6,1.7,14.2,4.6,19.8,8.9c5.7,4.2,10.2,9.8,13.5,16.9c3.4,7,5.1,15.8,5.1,26.4c0,10.5-1.4,19.4-4.2,26.7
	c-2.7,7.2-6.8,13.1-12.1,17.6c-5.3,4.5-11.8,7.8-19.5,9.8c-7.7,2-16.5,3-26.4,3c-7.6,0-14.6-0.5-20.9-1.4
	c-6.4-0.9-12.2-2.1-17.4-3.5c-5.2-1.5-9.8-3.1-13.9-4.9c-4.1-1.8-7.8-3.5-11-5.2l-0.3,51.2c0,1.2,0,2.4-0.1,3.5
	c0,1.2-0.2,2.3-0.6,3.2c-0.4,0.9-0.9,1.7-1.7,2.3c-0.7,0.6-1.7,0.8-3.1,0.8c-1.4,0-2.5-0.3-3.2-1c-0.7-0.6-1.2-1.4-1.5-2.4
	c-0.4-0.9-0.6-2.1-0.7-3.4c0-1.2,0-2.5,0-3.9V482.2c0-3,0.6-4.9,1.7-5.6c1.1-0.8,2.3-1.3,3.7-1.3c1.6,0,2.9,0.4,3.8,1.3
	c0.9,0.8,1.4,2.6,1.4,5.6v18.6c1.1-3.9,3-7.4,5.8-10.3c2.7-3,5.9-5.5,9.6-7.6c3.7-2.2,7.6-3.9,11.8-5.2c4.3-1.4,8.6-2.5,12.9-3.2
	c4.4-0.8,8.7-1.3,12.8-1.5C1276,472.6,1279.7,472.5,1283,472.5z M1283,480.8c-5.6,0.1-11.8,0.6-18.4,1.4c-6.7,0.8-13,2.2-19.1,4.2
	c-6.1,2.1-11.5,4.9-16.2,8.6c-4.7,3.7-7.9,8.4-9.6,14.3v54c4,1.5,8.3,3,12.9,4.6c4.7,1.5,9.7,2.9,14.9,4.1s10.8,2.2,16.7,3
	c5.9,0.8,12.1,1.1,18.7,1.1c9,0,16.7-0.9,23.1-2.8c6.5-1.9,11.8-4.8,15.9-8.7c4.2-4,7.3-9.1,9.1-15.2c2-6.2,3-13.5,3-22.1
	c0-8.8-1.4-16.2-4.1-22.2c-2.6-6-6.2-10.8-10.8-14.3s-10-6.1-16.3-7.6C1296.6,481.6,1290,480.8,1283,480.8z M1457.6,551.5
	c0,4.5,1.1,8.3,3.4,11.4c2.3,3.1,5.6,5.6,9.7,7.6c4.1,2,9,3.4,14.6,4.4c5.7,0.8,12,1.3,18.7,1.3c8.3,0,15.6-0.6,21.9-1.7
	c6.4-1.2,12-2.7,16.7-4.5c4.8-1.8,8.8-3.7,12.1-5.8c3.3-2.2,6-4.2,8.2-6.2v-28.3c-9.4-1.3-19.1-2.5-29.1-3.7
	c-10-1.2-20.2-1.8-30.4-1.8c-7.2,0-13.7,0.4-19.4,1.3c-5.6,0.8-10.4,2.3-14.3,4.4c-3.9,2.1-6.9,4.9-9,8.4
	C1458.7,541.8,1457.6,546.2,1457.6,551.5z M1517.4,480.8c-9,0-16.7,0.2-23.1,0.7c-6.4,0.5-11.9,1.1-16.4,1.8
	c-4.5,0.8-8.3,1.5-11.4,2.4c-3.1,0.8-5.8,1.7-8.2,2.5c-1.1,0-2.2-0.6-3.1-1.7c-0.9-1.1-1.4-2.3-1.4-3.7c0-1.2,0.6-2.1,1.7-2.7
	c0.8-0.4,2.5-1,5.2-1.8c2.8-0.8,6.7-1.7,11.7-2.5c5.1-0.9,11.3-1.7,18.7-2.4c7.5-0.7,16.3-1,26.4-1c4.8,0,9.5,0.3,14.2,1
	c4.7,0.6,9.1,1.6,13.2,3.2c4.2,1.6,8.1,3.8,11.7,6.6c3.7,2.8,6.8,6.5,9.3,11c2.6,4.4,4.7,9.8,6.2,16.2c1.5,6.3,2.3,13.7,2.3,22.2
	v40.5c0,1.1,0,2.3-0.1,3.4c-0.1,1.1-0.4,2.2-0.8,3.2c-0.4,0.9-0.9,1.7-1.7,2.4c-0.8,0.6-1.8,0.8-3.1,0.8c-2.2,0-3.7-1-4.5-3
	c-0.8-2-1.1-4.5-1.1-7.5v-9.7c-1.9,2.3-4.3,4.8-7.3,7.3s-6.8,4.9-11.4,7c-4.6,2.1-10.1,3.8-16.4,5.2c-6.4,1.3-13.9,2-22.6,2
	c-8.2,0-15.8-0.6-23.1-1.8c-7.1-1.2-13.4-3.1-18.7-5.8c-5.3-2.6-9.4-6-12.5-10.1c-3-4.2-4.5-9.3-4.5-15.2c0-6.8,1.4-12.5,4.2-17
	c2.9-4.6,6.9-8.3,12-11c5.1-2.8,11-4.8,17.7-5.9c6.8-1.1,14.2-1.7,22.1-1.7c5.9,0,11.8,0.2,17.7,0.7c6,0.4,11.7,1,17,1.8
	c5.3,0.8,10.2,1.7,14.6,3c4.5,1.1,8.3,2.5,11.3,4.1c0-9.6-1.3-17.3-3.8-23.1c-2.5-5.8-5.9-10.3-10.1-13.5c-4.2-3.3-9.1-5.4-14.6-6.5
	C1529,481.3,1523.3,480.8,1517.4,480.8z M1806.9,572.9c0,1.2-0.1,2.4-0.3,3.7c-0.2,1.2-0.5,2.3-1,3.2c-0.4,0.9-0.9,1.7-1.7,2.4
	c-0.8,0.6-1.7,0.8-2.8,0.8c-1.4,0-2.5-0.3-3.2-0.8c-0.7-0.7-1.2-1.5-1.5-2.4c-0.4-0.9-0.6-2-0.7-3.2c0-1.2,0-2.4,0-3.7v-48.7
	c0-7.3-0.6-13.7-1.7-19.1c-1-5.4-3.1-9.9-6.3-13.5c-3.1-3.7-7.5-6.4-13.1-8.2c-5.5-1.8-12.8-2.7-21.8-2.7c-5.5,0-11.4,0.5-17.6,1.4
	c-6.2,0.8-12.1,2.4-17.7,4.6c-5.6,2.2-10.6,5.1-14.9,8.7c-4.3,3.7-7.3,8.3-9,13.8v63.6c0,1.2,0,2.4-0.1,3.7
	c-0.1,1.2-0.3,2.3-0.7,3.2c-0.4,0.9-0.9,1.7-1.7,2.4c-0.7,0.6-1.6,0.8-2.7,0.8c-1.3,0-2.4-0.3-3.2-0.8c-0.8-0.7-1.4-1.5-1.8-2.4
	c-0.4-0.9-0.7-2-0.8-3.2c-0.1-1.2-0.1-2.4-0.1-3.7v-91.1c0-1.6,0.3-3,1-4.4c0.7-1.4,2.3-2.1,4.9-2.1c2.3,0,3.8,0.7,4.4,2
	c0.7,1.2,1,2.7,1,4.5v17.7c2.6-6,6.3-10.8,11-14.3c4.7-3.7,9.8-6.4,15.3-8.2c5.6-1.9,11.3-3.1,17-3.7c5.8-0.6,11.1-0.8,15.9-0.8
	c10.1,0,18.6,0.9,25.4,2.7c6.9,1.7,12.5,4.5,16.7,8.6c4.3,4,7.4,9.4,9.1,16c1.9,6.6,2.8,14.7,2.8,24.5V572.9z M1974.9,621.7
	c9.7,0,17.7-1.1,24.2-3.2c6.5-2.1,11.6-5.5,15.5-10.4c3.9-4.8,6.7-11.2,8.3-19.3c1.7-8,2.5-17.9,2.5-29.7c-1,3.8-2.7,7.1-5.1,9.8
	c-2.3,2.7-5.2,5-8.4,6.9c-3.2,1.9-6.7,3.4-10.6,4.5c-3.8,1.1-7.6,2-11.5,2.7c-3.9,0.6-7.8,0.9-11.7,1.1c-3.8,0.2-7.2,0.3-10.4,0.3
	c-10.1,0-18.7-0.9-25.6-2.7c-6.9-1.9-12.6-5-16.9-9.3c-4.3-4.4-7.5-10.2-9.4-17.3c-1.9-7.1-2.8-16-2.8-26.6v-43.2
	c0-1.2,0-2.4,0.1-3.7c0.1-1.2,0.3-2.3,0.7-3.2c0.4-0.9,0.9-1.7,1.5-2.3c0.8-0.7,1.8-1,3.1-1c1.4,0,2.5,0.3,3.2,1
	c0.8,0.6,1.3,1.3,1.7,2.3c0.4,0.9,0.6,2,0.7,3.2c0.1,1.2,0.1,2.4,0.1,3.7v43.2c0,9.2,0.6,16.8,1.7,22.9c1.2,6.1,3.4,11,6.6,14.6
	c3.2,3.7,7.6,6.2,13.2,7.7c5.7,1.5,13,2.3,21.9,2.3c5.3,0,11.1-0.4,17.2-1.1c6.1-0.8,11.9-2.1,17.3-4.1c5.5-2,10.4-4.7,14.5-8.2
	c4.2-3.5,7.1-8,8.7-13.5v-63.8c0-1.2,0-2.4,0.1-3.7c0.2-1.2,0.5-2.3,0.8-3.2c0.4-0.9,0.9-1.7,1.5-2.3c0.8-0.7,1.7-1,2.8-1
	c1.4,0,2.5,0.3,3.2,1c0.8,0.6,1.3,1.3,1.7,2.3c0.5,0.9,0.8,2,0.8,3.2c0.1,1.2,0.1,2.4,0.1,3.7v69c0,14.4-1.2,26.5-3.5,36.1
	c-2.3,9.7-5.9,17.4-10.8,23.2c-5,5.9-11.3,10.1-19.1,12.5c-7.8,2.4-17.2,3.7-28.3,3.7c-7.9,0-14.5-0.4-20-1.3
	c-5.3-0.8-9.9-1.9-13.6-3.2c-3.6-1.2-6.7-2.6-9.1-4.2c-2.4-1.6-4.6-3.1-6.3-4.5c-0.8-0.8-1.1-1.6-1.1-2.7c0-1.3,0.3-2.4,1-3.4
	c0.8-0.8,1.9-1.3,3.4-1.3c0.8,0,1.5,0.3,2.4,0.8c1.8,1.3,3.8,2.6,6.2,3.9c2.4,1.4,5.3,2.6,8.7,3.7c3.5,1.1,7.5,2,12.1,2.7
	C1963.2,621.3,1968.7,621.7,1974.9,621.7z"/>
<path class="st1" d="M407,467.4l-1.4-0.6l0,0L407,467.4z M427,442.2l0.9,1.2l0,0L427,442.2z M459.9,427.9l-0.3-1.5h0L459.9,427.9z
	 M541.3,426.8l-0.3,1.5l0,0L541.3,426.8z M576.2,437.3l0.6-1.4l0,0l0,0L576.2,437.3z M579.4,439.8l-1.3,0.8l0,0l0,0L579.4,439.8z
	 M573.2,446.2l-0.6,1.4l0.1,0l0.1,0L573.2,446.2z M463.1,436.9l0.3,1.5l0,0L463.1,436.9z M434,449.8l0.9,1.2l0,0L434,449.8z
	 M417.5,472.2l1.4,0.5l0,0L417.5,472.2z M417.5,537.3l-1.4,0.5l0,0L417.5,537.3z M434,559.7l-0.9,1.2l0,0l0,0L434,559.7z
	 M463.1,572.6l-0.3,1.5l0,0L463.1,572.6z M573.2,563.2l0.6,1.4l0,0l0,0L573.2,563.2z M579.1,563.9l-1.1,1.1l0,0l0,0L579.1,563.9z
	 M576.2,572l0.6,1.4l0,0L576.2,572z M541.1,582.7l0.3,1.5l0,0L541.1,582.7z M459.9,581.5l-0.3,1.5l0,0L459.9,581.5z M427,567.3
	l-0.9,1.2l0,0L427,567.3z M407,542.1l-1.4,0.6l0,0l0,0L407,542.1z M401.9,504.7c0-14.5,2.2-26.7,6.5-36.7l-2.8-1.2
	c-4.5,10.5-6.7,23.1-6.7,37.9H401.9z M408.4,468c4.4-10.1,10.9-18.3,19.5-24.6l-1.8-2.4c-9,6.6-15.9,15.2-20.5,25.8L408.4,468z
	 M427.9,443.4c8.6-6.4,19.4-11.1,32.3-14.1l-0.7-2.9c-13.3,3-24.5,7.9-33.5,14.6L427.9,443.4z M460.2,429.4
	c13.1-3,28.3-4.5,45.7-4.5v-3c-17.5,0-33,1.5-46.3,4.5L460.2,429.4z M505.9,424.9c12.1,0,23.8,1.1,35.1,3.3l0.6-2.9
	c-11.5-2.3-23.4-3.4-35.7-3.4V424.9z M541,428.2c11.3,2.1,22.9,5.6,34.6,10.5l1.1-2.8c-11.9-4.9-23.6-8.5-35.2-10.6L541,428.2z
	 M575.6,438.7c1.3,0.6,2.1,1.3,2.6,2l2.5-1.6c-0.9-1.4-2.2-2.4-3.9-3.1L575.6,438.7z M578.2,440.7c0.5,0.7,0.7,1.4,0.7,2h3
	c0-1.3-0.5-2.5-1.3-3.7L578.2,440.7z M578.9,442.7c0,0.7-0.2,1.3-0.8,1.9l2.1,2.1c1.1-1.1,1.7-2.5,1.7-4H578.9z M578.1,444.5
	c-0.5,0.5-1.2,0.8-2.2,0.8v3c1.7,0,3.1-0.5,4.3-1.7L578.1,444.5z M575.9,445.4c0,0-0.1,0-0.6-0.1c-0.4-0.1-0.9-0.3-1.6-0.5l-0.9,2.8
	c0.7,0.2,1.3,0.4,1.8,0.6c0.4,0.1,0.9,0.2,1.3,0.2V445.4z M573.8,444.8c-10.9-4.5-22.1-7.9-33.8-10.2l-0.6,2.9
	c11.4,2.2,22.5,5.6,33.2,10L573.8,444.8z M540,434.6c-11.6-2.3-23-3.4-34.2-3.4v3c11,0,22.2,1.1,33.6,3.3L540,434.6z M505.9,431.2
	c-16.8,0-31.1,1.4-43.1,4.3l0.7,2.9c11.7-2.8,25.8-4.2,42.4-4.2V431.2z M462.8,435.4c-12,2.8-21.9,7.1-29.7,13.2l1.8,2.4
	c7.4-5.7,16.9-10,28.5-12.7L462.8,435.4z M433.1,448.6c-7.7,6-13.4,13.7-16.9,23l2.8,1.1c3.4-8.8,8.7-16.1,16-21.7L433.1,448.6z
	 M416.1,471.6c-3.6,9.2-5.3,20.2-5.3,33h3c0-12.5,1.7-23.2,5.1-31.9L416.1,471.6z M410.8,504.7c0,12.8,1.8,23.9,5.3,33.2l2.8-1.1
	c-3.4-8.9-5.1-19.6-5.1-32.1H410.8z M416.1,537.8c3.6,9.2,9.2,16.9,16.9,23l1.9-2.4c-7.3-5.7-12.6-13-16-21.7L416.1,537.8z
	 M433.1,560.8c7.8,6,17.7,10.4,29.7,13.2l0.7-2.9c-11.7-2.8-21.2-7-28.5-12.7L433.1,560.8z M462.8,574.1c12,2.8,26.3,4.1,43.1,4.1
	v-3c-16.6,0-30.7-1.4-42.4-4L462.8,574.1z M505.9,578.2c11.2,0,22.6-1.1,34.2-3.4l-0.6-2.9c-11.4,2.2-22.6,3.3-33.6,3.3V578.2z
	 M540,574.8c11.6-2.3,22.9-5.7,33.8-10.2l-1.2-2.8c-10.7,4.5-21.7,7.8-33.2,10L540,574.8z M573.9,564.5c0.5-0.3,1.1-0.4,1.9-0.4v-3
	c-1.1,0-2.2,0.2-3.2,0.7L573.9,564.5z M575.7,564.1c1.1,0,1.8,0.3,2.3,0.8l2.1-2.1c-1.2-1.2-2.7-1.7-4.4-1.7V564.1z M578.1,565
	c0.7,0.6,0.9,1.2,0.9,1.8h3c0-1.6-0.7-3-1.9-4.1L578.1,565z M579,566.8c0,0.6-0.2,1.2-0.7,2l2.5,1.7c0.8-1.1,1.3-2.4,1.3-3.7H579z
	 M578.3,568.8c-0.4,0.6-1.3,1.3-2.7,1.9l1.1,2.8c1.7-0.7,3.1-1.7,4-2.9L578.3,568.8z M575.6,570.6c-11.8,4.8-23.4,8.4-34.7,10.6
	l0.6,2.9c11.5-2.3,23.3-5.9,35.3-10.8L575.6,570.6z M540.9,581.2c-11.2,2.1-22.9,3.2-35,3.2v3c12.3,0,24.1-1.1,35.6-3.3L540.9,581.2
	z M505.9,584.5c-17.4,0-32.6-1.5-45.7-4.5l-0.7,2.9c13.4,3,28.8,4.5,46.3,4.5V584.5z M460.2,580c-13-3-23.7-7.6-32.4-14l-1.8,2.4
	c9,6.6,20.2,11.4,33.5,14.5L460.2,580z M427.9,566c-8.6-6.4-15.1-14.6-19.5-24.6l-2.7,1.2c4.6,10.5,11.4,19,20.4,25.8L427.9,566z
	 M408.4,541.5c-4.3-10.1-6.5-22.3-6.5-36.8h-3c0,14.8,2.2,27.4,6.7,38L408.4,541.5z M707.3,580.6l-0.4,1.4l0,0l0,0L707.3,580.6z
	 M685.7,569.5l-1,1.1l0,0L685.7,569.5z M674.3,503.4l-1.4-0.6l0,0L674.3,503.4z M687.1,485.8l-0.9-1.2l0,0L687.1,485.8z
	 M708.9,475.7l-0.4-1.5l0,0L708.9,475.7z M771.2,475.7l-0.4,1.5l0,0L771.2,475.7z M793,485.8L792,487l0,0L793,485.8z M805.8,503.4
	l-1.4,0.5l0,0l0,0L805.8,503.4z M794.4,569.5l-1-1.1l0,0L794.4,569.5z M772.9,580.6l0.4,1.4l0,0l0,0L772.9,580.6z M762.2,574.3
	l0.3,1.5l0,0l0,0L762.2,574.3z M777.9,568.9l-0.7-1.3l0,0L777.9,568.9z M788.5,561.1l-1.1-1l0,0l0,0L788.5,561.1z M794.8,551.4
	l-1.4-0.6l0,0l0,0L794.8,551.4z M797.9,540.4l-1.5-0.2l0,0l0,0L797.9,540.4z M766.5,483.4l-0.4,1.5l0,0l0,0L766.5,483.4z
	 M713.5,483.4l0.3,1.5l0,0L713.5,483.4z M682.2,540.4l-1.5,0.2l0,0l0,0L682.2,540.4z M685.3,551.4l-1.4,0.6l0,0l0,0L685.3,551.4z
	 M691.6,561.1l-1.1,1l0,0l0,0L691.6,561.1z M702.1,568.9l-0.7,1.3l0,0L702.1,568.9z M718,574.3l-0.3,1.5l0,0l0,0L718,574.3z
	 M740.1,582.9c-12.8,0-23.6-1.3-32.4-3.7l-0.8,2.9c9.1,2.6,20.2,3.9,33.2,3.9V582.9z M707.8,579.2c-8.8-2.6-15.8-6.2-21.1-10.8
	l-2,2.3c5.7,5,13.2,8.7,22.2,11.4L707.8,579.2z M686.7,568.4c-5.2-4.6-9-10.2-11.4-16.8l-2.8,1c2.5,7.1,6.6,13.1,12.2,18.1
	L686.7,568.4z M675.3,551.6c-2.4-6.7-3.6-14.2-3.6-22.7h-3c0,8.8,1.2,16.7,3.7,23.7L675.3,551.6z M671.7,528.9
	c0-9.8,1.3-18.1,4-24.9l-2.8-1.1c-2.8,7.2-4.2,15.9-4.2,26H671.7z M675.7,504c2.7-6.9,6.8-12.5,12.3-17l-1.9-2.3
	c-5.9,4.8-10.3,10.8-13.3,18.2L675.7,504z M688,487c5.6-4.4,12.7-7.7,21.2-9.8l-0.7-2.9c-8.9,2.2-16.4,5.7-22.4,10.4L688,487z
	 M709.2,477.2c8.7-2.1,18.9-3.2,30.9-3.2v-3c-12.1,0-22.6,1.1-31.6,3.3L709.2,477.2z M740.1,474c11.9,0,22.1,1.1,30.7,3.2l0.7-2.9
	c-8.9-2.2-19.4-3.3-31.4-3.3V474z M770.8,477.2c8.6,2.1,15.7,5.4,21.2,9.8l1.9-2.3c-5.9-4.8-13.4-8.2-22.4-10.4L770.8,477.2z
	 M792,487c5.6,4.4,9.7,10.1,12.3,16.9l2.8-1.1c-2.8-7.4-7.2-13.5-13.3-18.2L792,487z M804.4,504c2.7,6.8,4.1,15.1,4.1,24.9h3
	c0-10.1-1.4-18.8-4.3-26L804.4,504z M808.5,528.9c0,8.5-1.2,16-3.6,22.7l2.8,1c2.5-7,3.7-14.9,3.7-23.7H808.5z M804.9,551.6
	c-2.3,6.6-6.2,12.2-11.5,16.8l2,2.3c5.7-5,9.9-11,12.4-18.1L804.9,551.6z M793.4,568.4c-5.2,4.6-12.2,8.2-20.9,10.8l0.8,2.9
	c9.1-2.7,16.4-6.5,22.1-11.4L793.4,568.4z M772.5,579.2c-8.7,2.5-19.5,3.7-32.4,3.7v3c13,0,24.1-1.3,33.2-3.9L772.5,579.2z
	 M740.1,577.6c8.6,0,16.1-0.6,22.4-1.9l-0.6-2.9c-6.1,1.2-13.3,1.8-21.8,1.8V577.6z M762.5,575.7c6.3-1.3,11.7-3.2,16.1-5.5
	l-1.4-2.7c-4.2,2.2-9.3,3.9-15.4,5.2L762.5,575.7z M778.6,570.3c4.5-2.3,8.2-5,11-8.2l-2.3-2c-2.5,2.8-5.8,5.3-10.1,7.5L778.6,570.3
	z M789.6,562.1c2.8-3.1,5-6.5,6.6-10.1l-2.8-1.2c-1.4,3.3-3.4,6.4-6.1,9.3L789.6,562.1z M796.2,552c1.7-3.7,2.7-7.5,3.2-11.4l-3-0.4
	c-0.5,3.6-1.4,7.1-3,10.5L796.2,552z M799.4,540.6c0.6-3.9,0.9-7.8,0.9-11.7h-3c0,3.8-0.3,7.5-0.8,11.3L799.4,540.6z M800.2,528.9
	c0-8.8-1.1-16.4-3.5-22.7l-2.8,1c2.2,5.9,3.3,13.1,3.3,21.7H800.2z M796.8,506.1c-2.3-6.3-6-11.5-11-15.6l-1.9,2.3
	c4.6,3.7,7.9,8.4,10.1,14.3L796.8,506.1z M785.8,490.6c-5-4-11.3-6.9-18.9-8.6l-0.7,2.9c7.2,1.6,13.1,4.3,17.7,8L785.8,490.6z
	 M766.9,482c-7.6-1.8-16.5-2.7-26.8-2.7v3c10.1,0,18.8,0.9,26.1,2.6L766.9,482z M740.1,479.3c-10.4,0-19.4,0.9-26.9,2.7l0.7,2.9
	c7.3-1.7,16-2.6,26.2-2.6V479.3z M713.2,482c-7.5,1.7-13.8,4.6-18.7,8.6l1.9,2.3c4.6-3.7,10.4-6.4,17.5-8L713.2,482z M694.4,490.6
	c-5,4-8.7,9.2-11,15.6l2.8,1c2.2-5.9,5.5-10.6,10.1-14.3L694.4,490.6z M683.4,506.1c-2.3,6.3-3.5,13.9-3.5,22.7h3
	c0-8.6,1.1-15.8,3.3-21.7L683.4,506.1z M680,528.9c0,3.9,0.2,7.8,0.7,11.7l3-0.4c-0.5-3.8-0.7-7.6-0.7-11.3H680z M680.7,540.6
	c0.6,3.9,1.6,7.7,3.2,11.3l2.8-1.2c-1.5-3.4-2.4-7-3-10.6L680.7,540.6z M683.9,552c1.7,3.6,3.8,7,6.6,10.1l2.3-2
	c-2.5-2.9-4.6-6-6.1-9.3L683.9,552z M690.5,562.1c2.9,3.2,6.5,5.9,11,8.2l1.4-2.7c-4.2-2.2-7.6-4.7-10.1-7.6L690.5,562.1z
	 M701.5,570.3c4.6,2.3,10,4.1,16.3,5.5l0.6-2.9c-6.1-1.3-11.3-3-15.5-5.2L701.5,570.3z M717.7,575.8c6.3,1.2,13.8,1.9,22.4,1.9v-3
	c-8.5,0-15.7-0.6-21.8-1.8L717.7,575.8z M1087.7,498.1l-1.5,0.3v0l0,0L1087.7,498.1z M1082.8,487.8l-1.2,1l0,0l0,0L1082.8,487.8z
	 M1033,488.1l-0.8-1.3v0L1033,488.1z M1013.3,508.2l-1.3-0.8l-0.2,0.4v0.4H1013.3z M1012.8,579.6l-1.4-0.6l0,0.1l0,0.1L1012.8,579.6
	z M1011.5,581.9l1,1.2l0,0l0,0L1011.5,581.9z M1009.7,582.9l0.3,1.5l0.1,0l0.1,0L1009.7,582.9z M1005.9,582.9l-0.2,1.5l0,0l0,0
	L1005.9,582.9z M1002.6,579.9l-1.4,0.5l0,0l0,0L1002.6,579.9z M996,488.1l-1.2,0.9l0,0l0,0L996,488.1z M943,489.1l-0.7-1.3l0,0
	L943,489.1z M931.9,498.1l1.1,1l0,0l0,0L931.9,498.1z M925.7,508.8l-1.4-0.4l-0.1,0.2v0.2H925.7z M924,581.9l0.9,1.2l0,0l0,0
	L924,581.9z M916.6,582l-1,1.2l0,0l0,0L916.6,582z M915,579.9l-1.4,0.5l0,0.1l0,0.1L915,579.9z M916.3,476.5l0.8,1.3l0,0l0,0
	L916.3,476.5z M924,476.5l-1,1.1l0.1,0.1l0.1,0L924,476.5z M925.6,499.5h-1.5l2.9,0.5L925.6,499.5z M932.6,488.1l-1.1-1l0,0l0,0
	L932.6,488.1z M944.1,479.6l0.7,1.3l0,0L944.1,479.6z M993.8,475.4l-0.6,1.4l0,0l0,0L993.8,475.4z M1004,482.5l-1.1,1l0,0l0,0
	L1004,482.5z M1009.1,491l-1.4,0.4l0,0v0L1009.1,491z M1011.3,498.8l-1.5,0.3l0.8,3.8l1.9-3.3L1011.3,498.8z M1018.1,489.8l-1.1-1
	l0,0l0,0L1018.1,489.8z M1028.6,481.3l0.8,1.3l0,0L1028.6,481.3z M1043.4,475l0.4,1.4l0,0l0,0L1043.4,475z M1091.4,482.5l-1.1,1v0
	L1091.4,482.5z M1097,582.9l0.2,1.5l0.1,0l0.1,0L1097,582.9z M1089.8,579.9l-1.5,0.4l0,0.1l0,0.1L1089.8,579.9z M1090.9,514.2
	c0-6.5-0.6-12.1-1.7-16.6l-2.9,0.8c1.1,4.1,1.6,9.4,1.6,15.8H1090.9z M1089.2,497.7c-1.1-4.5-2.8-8.1-5.3-10.9l-2.2,2
	c2,2.3,3.6,5.5,4.6,9.6L1089.2,497.7z M1083.9,486.8c-2.3-2.9-5.3-4.8-8.9-6l-0.9,2.9c3,0.9,5.5,2.6,7.4,5L1083.9,486.8z
	 M1075.1,480.9c-3.5-1.1-7.5-1.6-12.1-1.6v3c4.4,0,8.1,0.5,11.2,1.5L1075.1,480.9z M1062.9,479.3c-12.2,0-22.5,2.5-30.7,7.5l1.6,2.6
	c7.7-4.7,17.4-7.1,29.2-7.1V479.3z M1032.2,486.8c-8.1,5-14.8,11.9-20.2,20.6l2.6,1.6c5.1-8.3,11.5-14.9,19.2-19.6L1032.2,486.8z
	 M1011.8,508.2v67.5h3v-67.5H1011.8z M1011.8,575.7c0,1.6-0.2,2.7-0.5,3.4l2.8,1.1c0.5-1.2,0.7-2.7,0.7-4.5H1011.8z M1011.3,579.2
	c-0.2,0.8-0.5,1.3-0.9,1.6l2.1,2.1c0.8-0.8,1.3-1.8,1.6-2.9L1011.3,579.2z M1010.5,580.7c-0.4,0.3-0.8,0.6-1.3,0.7l0.8,2.9
	c0.9-0.2,1.7-0.7,2.4-1.3L1010.5,580.7z M1009.4,581.4c-0.5,0.1-1,0.1-1.4,0.1v3c0.6,0,1.3-0.1,1.9-0.2L1009.4,581.4z M1008,581.5
	c-0.6,0-1.2,0-1.9-0.1l-0.4,3c0.8,0.1,1.6,0.2,2.3,0.2V581.5z M1006.1,581.4c-0.4-0.1-0.7-0.2-1.1-0.5l-1.9,2.3
	c0.8,0.6,1.6,1,2.6,1.2L1006.1,581.4z M1005,580.9c-0.3-0.3-0.7-0.7-1-1.5l-2.8,1.1c0.4,1.1,1,2,1.8,2.7L1005,580.9z M1004,579.4
	c-0.3-0.8-0.5-2-0.5-3.7h-3c0,1.9,0.2,3.5,0.7,4.7L1004,579.4z M1003.6,575.7v-67.5h-3v67.5H1003.6z M1003.6,508.2
	c0-8.8-2.1-15.8-6.4-21.1l-2.3,1.9c3.7,4.5,5.7,10.8,5.7,19.2H1003.6z M997.2,487.1c-4.3-5.4-11.2-7.9-20.3-7.9v3
	c8.6,0,14.4,2.4,18,6.8L997.2,487.1z M976.9,479.3c-6.8,0-13.1,0.8-18.9,2.3l0.8,2.9c5.6-1.5,11.6-2.2,18.2-2.2V479.3z M957.9,481.6
	c-5.8,1.5-11.1,3.6-15.7,6.2l1.5,2.6c4.4-2.5,9.4-4.4,15-5.9L957.9,481.6z M942.3,487.8c-4.5,2.6-8.4,5.7-11.5,9.3l2.3,2
	c2.9-3.3,6.4-6.2,10.7-8.7L942.3,487.8z M930.8,497.1c-3.1,3.5-5.3,7.3-6.5,11.3l2.9,0.9c1.1-3.5,3-6.9,5.9-10.1L930.8,497.1z
	 M924.2,508.8v66.9h3v-66.9H924.2z M924.2,575.7c0,1.6-0.1,2.8-0.4,3.6c-0.2,0.9-0.5,1.2-0.7,1.4l1.8,2.4c0.9-0.7,1.5-1.8,1.8-3
	c0.3-1.2,0.5-2.7,0.5-4.4H924.2z M923.1,580.7c-0.8,0.6-1.6,0.8-2.4,0.8v3c1.5,0,2.9-0.5,4.1-1.4L923.1,580.7z M920.8,581.5
	c-0.6,0-1.2,0-1.9-0.1l-0.4,3c0.8,0.1,1.6,0.2,2.3,0.2V581.5z M918.9,581.4c-0.5-0.1-1-0.2-1.4-0.6l-1.7,2.4c0.8,0.6,1.8,1,2.8,1.1
	L918.9,581.4z M917.5,580.9c-0.4-0.3-0.8-0.8-1.2-1.6l-2.7,1.3c0.5,1,1.2,1.9,1.9,2.6L917.5,580.9z M916.4,579.4
	c-0.3-0.8-0.5-2-0.5-3.7h-3c0,1.9,0.2,3.5,0.7,4.7L916.4,579.4z M916,575.7v-93.5h-3v93.5H916z M916,482.2c0-1.4,0.1-2.5,0.4-3.2
	c0.2-0.7,0.5-1,0.7-1.2l-1.6-2.6c-1,0.6-1.6,1.6-2,2.8c-0.4,1.1-0.5,2.5-0.5,4.1H916z M917.1,477.8c1-0.7,2-1,3.1-1v-3
	c-1.7,0-3.3,0.5-4.8,1.5L917.1,477.8z M920.2,476.8c1.3,0,2.2,0.3,2.8,0.9l2-2.2c-1.3-1.2-2.9-1.7-4.8-1.7V476.8z M923.1,477.8
	c0.1,0.1,0.4,0.4,0.6,1.2c0.2,0.8,0.3,1.8,0.3,3.3h3c0-1.6-0.1-2.9-0.4-4.1c-0.3-1.1-0.8-2.1-1.7-2.8L923.1,477.8z M924.1,482.2
	v17.3h3v-17.3H924.1z M927,500c1.4-4,3.7-7.6,6.7-10.9l-2.2-2.1c-3.3,3.5-5.8,7.5-7.4,11.9L927,500z M933.7,489.1
	c3.2-3.3,6.9-6,11.1-8.1l-1.4-2.7c-4.5,2.3-8.5,5.2-11.9,8.7L933.7,489.1z M944.8,481c4.4-2.3,9.3-4,14.7-5.2l-0.6-2.9
	c-5.6,1.2-10.8,3.1-15.4,5.5L944.8,481z M959.5,475.8c5.4-1.2,11.1-1.8,17.1-1.8v-3c-6.2,0-12.1,0.6-17.8,1.9L959.5,475.8z
	 M976.6,474c7,0,12.5,1,16.5,2.8l1.2-2.7c-4.6-2.1-10.5-3.1-17.8-3.1V474z M993.2,476.8c4.3,1.8,7.5,4,9.7,6.6l2.3-2
	c-2.6-3-6.3-5.5-10.8-7.4L993.2,476.8z M1002.9,483.5c2.3,2.6,3.9,5.3,4.8,8l2.9-0.9c-1-3.2-2.8-6.3-5.4-9.1L1002.9,483.5z
	 M1007.7,491.5c1,3,1.8,5.5,2.2,7.6l2.9-0.6c-0.5-2.2-1.3-4.9-2.3-7.9L1007.7,491.5z M1012.6,499.5c1.6-2.8,3.8-5.7,6.6-8.7l-2.2-2
	c-2.9,3.2-5.2,6.2-6.9,9.3L1012.6,499.5z M1019.2,490.8c2.8-3,6.2-5.7,10.2-8.2l-1.6-2.6c-4.2,2.6-7.8,5.5-10.8,8.7L1019.2,490.8z
	 M1029.4,482.6c4.1-2.5,8.9-4.6,14.4-6.2l-0.8-2.9c-5.7,1.6-10.8,3.8-15.1,6.5L1029.4,482.6z M1043.8,476.4
	c5.5-1.6,11.7-2.5,18.8-2.5v-3c-7.3,0-13.9,0.9-19.7,2.6L1043.8,476.4z M1062.7,474c12.7,0,21.8,3.3,27.6,9.5l2.2-2
	c-6.6-7.1-16.6-10.5-29.8-10.5V474z M1090.3,483.5c5.8,6.2,8.9,16.3,8.9,30.8h3c0-14.8-3.1-25.8-9.7-32.8L1090.3,483.5z
	 M1099.1,514.2v61.5h3v-61.5H1099.1z M1099.1,575.7c0,1.6-0.2,2.7-0.5,3.4l2.8,1.1c0.5-1.2,0.7-2.7,0.7-4.5H1099.1z M1098.7,579.1
	c-0.3,0.8-0.7,1.4-1.1,1.7l2.1,2.1c0.7-0.7,1.3-1.7,1.7-2.8L1098.7,579.1z M1097.6,580.8c-0.3,0.3-0.6,0.5-1,0.6l0.8,2.9
	c0.9-0.3,1.7-0.7,2.3-1.4L1097.6,580.8z M1096.8,581.4c-0.6,0.1-1.1,0.1-1.6,0.1v3c0.7,0,1.3-0.1,2-0.2L1096.8,581.4z M1095.2,581.5
	c-0.7,0-1.3,0-1.9-0.1l-0.4,3c0.7,0.1,1.5,0.2,2.3,0.2V581.5z M1093.3,581.4c-0.4-0.1-0.7-0.2-1.1-0.5l-1.9,2.3
	c0.8,0.6,1.6,1,2.6,1.2L1093.3,581.4z M1092.2,580.9c-0.3-0.3-0.7-0.7-1-1.5l-2.8,1.1c0.4,1.1,1,2,1.8,2.7L1092.2,580.9z
	 M1091.3,579.5c-0.2-0.8-0.4-2.1-0.4-3.8h-3c0,1.8,0.1,3.4,0.5,4.6L1091.3,579.5z M1090.9,575.7v-61.5h-3v61.5H1090.9z
	 M1306.9,475.1l-0.3,1.5l0,0l0,0L1306.9,475.1z M1326.7,484l-0.9,1.2l0,0L1326.7,484z M1340.2,500.9l-1.3,0.6v0v0L1340.2,500.9z
	 M1341.1,554l-1.4-0.5l0,0L1341.1,554z M1329,571.6l-1-1.1l0,0L1329,571.6z M1309.4,581.5l0.4,1.5l0,0L1309.4,581.5z M1244.6,579.5
	l-0.4,1.4l0,0l0,0L1244.6,579.5z M1219.7,569.4l0.7-1.3l-2.2-1.2l0,2.5L1219.7,569.4z M1219.4,620.5l-1.5,0v0H1219.4z M1219.3,624.1
	l-1.5-0.1v0.1v0.1H1219.3z M1217.1,629.5l-0.9-1.2l0,0l0,0L1217.1,629.5z M1210.7,629.4l1-1.1l0,0l0,0L1210.7,629.4z M1209.2,627
	l1.4-0.5l0,0l0,0L1209.2,627z M1208.5,623.6h-1.5v0.1v0.1L1208.5,623.6z M1210.2,476.5l0.8,1.2l0,0l0,0L1210.2,476.5z M1217.6,476.5
	l-1,1.1l0,0l0,0L1217.6,476.5z M1219,500.7h-1.5l2.9,0.4L1219,500.7z M1224.8,490.5l1.1,1v0l0,0L1224.8,490.5z M1234.3,482.9
	l0.7,1.3l0,0l0,0L1234.3,482.9z M1246.2,477.7l0.4,1.4l0,0l0,0L1246.2,477.7z M1259.1,474.4l-0.3-1.5v0L1259.1,474.4z M1283,480.8
	v-1.5h0h0L1283,480.8z M1264.6,482.2l0.2,1.5l0,0l0,0L1264.6,482.2z M1219.7,509.3l-1.4-0.4l-0.1,0.2v0.2H1219.7z M1219.7,563.3
	h-1.5v1l1,0.4L1219.7,563.3z M1232.7,568l-0.5,1.4l0,0l0,0L1232.7,568z M1306.1,573.3l-0.4-1.4v0L1306.1,573.3z M1321.9,564.6l1,1.1
	l0,0L1321.9,564.6z M1331.1,549.4l-1.4-0.5v0v0L1331.1,549.4z M1330,505.1l-1.4,0.6l0,0v0L1330,505.1z M1302.8,483.2l-0.4,1.5l0,0
	l0,0L1302.8,483.2z M1283,474c8.3,0,16.2,0.9,23.6,2.6l0.7-2.9c-7.6-1.8-15.7-2.7-24.3-2.7V474z M1306.6,476.6
	c7.4,1.6,13.8,4.5,19.3,8.6l1.8-2.4c-5.8-4.4-12.6-7.4-20.4-9.1L1306.6,476.6z M1325.8,485.2c5.5,4.1,9.8,9.5,13,16.3l2.7-1.3
	c-3.4-7.2-8-13.1-14-17.4L1325.8,485.2z M1338.9,501.5c3.3,6.8,4.9,15.3,4.9,25.8h3c0-10.7-1.7-19.8-5.2-27.1L1338.9,501.5z
	 M1343.8,527.3c0,10.4-1.4,19.1-4.1,26.2l2.8,1.1c2.9-7.5,4.3-16.6,4.3-27.3H1343.8z M1339.7,553.5c-2.6,7-6.5,12.6-11.7,17l1.9,2.3
	c5.6-4.7,9.7-10.8,12.5-18.2L1339.7,553.5z M1328,570.5c-5.1,4.3-11.4,7.5-19,9.5l0.8,2.9c8-2.1,14.7-5.5,20.1-10.2L1328,570.5z
	 M1309.1,580c-7.5,1.9-16.2,2.9-26.1,2.9v3c10,0,19-1,26.8-3L1309.1,580z M1283,582.9c-7.5,0-14.4-0.5-20.7-1.4l-0.4,3
	c6.5,1,13.5,1.4,21.2,1.4V582.9z M1262.3,581.5c-6.3-0.9-12.1-2.1-17.3-3.5l-0.8,2.9c5.3,1.4,11.2,2.6,17.6,3.6L1262.3,581.5z
	 M1245,578c-5.1-1.5-9.7-3.1-13.8-4.9l-1.2,2.8c4.2,1.8,8.9,3.5,14.1,5L1245,578z M1231.3,573.2c-4.1-1.8-7.7-3.5-10.9-5.2l-1.4,2.7
	c3.2,1.7,6.9,3.5,11.1,5.3L1231.3,573.2z M1218.2,569.4l-0.3,51.2l3,0l0.3-51.2L1218.2,569.4z M1217.9,620.5c0,1.2,0,2.3-0.1,3.4
	l3,0.2c0.1-1.2,0.1-2.4,0.1-3.6H1217.9z M1217.8,624.1c0,1.1-0.2,2-0.5,2.7l2.8,1.1c0.5-1.1,0.7-2.4,0.7-3.8H1217.8z M1217.3,626.7
	c-0.3,0.7-0.7,1.2-1.2,1.6l1.8,2.4c1-0.7,1.7-1.7,2.2-2.9L1217.3,626.7z M1216.1,628.4c-0.3,0.2-0.9,0.5-2.1,0.5v3
	c1.6,0,3-0.3,4.1-1.2L1216.1,628.4z M1213.9,628.9c-1.2,0-1.9-0.3-2.2-0.6l-2,2.3c1.1,1,2.6,1.4,4.2,1.4V628.9z M1211.7,628.3
	c-0.4-0.4-0.8-0.9-1.1-1.8l-2.8,1c0.4,1.2,1.1,2.2,2,3L1211.7,628.3z M1210.6,626.5c-0.3-0.8-0.5-1.7-0.6-2.9l-3,0.2
	c0.1,1.4,0.4,2.7,0.8,3.8L1210.6,626.5z M1210,623.6C1210,623.6,1210,623.6,1210,623.6C1210,623.6,1210,623.6,1210,623.6
	C1210,623.6,1210,623.6,1210,623.6C1210,623.6,1210,623.6,1210,623.6C1210,623.6,1210,623.6,1210,623.6
	C1210,623.6,1210,623.6,1210,623.6C1210,623.6,1210,623.6,1210,623.6C1210,623.6,1210,623.6,1210,623.6
	C1210,623.6,1210,623.6,1210,623.6C1210,623.6,1210,623.6,1210,623.6C1210,623.6,1210,623.6,1210,623.6
	C1210,623.6,1210,623.6,1210,623.6C1210,623.6,1210,623.5,1210,623.6c0-0.1,0-0.1,0-0.1c0,0,0,0,0,0c0,0,0,0,0,0s0,0,0,0
	c0,0,0,0,0,0c0,0,0,0,0,0c0,0,0,0,0,0c0,0,0,0,0,0c0,0,0,0,0,0c0,0,0,0,0,0c0,0,0,0,0,0c0,0,0,0,0,0c0,0,0,0,0,0c0,0,0,0,0,0
	c0,0,0,0,0,0c0,0,0,0,0,0c0,0,0,0,0,0c0,0,0,0,0,0c0,0,0,0,0,0s0,0,0,0c0,0,0,0,0,0c0,0,0,0,0,0c0,0,0,0,0,0c0,0,0,0,0,0s0,0,0,0
	c0,0,0,0,0,0c0,0,0,0,0,0c0,0,0,0,0,0s0,0,0,0c0,0,0,0,0,0c0,0,0,0,0,0c0,0,0,0,0,0c0,0,0,0,0,0c0,0,0,0,0,0c0,0,0,0,0,0
	c0,0,0,0,0,0c0,0,0,0,0,0c0,0,0,0,0,0c0,0,0,0,0,0c0,0,0,0,0,0c0,0,0,0,0,0c0,0,0,0,0,0c0,0,0,0,0,0c0,0,0,0,0,0c0,0,0,0,0,0
	c0,0,0,0,0,0c0,0,0,0,0,0c0,0,0,0,0,0s0,0,0,0c0,0,0,0,0,0c0,0,0,0,0,0c0,0,0,0,0,0c0,0,0,0,0,0c0,0,0,0,0,0c0,0,0,0,0,0
	c0,0,0,0,0,0c0,0,0,0,0,0c0,0,0,0,0,0c0,0,0,0,0,0c0,0,0,0,0,0c0,0,0,0,0,0c0,0,0,0,0,0s0,0,0,0c0,0,0,0,0,0c0,0,0,0,0,0
	c0,0,0,0,0,0c0,0,0,0,0,0c0,0,0,0,0,0c0,0,0,0,0,0c0,0,0,0,0,0c0,0,0,0,0,0c0,0,0,0,0,0c0,0,0,0,0,0c0,0,0,0,0,0c0,0,0,0,0,0
	c0,0,0,0,0,0c0,0,0,0,0,0c0,0,0,0,0,0c0,0,0,0,0,0c0,0,0,0,0,0c0,0,0,0,0,0c0,0,0,0,0,0c0,0,0,0,0,0c0,0,0,0,0,0c0,0,0,0,0,0
	c0,0,0,0,0,0c0,0,0,0,0,0c0,0,0,0,0,0c0,0,0,0,0,0c0,0,0,0,0,0c0,0,0,0,0,0c0,0,0,0,0,0c0,0,0,0,0,0c0,0,0,0,0,0c0,0,0,0,0,0
	c0,0,0,0,0,0c0,0,0,0,0,0c0,0,0,0,0,0c0,0,0,0,0,0c0,0,0,0,0,0s0,0,0,0c0,0,0,0,0,0c0,0,0,0,0,0c0,0,0,0,0,0c0,0,0,0,0,0
	c0,0,0,0,0,0c0,0,0,0,0,0c0,0,0,0,0,0c0,0,0,0,0,0c0,0,0,0,0,0c0,0,0,0,0,0c0,0,0,0,0,0c0,0,0,0,0,0c0,0,0,0,0,0c0,0,0,0,0,0
	s0,0,0,0c0,0,0,0,0,0c0,0,0,0,0,0c0,0,0,0,0,0c0,0,0,0,0,0c0,0,0,0,0,0c0,0,0,0,0,0c0,0,0,0,0,0c0,0,0,0,0,0c0,0,0,0,0,0
	c0,0,0,0,0,0c0,0,0,0,0,0c0,0,0,0,0,0c0,0,0,0,0,0c0,0,0,0,0,0c0,0,0,0,0,0c0,0,0,0,0,0c0,0,0,0,0,0c0,0,0,0,0,0c0,0,0,0,0,0
	c0,0,0,0,0,0c0,0,0,0,0,0c0,0,0,0,0,0c0,0,0,0,0,0c0,0,0,0,0,0c0,0,0,0,0,0c0,0,0,0,0,0c0,0,0,0,0,0c0,0,0,0,0,0c0,0,0,0,0,0
	c0,0,0,0,0,0c0,0,0,0,0,0c0,0,0,0,0,0c0,0,0,0,0,0c0,0,0,0,0,0c0,0,0,0,0,0c0,0,0,0,0,0c0,0,0,0,0,0c0,0,0,0,0,0c0,0,0,0,0,0
	c0,0,0,0,0,0c0,0,0,0,0,0c0,0,0,0,0,0c0,0,0,0,0,0c0,0,0,0,0,0c0,0,0,0,0,0c0,0,0,0,0,0c0,0,0,0,0,0c0,0,0,0,0,0c0,0,0,0,0,0
	c0,0,0,0,0,0s0,0,0,0c0,0,0,0,0,0c0,0,0,0,0,0c0,0,0,0,0,0c0,0,0,0,0,0c0,0,0,0,0,0c0,0,0,0,0,0c0,0,0,0,0,0c0,0,0,0,0,0
	c0,0,0,0,0,0c0,0,0,0,0,0c0,0,0,0,0,0c0,0,0,0,0,0c0,0,0,0,0,0c0,0,0,0,0,0c0,0,0,0,0,0c0,0,0,0,0,0c0,0,0,0,0,0c0,0,0,0,0,0
	c0,0,0,0,0,0c0,0,0,0,0,0c0,0,0,0,0,0c0,0,0,0,0,0c0,0,0,0,0,0c0,0,0,0,0,0c0,0,0,0,0,0c0,0,0,0,0,0c0,0,0,0,0,0c0,0,0,0,0,0
	c0,0,0,0,0,0c0,0,0,0,0,0c0,0,0,0,0,0c0,0,0,0,0,0c0,0,0,0,0,0c0,0,0,0,0,0c0,0,0,0,0,0c0,0,0,0,0,0c0,0,0,0,0,0c0,0,0,0,0,0
	c0,0,0,0,0,0c0,0,0,0,0,0c0,0,0,0,0,0c0,0,0,0,0,0c0,0,0,0,0,0c0,0,0,0,0,0c0,0,0,0,0,0c0,0,0,0,0,0c0,0,0,0,0,0c0,0,0,0,0,0
	c0,0,0,0,0,0c0,0,0,0,0,0c0,0,0,0,0,0c0,0,0,0,0,0c0,0,0,0,0,0c0,0,0,0,0,0c0,0,0,0,0,0c0,0,0,0,0,0c0,0,0,0,0,0c0,0,0,0,0,0
	c0,0,0,0,0,0c0,0,0,0,0,0s0,0,0,0c0,0,0,0,0,0c0,0,0,0,0,0s0,0,0,0c0,0,0,0,0,0c0,0,0,0,0,0c0,0,0,0,0,0c0,0,0,0,0,0c0,0,0,0,0,0
	s0,0,0,0c0,0,0,0,0,0c0,0,0,0,0,0c0,0,0,0,0,0c0,0,0,0,0,0c0,0,0,0,0,0c0,0,0,0,0,0c0,0,0,0,0,0c0,0,0,0,0,0c0,0,0,0,0,0
	c0,0,0,0,0,0c0,0,0,0,0,0c0,0,0,0,0,0s0,0,0,0c0,0,0,0,0,0c0,0,0,0,0,0c0,0,0,0,0,0c0,0,0,0,0,0c0,0,0,0,0,0c0,0,0,0,0,0
	c0,0,0,0,0,0c0,0,0,0,0,0c0,0,0,0,0,0c0,0,0,0,0,0c0,0,0,0,0,0c0,0,0,0,0,0c0,0,0,0,0,0s0,0,0,0c0,0,0,0,0,0c0,0,0,0,0,0
	c0,0,0,0,0,0s0,0,0,0c0,0,0,0,0,0c0,0,0,0,0,0c0,0,0,0,0,0s0,0,0,0c0,0,0,0,0,0c0,0,0,0,0,0c0,0,0,0,0,0s0,0,0,0c0,0,0,0,0,0
	c0,0,0,0,0,0c0,0,0,0,0,0s0,0,0,0c0,0,0,0,0,0c0,0,0,0,0,0c0,0,0,0,0,0c0,0,0,0,0,0s0,0,0,0c0,0,0,0,0,0c0,0,0,0,0,0c0,0,0,0,0,0
	s0,0,0,0c0,0,0,0,0,0c0,0,0,0,0,0c0,0,0,0,0,0c0,0,0,0,0,0s0,0,0,0c0,0,0,0,0,0c0,0,0,0,0,0c0,0,0,0,0,0c0,0,0,0,0,0s0,0,0,0
	c0,0,0,0,0,0c0,0,0,0,0,0c0,0,0,0,0,0c0,0,0,0,0,0c0,0,0,0,0,0s0,0,0,0c0,0,0,0,0,0c0,0,0,0,0,0c0,0,0,0,0,0c0,0,0,0,0,0s0,0,0,0
	c0,0,0,0,0,0c0,0,0,0,0,0c0,0,0,0,0,0c0,0,0,0,0,0c0,0,0,0,0,0s0,0,0,0s0,0,0,0c0,0,0,0,0,0c0,0,0,0,0,0c0,0,0,0,0,0c0,0,0,0,0,0
	c0,0,0,0,0,0s0,0,0,0s0,0,0,0c0,0,0,0,0,0c0,0,0,0,0,0c0,0,0,0,0,0c0,0,0,0,0,0c0,0,0,0,0,0s0,0,0,0s0,0,0,0c0,0,0,0,0,0
	c0,0,0,0,0,0c0,0,0,0,0,0c0,0,0,0,0,0c0,0,0,0,0,0c0,0,0,0,0,0c0,0,0,0,0,0s0,0,0,0s0,0,0,0c0,0,0,0,0,0c0,0,0,0,0,0c0,0,0,0,0,0
	c0,0,0,0,0,0c0,0,0,0,0,0c0,0,0,0,0,0c0,0,0,0,0,0c0,0,0,0,0,0c0,0,0,0,0,0c0,0,0,0,0,0s0,0,0,0s0,0,0,0c0,0,0,0,0,0c0,0,0,0,0,0
	c0,0,0,0,0,0c0,0,0,0,0,0c0,0,0,0,0,0c0,0,0,0,0,0c0,0,0,0,0,0c0,0,0,0,0,0c0,0,0,0,0,0c0,0,0,0,0,0c0,0,0,0,0,0s0,0,0,0s0,0,0,0
	c0,0,0,0,0,0c0,0,0,0,0,0c0,0,0,0,0,0c0,0,0,0,0,0c0,0,0,0,0,0c0,0,0,0,0,0c0,0,0,0,0,0c0,0,0,0,0,0c0,0,0,0,0,0c0,0,0,0,0,0
	c0,0,0,0,0,0c0,0,0,0,0,0c0,0,0,0,0,0c0,0,0,0,0,0c0,0,0,0,0,0c0,0,0,0,0,0c0,0,0,0,0,0c0,0,0,0,0,0c0,0,0,0,0,0c0,0,0,0,0,0
	c0,0,0,0,0,0c0,0,0,0,0,0c0,0,0,0,0,0c0,0,0,0,0,0c0,0,0,0,0,0c0,0,0,0,0,0c0,0,0,0,0,0c0,0,0,0,0,0c0,0,0,0,0,0c0,0,0,0,0,0
	c0,0,0,0,0,0c0,0,0,0,0,0c0,0,0,0,0,0c0,0,0,0,0,0c0,0,0,0,0,0c0,0,0,0,0,0c0,0,0,0,0,0c0,0,0,0,0,0c0,0,0,0,0,0c0,0,0,0,0,0
	c0,0,0,0,0,0c0,0,0,0,0,0c0,0,0,0,0,0c0,0,0,0,0,0c0,0,0,0,0,0c0,0,0,0,0,0s0,0,0,0s0,0,0,0c0,0,0,0,0,0c0,0,0,0,0,0c0,0,0,0,0,0
	c0,0,0,0,0,0c0,0,0,0,0,0c0,0,0,0,0,0c0,0,0,0,0,0c0,0,0,0,0,0c0,0,0,0,0,0c0,0,0,0,0,0s0,0,0,0s0,0,0,0s0,0,0,0s0,0,0,0s0,0,0,0
	c0,0,0,0,0,0c0,0,0,0,0,0c0,0,0,0,0,0c0,0,0,0,0,0c0,0,0,0,0,0c0,0,0,0,0,0s0,0,0,0s0,0,0,0s0,0,0,0c0,0,0,0,0,0c0,0,0,0,0,0
	c0,0,0,0,0,0c0,0,0,0,0,0c0,0,0,0,0,0c0,0,0,0,0,0s0,0,0,0s0,0,0,0s0,0,0,0c0,0,0,0,0,0c0,0,0,0,0,0c0,0,0,0,0,0c0,0,0,0,0,0
	c0,0,0,0,0,0s0,0,0,0s0,0,0,0s0,0,0,0c0,0,0,0,0,0c0,0,0,0,0,0c0,0,0,0,0,0c0,0,0,0,0,0s0,0,0,0s0,0,0,0s0,0,0,0c0,0,0,0,0,0
	c0,0,0,0,0,0c0,0,0,0,0,0s0,0,0,0s0,0,0,0s0,0,0,0c0,0,0,0,0,0c0,0,0,0,0,0c0,0,0,0,0,0s0,0,0,0s0,0,0,0s0,0,0,0c0,0,0,0,0,0
	c0,0,0,0,0,0c0,0,0,0,0,0c0,0,0,0,0,0c0,0,0,0,0,0c0,0,0,0,0,0c0,0,0,0,0,0c0,0,0,0,0,0s0,0,0,0s0,0,0,0c0,0,0,0,0,0c0,0,0,0,0,0
	c0,0,0,0,0,0s0,0,0,0s0,0,0,0c0,0,0,0,0,0c0,0,0,0,0,0c0,0,0,0,0,0s0,0,0,0c0,0,0,0,0,0c0,0,0,0,0,0c0,0,0,0,0,0c0,0,0,0,0,0
	c0,0,0,0,0,0c0,0,0,0,0,0c0,0,0,0,0,0h-3c0,0,0,0,0,0c0,0,0,0,0,0c0,0,0,0,0,0c0,0,0,0,0,0c0,0,0,0,0,0c0,0,0,0,0,0c0,0,0,0,0,0
	c0,0,0,0,0,0s0,0,0,0c0,0,0,0,0,0c0,0,0,0,0,0c0,0,0,0,0,0s0,0,0,0s0,0,0,0c0,0,0,0,0,0c0,0,0,0,0,0c0,0,0,0,0,0s0,0,0,0s0,0,0,0
	c0,0,0,0,0,0c0,0,0,0,0,0c0,0,0,0,0,0c0,0,0,0,0,0c0,0,0,0,0,0c0,0,0,0,0,0c0,0,0,0,0,0c0,0,0,0,0,0s0,0,0,0s0,0,0,0s0,0,0,0
	c0,0,0,0,0,0c0,0,0,0,0,0c0,0,0,0,0,0s0,0,0,0s0,0,0,0s0,0,0,0c0,0,0,0,0,0c0,0,0,0,0,0c0,0,0,0,0,0s0,0,0,0s0,0,0,0s0,0,0,0
	c0,0,0,0,0,0c0,0,0,0,0,0c0,0,0,0,0,0c0,0,0,0,0,0s0,0,0,0s0,0,0,0s0,0,0,0c0,0,0,0,0,0c0,0,0,0,0,0c0,0,0,0,0,0c0,0,0,0,0,0
	c0,0,0,0,0,0s0,0,0,0s0,0,0,0s0,0,0,0c0,0,0,0,0,0c0,0,0,0,0,0c0,0,0,0,0,0c0,0,0,0,0,0c0,0,0,0,0,0c0,0,0,0,0,0s0,0,0,0s0,0,0,0
	s0,0,0,0c0,0,0,0,0,0c0,0,0,0,0,0c0,0,0,0,0,0c0,0,0,0,0,0c0,0,0,0,0,0c0,0,0,0,0,0s0,0,0,0s0,0,0,0s0,0,0,0s0,0,0,0s0,0,0,0
	c0,0,0,0,0,0c0,0,0,0,0,0c0,0,0,0,0,0c0,0,0,0,0,0c0,0,0,0,0,0c0,0,0,0,0,0c0,0,0,0,0,0c0,0,0,0,0,0c0,0,0,0,0,0c0,0,0,0,0,0
	s0,0,0,0s0,0,0,0c0,0,0,0,0,0c0,0,0,0,0,0c0,0,0,0,0,0c0,0,0,0,0,0c0,0,0,0,0,0c0,0,0,0,0,0c0,0,0,0,0,0c0,0,0,0,0,0c0,0,0,0,0,0
	c0,0,0,0,0,0c0,0,0,0,0,0c0,0,0,0,0,0c0,0,0,0,0,0c0,0,0,0,0,0c0,0,0,0,0,0c0,0,0,0,0,0c0,0,0,0,0,0c0,0,0,0,0,0c0,0,0,0,0,0
	c0,0,0,0,0,0c0,0,0,0,0,0c0,0,0,0,0,0c0,0,0,0,0,0c0,0,0,0,0,0c0,0,0,0,0,0c0,0,0,0,0,0c0,0,0,0,0,0c0,0,0,0,0,0c0,0,0,0,0,0
	c0,0,0,0,0,0c0,0,0,0,0,0c0,0,0,0,0,0c0,0,0,0,0,0c0,0,0,0,0,0c0,0,0,0,0,0c0,0,0,0,0,0c0,0,0,0,0,0c0,0,0,0,0,0c0,0,0,0,0,0
	c0,0,0,0,0,0c0,0,0,0,0,0c0,0,0,0,0,0c0,0,0,0,0,0c0,0,0,0,0,0c0,0,0,0,0,0c0,0,0,0,0,0s0,0,0,0s0,0,0,0c0,0,0,0,0,0c0,0,0,0,0,0
	c0,0,0,0,0,0c0,0,0,0,0,0c0,0,0,0,0,0c0,0,0,0,0,0c0,0,0,0,0,0c0,0,0,0,0,0c0,0,0,0,0,0c0,0,0,0,0,0c0,0,0,0,0,0s0,0,0,0s0,0,0,0
	c0,0,0,0,0,0c0,0,0,0,0,0c0,0,0,0,0,0c0,0,0,0,0,0c0,0,0,0,0,0c0,0,0,0,0,0c0,0,0,0,0,0c0,0,0,0,0,0c0,0,0,0,0,0c0,0,0,0,0,0
	s0,0,0,0s0,0,0,0c0,0,0,0,0,0c0,0,0,0,0,0c0,0,0,0,0,0c0,0,0,0,0,0c0,0,0,0,0,0c0,0,0,0,0,0c0,0,0,0,0,0s0,0,0,0s0,0,0,0
	c0,0,0,0,0,0c0,0,0,0,0,0c0,0,0,0,0,0c0,0,0,0,0,0c0,0,0,0,0,0s0,0,0,0s0,0,0,0c0,0,0,0,0,0c0,0,0,0,0,0c0,0,0,0,0,0c0,0,0,0,0,0
	c0,0,0,0,0,0s0,0,0,0s0,0,0,0c0,0,0,0,0,0c0,0,0,0,0,0c0,0,0,0,0,0c0,0,0,0,0,0c0,0,0,0,0,0s0,0,0,0c0,0,0,0,0,0c0,0,0,0,0,0
	c0,0,0,0,0,0c0,0,0,0,0,0s0,0,0,0c0,0,0,0,0,0c0,0,0,0,0,0c0,0,0,0,0,0c0,0,0,0,0,0c0,0,0,0,0,0s0,0,0,0c0,0,0,0,0,0c0,0,0,0,0,0
	c0,0,0,0,0,0c0,0,0,0,0,0s0,0,0,0c0,0,0,0,0,0c0,0,0,0,0,0c0,0,0,0,0,0c0,0,0,0,0,0s0,0,0,0c0,0,0,0,0,0c0,0,0,0,0,0c0,0,0,0,0,0
	s0,0,0,0c0,0,0,0,0,0c0,0,0,0,0,0c0,0,0,0,0,0c0,0,0,0,0,0s0,0,0,0c0,0,0,0,0,0c0,0,0,0,0,0c0,0,0,0,0,0s0,0,0,0c0,0,0,0,0,0
	c0,0,0,0,0,0c0,0,0,0,0,0s0,0,0,0c0,0,0,0,0,0c0,0,0,0,0,0c0,0,0,0,0,0s0,0,0,0c0,0,0,0,0,0c0,0,0,0,0,0c0,0,0,0,0,0s0,0,0,0
	c0,0,0,0,0,0c0,0,0,0,0,0c0,0,0,0,0,0c0,0,0,0,0,0c0,0,0,0,0,0c0,0,0,0,0,0c0,0,0,0,0,0c0,0,0,0,0,0c0,0,0,0,0,0c0,0,0,0,0,0
	c0,0,0,0,0,0c0,0,0,0,0,0c0,0,0,0,0,0s0,0,0,0c0,0,0,0,0,0c0,0,0,0,0,0c0,0,0,0,0,0c0,0,0,0,0,0c0,0,0,0,0,0c0,0,0,0,0,0
	c0,0,0,0,0,0c0,0,0,0,0,0c0,0,0,0,0,0c0,0,0,0,0,0c0,0,0,0,0,0c0,0,0,0,0,0s0,0,0,0c0,0,0,0,0,0c0,0,0,0,0,0c0,0,0,0,0,0
	c0,0,0,0,0,0c0,0,0,0,0,0s0,0,0,0c0,0,0,0,0,0c0,0,0,0,0,0s0,0,0,0c0,0,0,0,0,0c0,0,0,0,0,0c0,0,0,0,0,0c0,0,0,0,0,0c0,0,0,0,0,0
	c0,0,0,0,0,0c0,0,0,0,0,0c0,0,0,0,0,0c0,0,0,0,0,0c0,0,0,0,0,0c0,0,0,0,0,0c0,0,0,0,0,0c0,0,0,0,0,0c0,0,0,0,0,0c0,0,0,0,0,0
	c0,0,0,0,0,0c0,0,0,0,0,0c0,0,0,0,0,0c0,0,0,0,0,0c0,0,0,0,0,0c0,0,0,0,0,0c0,0,0,0,0,0c0,0,0,0,0,0c0,0,0,0,0,0c0,0,0,0,0,0
	c0,0,0,0,0,0c0,0,0,0,0,0c0,0,0,0,0,0c0,0,0,0,0,0c0,0,0,0,0,0c0,0,0,0,0,0c0,0,0,0,0,0c0,0,0,0,0,0c0,0,0,0,0,0c0,0,0,0,0,0
	c0,0,0,0,0,0c0,0,0,0,0,0c0,0,0,0,0,0c0,0,0,0,0,0c0,0,0,0,0,0c0,0,0,0,0,0c0,0,0,0,0,0c0,0,0,0,0,0c0,0,0,0,0,0c0,0,0,0,0,0
	c0,0,0,0,0,0c0,0,0,0,0,0c0,0,0,0,0,0c0,0,0,0,0,0c0,0,0,0,0,0c0,0,0,0,0,0c0,0,0,0,0,0c0,0,0,0,0,0c0,0,0,0,0,0c0,0,0,0,0,0
	c0,0,0,0,0,0c0,0,0,0,0,0c0,0,0,0,0,0c0,0,0,0,0,0c0,0,0,0,0,0s0,0,0,0c0,0,0,0,0,0c0,0,0,0,0,0c0,0,0,0,0,0c0,0,0,0,0,0
	c0,0,0,0,0,0c0,0,0,0,0,0c0,0,0,0,0,0c0,0,0,0,0,0c0,0,0,0,0,0c0,0,0,0,0,0c0,0,0,0,0,0c0,0,0,0,0,0c0,0,0,0,0,0c0,0,0,0,0,0
	c0,0,0,0,0,0c0,0,0,0,0,0c0,0,0,0,0,0c0,0,0,0,0,0c0,0,0,0,0,0c0,0,0,0,0,0c0,0,0,0,0,0c0,0,0,0,0,0c0,0,0,0,0,0c0,0,0,0,0,0
	c0,0,0,0,0,0c0,0,0,0,0,0c0,0,0,0,0,0c0,0,0,0,0,0c0,0,0,0,0,0c0,0,0,0,0,0c0,0,0,0,0,0c0,0,0,0,0,0c0,0,0,0,0,0c0,0,0,0,0,0
	c0,0,0,0,0,0c0,0,0,0,0,0c0,0,0,0,0,0c0,0,0,0,0,0c0,0,0,0,0,0c0,0,0,0,0,0c0,0,0,0,0,0c0,0,0,0,0,0c0,0,0,0,0,0c0,0,0,0,0,0
	c0,0,0,0,0,0c0,0,0,0,0,0c0,0,0,0,0,0c0,0,0,0,0,0c0,0,0,0,0,0c0,0,0,0,0,0s0,0,0,0c0,0,0,0,0,0c0,0,0,0,0,0c0,0,0,0,0,0
	c0,0,0,0,0,0c0,0,0,0,0,0c0,0,0,0,0,0c0,0,0,0,0,0c0,0,0,0,0,0c0,0,0,0,0,0c0,0,0,0,0,0c0,0,0,0,0,0c0,0,0,0,0,0c0,0,0,0,0,0
	c0,0,0,0,0,0s0,0,0,0c0,0,0,0,0,0c0,0,0,0,0,0c0,0,0,0,0,0c0,0,0,0,0,0c0,0,0,0,0,0c0,0,0,0,0,0c0,0,0,0,0,0c0,0,0,0,0,0
	c0,0,0,0,0,0c0,0,0,0,0,0c0,0,0,0,0,0c0,0,0,0,0,0c0,0,0,0,0,0c0,0,0,0,0,0c0,0,0,0,0,0c0,0,0,0,0,0c0,0,0,0,0,0c0,0,0,0,0,0
	c0,0,0,0,0,0c0,0,0,0,0,0c0,0,0,0,0,0c0,0,0,0,0,0c0,0,0,0,0,0c0,0,0,0,0,0c0,0,0,0,0,0c0,0,0,0,0,0c0,0,0,0,0,0c0,0,0,0,0,0
	c0,0,0,0,0,0c0,0,0,0,0,0c0,0,0,0,0,0c0,0,0,0,0,0c0,0,0,0,0,0c0,0,0,0,0,0c0,0,0,0,0,0c0,0,0,0,0,0c0,0,0,0,0,0s0,0,0,0
	c0,0,0,0,0,0c0,0,0,0,0,0c0,0,0,0,0,0c0,0,0,0,0,0c0,0,0,0,0,0c0,0,0,0,0,0c0,0,0,0,0,0c0,0,0,0,0,0c0,0,0,0,0,0c0,0,0,0,0,0
	c0,0,0,0,0,0c0,0,0,0,0,0c0,0,0,0,0,0s0,0,0,0c0,0,0,0,0,0c0,0,0,0,0,0c0,0,0,0,0,0c0,0,0,0,0,0c0,0,0,0,0,0c0,0,0,0,0,0
	c0,0,0,0,0,0c0,0,0,0,0,0c0,0,0,0,0,0c0,0,0,0,0,0c0,0,0,0,0,0c0,0,0,0,0,0c0,0,0,0,0,0c0,0,0,0,0,0c0,0,0,0,0,0c0,0,0,0,0,0
	c0,0,0,0,0,0c0,0,0,0,0,0c0,0,0,0,0,0s0,0,0,0c0,0,0,0,0,0c0,0,0,0,0,0c0,0,0,0,0,0s0,0,0,0c0,0,0,0,0,0c0,0,0,0,0,0c0,0,0,0,0,0
	c0,0,0,0,0,0s0,0,0,0c0,0,0,0,0,0c0,0,0,0,0,0c0,0,0,0,0,0c0,0,0,0,0,0c0,0,0,0,0,0c0,0,0,0,0,0c0,0,0,0,0,0c0,0,0,0,0,0
	c0,0,0,0,0,0c0,0,0,0,0,0c0,0,0,0,0,0c0,0,0,0,0,0c0,0,0,0,0,0c0,0,0,0,0,0c0,0,0,0,0,0s0,0,0,0c0,0,0,0,0,0c0,0,0,0,0,0
	c0,0,0,0,0,0c0,0,0,0,0,0s0,0,0,0c0,0,0,0,0,0c0,0,0,0,0,0c0,0,0,0,0,0c0,0,0,0,0,0c0,0,0,0,0,0c0,0,0,0,0,0s0,0,0,0c0,0,0,0,0,0
	c0,0,0,0,0,0c0,0,0,0,0,0H1210z M1210,619.7V482.2h-3v137.5H1210z M1210,482.2c0-1.4,0.1-2.5,0.4-3.2c0.2-0.8,0.5-1,0.7-1.2
	l-1.7-2.5c-0.9,0.6-1.5,1.7-1.9,2.8c-0.3,1.1-0.5,2.5-0.5,4.1H1210z M1211.1,477.7c0.9-0.7,1.8-1,2.8-1v-3c-1.7,0-3.2,0.5-4.6,1.6
	L1211.1,477.7z M1213.8,476.8c1.3,0,2.2,0.3,2.8,0.9l2-2.2c-1.3-1.2-2.9-1.7-4.8-1.7V476.8z M1216.7,477.7c0.1,0.1,0.3,0.4,0.5,1.2
	c0.2,0.8,0.3,1.9,0.3,3.3h3c0-1.6-0.1-2.9-0.4-4c-0.3-1.1-0.7-2.1-1.6-2.8L1216.7,477.7z M1217.5,482.2v18.6h3v-18.6H1217.5z
	 M1220.5,501.1c1.1-3.7,2.9-6.9,5.4-9.7l-2.2-2c-2.9,3.1-4.9,6.7-6.1,10.9L1220.5,501.1z M1225.9,491.5c2.6-2.9,5.7-5.3,9.2-7.3
	l-1.5-2.6c-3.8,2.1-7.1,4.8-9.9,7.9L1225.9,491.5z M1235.1,484.2c3.6-2.1,7.4-3.8,11.5-5.1l-0.9-2.9c-4.3,1.3-8.4,3.1-12.1,5.3
	L1235.1,484.2z M1246.6,479.1c4.3-1.4,8.5-2.4,12.7-3.2l-0.5-3c-4.4,0.8-8.8,1.9-13.2,3.3L1246.6,479.1z M1259.3,475.9
	c4.4-0.7,8.6-1.3,12.6-1.5l-0.2-3c-4.2,0.3-8.5,0.8-13,1.6L1259.3,475.9z M1272,474.4c4.1-0.3,7.8-0.4,11-0.4v-3
	c-3.3,0-7.1,0.1-11.2,0.4L1272,474.4z M1283,479.3c-5.7,0.1-11.9,0.6-18.6,1.4l0.4,3c6.6-0.8,12.7-1.3,18.3-1.4L1283,479.3z
	 M1264.4,480.7c-6.8,0.8-13.2,2.2-19.4,4.3l1,2.8c6-2,12.3-3.4,18.8-4.1L1264.4,480.7z M1245,485c-6.2,2.1-11.8,5-16.6,8.8l1.8,2.4
	c4.6-3.5,9.8-6.3,15.7-8.3L1245,485z M1228.4,493.8c-4.9,3.9-8.3,8.9-10.1,15.1l2.9,0.8c1.6-5.6,4.6-10.1,9-13.6L1228.4,493.8z
	 M1218.2,509.3v54h3v-54H1218.2z M1219.2,564.7c4,1.5,8.4,3.1,13,4.7l1-2.8c-4.6-1.6-8.9-3.1-12.9-4.6L1219.2,564.7z M1232.2,569.4
	c4.7,1.5,9.7,2.9,15,4.1l0.7-2.9c-5.2-1.2-10.1-2.6-14.8-4L1232.2,569.4z M1247.2,573.5c5.3,1.2,10.9,2.2,16.9,3l0.4-3
	c-5.9-0.7-11.4-1.7-16.6-2.9L1247.2,573.5z M1264.1,576.5c6,0.8,12.3,1.1,18.9,1.1v-3c-6.5,0-12.7-0.4-18.5-1.1L1264.1,576.5z
	 M1283,577.6c9.1,0,16.9-0.9,23.5-2.9l-0.8-2.9c-6.2,1.8-13.7,2.8-22.6,2.8V577.6z M1306.5,574.7c6.7-1.9,12.2-4.9,16.5-9.1
	l-2.1-2.2c-3.9,3.7-9,6.5-15.3,8.4L1306.5,574.7z M1323,565.7c4.4-4.2,7.6-9.5,9.5-15.8l-2.9-0.9c-1.8,5.9-4.7,10.7-8.7,14.5
	L1323,565.7z M1332.5,549.8c2-6.4,3-13.9,3-22.5h-3c0,8.4-1,15.6-2.9,21.6L1332.5,549.8z M1335.6,527.3c0-9-1.4-16.6-4.2-22.8
	l-2.7,1.2c2.6,5.8,4,12.9,4,21.6H1335.6z M1331.3,504.5c-2.7-6.2-6.5-11.2-11.3-14.9l-1.8,2.4c4.4,3.4,7.8,8,10.4,13.8L1331.3,504.5
	z M1320.1,489.6c-4.8-3.7-10.4-6.3-16.9-7.9l-0.7,2.9c6.1,1.5,11.3,3.9,15.7,7.3L1320.1,489.6z M1303.2,481.7
	c-6.3-1.6-13.1-2.4-20.2-2.4v3c6.9,0,13.4,0.8,19.4,2.3L1303.2,481.7z M1461,562.9l-1.2,0.9l0,0l0,0L1461,562.9z M1485.3,574.8
	l-0.3,1.5l0,0l0,0L1485.3,574.8z M1526,574.4l0.3,1.5l0,0l0,0L1526,574.4z M1554.8,564.2l0.8,1.3l0,0l0,0L1554.8,564.2z M1563,558
	l1,1.1l0.5-0.4V558H1563z M1563,529.7h1.5v-1.3l-1.3-0.2L1563,529.7z M1533.8,526l-0.2,1.5l0,0L1533.8,526z M1484.1,525.5l-0.2-1.5
	l0,0L1484.1,525.5z M1460.7,538.3l1.3,0.8l0,0v0L1460.7,538.3z M1477.9,483.3l-0.2-1.5l0,0L1477.9,483.3z M1458.3,488.2v1.5h0.3
	l0.3-0.1L1458.3,488.2z M1460.7,478.4l-0.4-1.4l0,0v0L1460.7,478.4z M1472.4,475.8l0.3,1.5l0,0l0,0L1472.4,475.8z M1491.1,473.5
	l-0.1-1.5h0L1491.1,473.5z M1531.7,473.5l-0.2,1.5l0,0l0,0L1531.7,473.5z M1545,476.7l-0.5,1.4l0,0L1545,476.7z M1556.6,483.3
	l-0.9,1.2l0,0v0L1556.6,483.3z M1565.9,494.3l-1.3,0.7l0,0l0,0L1565.9,494.3z M1572.1,510.4l-1.5,0.3v0L1572.1,510.4z M1573.4,579.8
	l-1.4-0.6l0,0l0,0L1573.4,579.8z M1571.7,582.2l0.9,1.2l0.1,0l0,0L1571.7,582.2z M1564.1,580l-1.4,0.5l0,0l0,0L1564.1,580z
	 M1563,562.9h1.5v-4.3l-2.7,3.3L1563,562.9z M1544.3,577.2l0.6,1.4l0,0l0,0L1544.3,577.2z M1527.8,582.4l0.3,1.5l0,0l0,0
	L1527.8,582.4z M1482.1,582.6l-0.3,1.5h0L1482.1,582.6z M1463.4,576.8l-0.7,1.3l0,0L1463.4,576.8z M1450.9,566.7l-1.2,0.9l0,0l0,0
	L1450.9,566.7z M1450.6,534.5l-1.3-0.8l0,0L1450.6,534.5z M1462.6,523.5l0.7,1.3l0,0l0,0L1462.6,523.5z M1480.3,517.6l-0.2-1.5l0,0
	L1480.3,517.6z M1520.1,516.6l-0.1,1.5l0,0l0,0L1520.1,516.6z M1537.1,518.5l-0.2,1.5l0,0l0,0L1537.1,518.5z M1551.7,521.4l-0.4,1.4
	l0,0l0,0L1551.7,521.4z M1563,525.5l-0.7,1.3l2.2,1.2v-2.5H1563z M1549,488.9l-0.9,1.2l0,0l0,0L1549,488.9z M1534.4,482.5l-0.3,1.5
	l0,0l0,0L1534.4,482.5z M1456.1,551.5c0,4.8,1.2,8.9,3.7,12.3l2.4-1.8c-2-2.8-3.1-6.3-3.1-10.5H1456.1z M1459.8,563.8
	c2.5,3.3,5.9,6,10.3,8l1.3-2.7c-3.9-1.9-7-4.3-9.2-7.1L1459.8,563.8z M1470.1,571.8c4.3,2,9.3,3.5,15,4.5l0.5-3
	c-5.5-0.9-10.3-2.3-14.2-4.2L1470.1,571.8z M1485.1,576.3c5.8,0.9,12.1,1.3,18.9,1.3v-3c-6.7,0-12.8-0.4-18.5-1.2L1485.1,576.3z
	 M1504,577.6c8.3,0,15.7-0.6,22.2-1.7l-0.5-3c-6.3,1.1-13.5,1.7-21.7,1.7V577.6z M1526.3,575.9c6.4-1.2,12.1-2.8,17-4.6l-1-2.8
	c-4.7,1.7-10.2,3.2-16.5,4.4L1526.3,575.9z M1543.2,571.3c4.8-1.8,9-3.8,12.4-5.9l-1.6-2.5c-3.2,2-7.1,3.9-11.8,5.6L1543.2,571.3z
	 M1555.6,565.4c3.3-2.2,6.1-4.3,8.3-6.3l-2-2.2c-2.1,1.9-4.7,3.9-8,6L1555.6,565.4z M1564.5,558v-28.3h-3V558H1564.5z M1563.2,528.2
	c-9.4-1.3-19.1-2.5-29.2-3.7l-0.3,3c10,1.1,19.7,2.3,29.1,3.7L1563.2,528.2z M1534,524.6c-10.1-1.2-20.3-1.8-30.6-1.8v3
	c10.2,0,20.2,0.6,30.2,1.8L1534,524.6z M1503.5,522.7c-7.3,0-13.8,0.4-19.6,1.3l0.4,3c5.6-0.8,12-1.2,19.2-1.2V522.7z M1483.8,524
	c-5.7,0.9-10.7,2.4-14.8,4.5l1.4,2.7c3.8-2,8.4-3.4,13.9-4.2L1483.8,524z M1469,528.5c-4.2,2.2-7.4,5.2-9.6,9l2.6,1.5
	c1.9-3.3,4.7-5.9,8.4-7.9L1469,528.5z M1459.4,537.5c-2.2,3.8-3.3,8.5-3.3,14h3c0-5.2,1-9.3,2.9-12.5L1459.4,537.5z M1517.4,479.3
	c-9,0-16.8,0.2-23.2,0.7l0.2,3c6.3-0.5,14-0.7,23-0.7V479.3z M1494.2,480c-6.4,0.5-11.9,1.1-16.6,1.8l0.5,3c4.5-0.7,10-1.3,16.3-1.8
	L1494.2,480z M1477.6,481.8c-4.5,0.8-8.4,1.6-11.5,2.4l0.8,2.9c3-0.8,6.8-1.6,11.2-2.4L1477.6,481.8z M1466.1,484.2
	c-3.1,0.9-5.9,1.7-8.3,2.6l1,2.8c2.3-0.8,5-1.7,8-2.5L1466.1,484.2z M1458.3,486.7c-0.5,0-1.2-0.3-1.9-1.1l-2.3,1.9
	c1.1,1.4,2.5,2.2,4.2,2.2V486.7z M1456.4,485.6c-0.7-0.9-1.1-1.8-1.1-2.7h-3c0,1.7,0.6,3.3,1.8,4.6L1456.4,485.6z M1455.3,482.9
	c0-0.4,0.1-0.6,0.2-0.8c0.1-0.2,0.3-0.4,0.7-0.5l-1.3-2.7c-0.8,0.4-1.4,0.9-1.9,1.6c-0.4,0.7-0.7,1.5-0.7,2.4H1455.3z M1456.2,481.5
	c0.6-0.3,2.2-0.9,5-1.7l-0.9-2.9c-2.7,0.8-4.6,1.5-5.4,1.9L1456.2,481.5z M1461.2,479.8c2.7-0.8,6.5-1.7,11.5-2.5l-0.5-3
	c-5,0.8-9,1.7-11.8,2.6L1461.2,479.8z M1472.7,477.3c5-0.9,11.2-1.7,18.6-2.4l-0.3-3c-7.4,0.7-13.7,1.5-18.8,2.4L1472.7,477.3z
	 M1491.2,474.9c7.4-0.7,16.2-1,26.3-1v-3c-10.2,0-19,0.3-26.6,1L1491.2,474.9z M1517.5,474c4.7,0,9.4,0.3,14,1l0.4-3
	c-4.8-0.7-9.6-1-14.4-1V474z M1531.6,474.9c4.6,0.5,8.8,1.6,12.9,3.1l1.1-2.8c-4.3-1.6-8.8-2.7-13.6-3.3L1531.6,474.9z
	 M1544.4,478.1c4.1,1.5,7.8,3.7,11.3,6.4l1.9-2.4c-3.7-2.9-7.7-5.2-12.1-6.8L1544.4,478.1z M1555.7,484.5c3.5,2.7,6.5,6.2,8.9,10.5
	l2.6-1.5c-2.6-4.7-5.8-8.5-9.7-11.4L1555.7,484.5z M1564.6,495c2.5,4.2,4.5,9.5,6,15.7l2.9-0.7c-1.5-6.5-3.6-12-6.4-16.6L1564.6,495
	z M1570.6,510.8c1.5,6.1,2.2,13.4,2.2,21.9h3c0-8.6-0.8-16.1-2.3-22.6L1570.6,510.8z M1572.8,532.7v40.5h3v-40.5H1572.8z
	 M1572.8,573.2c0,1.1,0,2.2-0.1,3.3l3,0.2c0.1-1.2,0.2-2.3,0.2-3.5H1572.8z M1572.7,576.4c-0.1,1-0.3,1.9-0.7,2.7l2.7,1.2
	c0.5-1.2,0.9-2.4,1-3.7L1572.7,576.4z M1572,579.2c-0.3,0.7-0.7,1.3-1.3,1.8l2,2.3c0.9-0.8,1.6-1.8,2.1-3L1572,579.2z M1570.8,581
	c-0.4,0.3-1.1,0.5-2.2,0.5v3c1.5,0,2.9-0.3,4-1.1L1570.8,581z M1568.6,581.5c-0.8,0-1.5-0.2-1.9-0.5c-0.5-0.3-0.9-0.8-1.2-1.6
	l-2.8,1.2c0.5,1.2,1.3,2.2,2.3,2.9c1,0.7,2.3,1,3.6,1V581.5z M1565.5,579.5c-0.7-1.7-1-4-1-6.9h-3c0,3.1,0.4,5.8,1.2,8L1565.5,579.5
	z M1564.5,572.6v-9.7h-3v9.7H1564.5z M1561.8,562c-1.8,2.2-4.2,4.6-7.1,7.1l1.9,2.3c3.1-2.6,5.6-5.1,7.5-7.5L1561.8,562z
	 M1554.7,569.1c-2.9,2.4-6.6,4.7-11.1,6.8l1.3,2.7c4.7-2.2,8.6-4.6,11.7-7.2L1554.7,569.1z M1543.6,575.9c-4.5,2-9.9,3.7-16.2,5.1
	l0.6,2.9c6.4-1.4,12-3.2,16.8-5.3L1543.6,575.9z M1527.5,581c-6.3,1.3-13.7,1.9-22.3,1.9v3c8.8,0,16.4-0.7,22.9-2L1527.5,581z
	 M1505.2,582.9c-8.1,0-15.7-0.6-22.8-1.8l-0.5,3c7.3,1.2,15.1,1.8,23.3,1.8V582.9z M1482.3,581.1c-7-1.2-13.1-3.1-18.3-5.6l-1.3,2.7
	c5.5,2.7,11.9,4.7,19.1,5.9L1482.3,581.1z M1464.1,575.5c-5.1-2.5-9.1-5.8-12-9.7l-2.4,1.8c3.3,4.3,7.6,7.9,13,10.6L1464.1,575.5z
	 M1452.1,565.8c-2.8-3.9-4.2-8.7-4.2-14.3h-3c0,6.2,1.6,11.5,4.8,16.1L1452.1,565.8z M1447.9,551.5c0-6.6,1.4-12,4-16.2l-2.6-1.6
	c-3,4.8-4.4,10.8-4.4,17.8H1447.9z M1451.9,535.3c2.8-4.4,6.6-7.8,11.4-10.4l-1.4-2.6c-5.3,2.8-9.5,6.7-12.5,11.5L1451.9,535.3z
	 M1463.3,524.8c4.9-2.7,10.6-4.6,17.2-5.7l-0.5-3c-6.9,1.1-13,3.2-18.2,6.1L1463.3,524.8z M1480.5,519.1c6.8-1.1,14-1.7,21.8-1.7v-3
	c-7.9,0-15.4,0.6-22.3,1.7L1480.5,519.1z M1502.3,517.4c5.9,0,11.7,0.2,17.6,0.7l0.2-3c-5.9-0.5-11.9-0.7-17.8-0.7V517.4z
	 M1520,518.1c6,0.4,11.6,1,16.9,1.8l0.5-3c-5.4-0.9-11.1-1.5-17.2-1.8L1520,518.1z M1536.9,519.9c5.3,0.7,10.1,1.7,14.4,2.9l0.8-2.9
	c-4.5-1.2-9.4-2.2-14.8-3L1536.9,519.9z M1551.3,522.9c4.4,1.1,8.1,2.4,10.9,3.9l1.4-2.6c-3.1-1.7-7-3.1-11.6-4.2L1551.3,522.9z
	 M1564.5,525.5c0-9.7-1.3-17.6-3.9-23.7l-2.8,1.2c2.4,5.6,3.7,13,3.7,22.5H1564.5z M1560.5,501.8c-2.6-6-6.1-10.7-10.6-14.1
	l-1.8,2.4c4,3,7.2,7.3,9.7,12.9L1560.5,501.8z M1550,487.7c-4.4-3.4-9.5-5.7-15.3-6.8l-0.6,2.9c5.3,1,10,3.1,14,6.2L1550,487.7z
	 M1534.7,481c-5.5-1.1-11.3-1.7-17.3-1.7v3c5.8,0,11.4,0.6,16.7,1.7L1534.7,481z M1805.7,579.8l-1.3-0.7l0,0.1l0,0.1L1805.7,579.8z
	 M1804,582.2l0.9,1.2l0,0l0,0L1804,582.2z M1797.9,582.2l-1.1,1.1l0.1,0.1l0.1,0.1L1797.9,582.2z M1795.7,576.5h-1.5v0.1l0,0.1
	L1795.7,576.5z M1794,505.1l-1.5,0.3v0l0,0L1794,505.1z M1787.7,491.6l-1.2,1l0,0l0,0L1787.7,491.6z M1774.6,483.4l-0.5,1.4l0,0
	L1774.6,483.4z M1735.2,482.2l0.2,1.5l0,0l0,0L1735.2,482.2z M1717.5,486.8l0.5,1.4l0,0l0,0L1717.5,486.8z M1693.6,509.3l-1.4-0.4
	l-0.1,0.2v0.2H1693.6z M1691,582.2l1,1.1l0,0l0,0L1691,582.2z M1685.1,582.2l-1,1.1l0.1,0.1l0.1,0.1L1685.1,582.2z M1683.3,579.8
	l-1.4,0.6l0,0.1l0,0.1L1683.3,579.8z M1682.5,576.5l-1.5,0.1l0,0.1l0,0.1L1682.5,576.5z M1683.3,477.4l1.3,0.7l0,0l0,0L1683.3,477.4
	z M1692.6,477.3l-1.4,0.6l0,0.1l0,0.1L1692.6,477.3z M1693.6,499.5h-1.5l2.9,0.6L1693.6,499.5z M1704.5,485.1l0.9,1.2v0l0,0
	L1704.5,485.1z M1719.9,477l0.5,1.4v0l0,0L1719.9,477z M1736.9,473.3l-0.1-1.5l0,0L1736.9,473.3z M1778.2,475.1l-0.4,1.5l0,0l0,0
	L1778.2,475.1z M1795,483.7l-1,1.1l0,0l0,0L1795,483.7z M1804.1,499.8l-1.4,0.4v0l0,0L1804.1,499.8z M1805.4,572.9
	c0,1.1-0.1,2.3-0.3,3.4l3,0.5c0.2-1.3,0.3-2.6,0.3-3.9H1805.4z M1805.2,576.3c-0.2,1.1-0.5,2-0.8,2.8l2.7,1.3
	c0.6-1.1,0.9-2.3,1.1-3.7L1805.2,576.3z M1804.3,579.2c-0.3,0.7-0.7,1.3-1.3,1.8l2,2.3c0.9-0.8,1.6-1.8,2.1-3L1804.3,579.2z
	 M1803.1,581c-0.4,0.3-1.1,0.5-1.9,0.5v3c1.4,0,2.7-0.3,3.7-1.1L1803.1,581z M1801.2,581.5c-1.2,0-2-0.3-2.3-0.5l-1.8,2.4
	c1.1,0.8,2.6,1.1,4.1,1.1V581.5z M1799,581.1c-0.5-0.5-0.9-1.1-1.2-1.9l-2.8,1.1c0.5,1.1,1.1,2.1,1.9,2.9L1799,581.1z M1797.8,579.2
	c-0.3-0.8-0.5-1.7-0.6-2.8l-3,0.2c0.1,1.3,0.4,2.6,0.8,3.7L1797.8,579.2z M1797.2,576.5C1797.2,576.5,1797.2,576.5,1797.2,576.5
	C1797.2,576.5,1797.2,576.5,1797.2,576.5C1797.2,576.5,1797.2,576.5,1797.2,576.5C1797.2,576.5,1797.2,576.5,1797.2,576.5
	C1797.2,576.5,1797.2,576.5,1797.2,576.5C1797.2,576.5,1797.2,576.5,1797.2,576.5C1797.2,576.5,1797.2,576.5,1797.2,576.5
	C1797.2,576.5,1797.2,576.5,1797.2,576.5C1797.2,576.5,1797.2,576.5,1797.2,576.5C1797.2,576.5,1797.2,576.5,1797.2,576.5
	C1797.2,576.5,1797.2,576.5,1797.2,576.5C1797.2,576.5,1797.2,576.4,1797.2,576.5C1797.2,576.4,1797.2,576.4,1797.2,576.5
	C1797.2,576.4,1797.2,576.4,1797.2,576.5c0-0.1,0-0.1,0-0.1c0,0,0,0,0,0s0,0,0,0c0,0,0,0,0,0c0,0,0,0,0,0c0,0,0,0,0,0c0,0,0,0,0,0
	c0,0,0,0,0,0c0,0,0,0,0,0s0,0,0,0c0,0,0,0,0,0c0,0,0,0,0,0c0,0,0,0,0,0c0,0,0,0,0,0c0,0,0,0,0,0c0,0,0,0,0,0c0,0,0,0,0,0
	c0,0,0,0,0,0c0,0,0,0,0,0c0,0,0,0,0,0c0,0,0,0,0,0c0,0,0,0,0,0c0,0,0,0,0,0c0,0,0,0,0,0s0,0,0,0c0,0,0,0,0,0c0,0,0,0,0,0
	c0,0,0,0,0,0c0,0,0,0,0,0c0,0,0,0,0,0c0,0,0,0,0,0c0,0,0,0,0,0c0,0,0,0,0,0c0,0,0,0,0,0c0,0,0,0,0,0c0,0,0,0,0,0c0,0,0,0,0,0
	s0,0,0,0c0,0,0,0,0,0c0,0,0,0,0,0c0,0,0,0,0,0c0,0,0,0,0,0c0,0,0,0,0,0c0,0,0,0,0,0s0,0,0,0s0,0,0,0c0,0,0,0,0,0c0,0,0,0,0,0
	c0,0,0,0,0,0c0,0,0,0,0,0c0,0,0,0,0,0c0,0,0,0,0,0s0,0,0,0c0,0,0,0,0,0c0,0,0,0,0,0c0,0,0,0,0,0c0,0,0,0,0,0c0,0,0,0,0,0
	c0,0,0,0,0,0s0,0,0,0c0,0,0,0,0,0c0,0,0,0,0,0c0,0,0,0,0,0c0,0,0,0,0,0c0,0,0,0,0,0c0,0,0,0,0,0c0,0,0,0,0,0c0,0,0,0,0,0
	c0,0,0,0,0,0c0,0,0,0,0,0c0,0,0,0,0,0c0,0,0,0,0,0s0,0,0,0c0,0,0,0,0,0c0,0,0,0,0,0c0,0,0,0,0,0c0,0,0,0,0,0c0,0,0,0,0,0
	c0,0,0,0,0,0c0,0,0,0,0,0s0,0,0,0c0,0,0,0,0,0c0,0,0,0,0,0c0,0,0,0,0,0c0,0,0,0,0,0c0,0,0,0,0,0c0,0,0,0,0,0s0,0,0,0c0,0,0,0,0,0
	c0,0,0,0,0,0c0,0,0,0,0,0c0,0,0,0,0,0c0,0,0,0,0,0c0,0,0,0,0,0s0,0,0,0c0,0,0,0,0,0c0,0,0,0,0,0c0,0,0,0,0,0c0,0,0,0,0,0
	c0,0,0,0,0,0c0,0,0,0,0,0c0,0,0,0,0,0s0,0,0,0c0,0,0,0,0,0c0,0,0,0,0,0c0,0,0,0,0,0c0,0,0,0,0,0c0,0,0,0,0,0c0,0,0,0,0,0s0,0,0,0
	c0,0,0,0,0,0c0,0,0,0,0,0c0,0,0,0,0,0c0,0,0,0,0,0c0,0,0,0,0,0s0,0,0,0c0,0,0,0,0,0c0,0,0,0,0,0c0,0,0,0,0,0c0,0,0,0,0,0
	c0,0,0,0,0,0c0,0,0,0,0,0s0,0,0,0c0,0,0,0,0,0c0,0,0,0,0,0c0,0,0,0,0,0c0,0,0,0,0,0c0,0,0,0,0,0c0,0,0,0,0,0s0,0,0,0s0,0,0,0
	c0,0,0,0,0,0c0,0,0,0,0,0c0,0,0,0,0,0c0,0,0,0,0,0c0,0,0,0,0,0c0,0,0,0,0,0s0,0,0,0c0,0,0,0,0,0c0,0,0,0,0,0c0,0,0,0,0,0
	c0,0,0,0,0,0c0,0,0,0,0,0c0,0,0,0,0,0s0,0,0,0c0,0,0,0,0,0c0,0,0,0,0,0c0,0,0,0,0,0c0,0,0,0,0,0c0,0,0,0,0,0s0,0,0,0c0,0,0,0,0,0
	c0,0,0,0,0,0c0,0,0,0,0,0c0,0,0,0,0,0c0,0,0,0,0,0c0,0,0,0,0,0s0,0,0,0c0,0,0,0,0,0c0,0,0,0,0,0c0,0,0,0,0,0c0,0,0,0,0,0
	c0,0,0,0,0,0c0,0,0,0,0,0c0,0,0,0,0,0s0,0,0,0c0,0,0,0,0,0c0,0,0,0,0,0c0,0,0,0,0,0c0,0,0,0,0,0c0,0,0,0,0,0c0,0,0,0,0,0s0,0,0,0
	c0,0,0,0,0,0c0,0,0,0,0,0c0,0,0,0,0,0c0,0,0,0,0,0c0,0,0,0,0,0c0,0,0,0,0,0s0,0,0,0c0,0,0,0,0,0c0,0,0,0,0,0c0,0,0,0,0,0
	c0,0,0,0,0,0c0,0,0,0,0,0c0,0,0,0,0,0c0,0,0,0,0,0s0,0,0,0c0,0,0,0,0,0c0,0,0,0,0,0c0,0,0,0,0,0c0,0,0,0,0,0c0,0,0,0,0,0
	c0,0,0,0,0,0c0,0,0,0,0,0c0,0,0,0,0,0c0,0,0,0,0,0c0,0,0,0,0,0c0,0,0,0,0,0c0,0,0,0,0,0s0,0,0,0c0,0,0,0,0,0c0,0,0,0,0,0
	c0,0,0,0,0,0c0,0,0,0,0,0c0,0,0,0,0,0c0,0,0,0,0,0s0,0,0,0s0,0,0,0c0,0,0,0,0,0c0,0,0,0,0,0c0,0,0,0,0,0c0,0,0,0,0,0c0,0,0,0,0,0
	s0,0,0,0s0,0,0,0c0,0,0,0,0,0c0,0,0,0,0,0c0,0,0,0,0,0c0,0,0,0,0,0c0,0,0,0,0,0c0,0,0,0,0,0s0,0,0,0c0,0,0,0,0,0c0,0,0,0,0,0
	c0,0,0,0,0,0c0,0,0,0,0,0c0,0,0,0,0,0c0,0,0,0,0,0c0,0,0,0,0,0c0,0,0,0,0,0c0,0,0,0,0,0c0,0,0,0,0,0c0,0,0,0,0,0c0,0,0,0,0,0
	s0,0,0,0c0,0,0,0,0,0c0,0,0,0,0,0c0,0,0,0,0,0c0,0,0,0,0,0c0,0,0,0,0,0c0,0,0,0,0,0c0,0,0,0,0,0s0,0,0,0c0,0,0,0,0,0c0,0,0,0,0,0
	c0,0,0,0,0,0c0,0,0,0,0,0c0,0,0,0,0,0c0,0,0,0,0,0s0,0,0,0c0,0,0,0,0,0c0,0,0,0,0,0c0,0,0,0,0,0c0,0,0,0,0,0c0,0,0,0,0,0
	c0,0,0,0,0,0s0,0,0,0c0,0,0,0,0,0c0,0,0,0,0,0c0,0,0,0,0,0c0,0,0,0,0,0c0,0,0,0,0,0c0,0,0,0,0,0c0,0,0,0,0,0c0,0,0,0,0,0
	c0,0,0,0,0,0c0,0,0,0,0,0c0,0,0,0,0,0c0,0,0,0,0,0c0,0,0,0,0,0c0,0,0,0,0,0s0,0,0,0c0,0,0,0,0,0c0,0,0,0,0,0c0,0,0,0,0,0
	c0,0,0,0,0,0c0,0,0,0,0,0s0,0,0,0c0,0,0,0,0,0c0,0,0,0,0,0c0,0,0,0,0,0c0,0,0,0,0,0c0,0,0,0,0,0c0,0,0,0,0,0s0,0,0,0c0,0,0,0,0,0
	c0,0,0,0,0,0c0,0,0,0,0,0c0,0,0,0,0,0c0,0,0,0,0,0c0,0,0,0,0,0s0,0,0,0s0,0,0,0c0,0,0,0,0,0c0,0,0,0,0,0c0,0,0,0,0,0c0,0,0,0,0,0
	c0,0,0,0,0,0c0,0,0,0,0,0s0,0,0,0c0,0,0,0,0,0c0,0,0,0,0,0c0,0,0,0,0,0c0,0,0,0,0,0c0,0,0,0,0,0c0,0,0,0,0,0s0,0,0,0c0,0,0,0,0,0
	c0,0,0,0,0,0c0,0,0,0,0,0c0,0,0,0,0,0c0,0,0,0,0,0s0,0,0,0c0,0,0,0,0,0c0,0,0,0,0,0c0,0,0,0,0,0c0,0,0,0,0,0c0,0,0,0,0,0
	c0,0,0,0,0,0s0,0,0,0c0,0,0,0,0,0c0,0,0,0,0,0c0,0,0,0,0,0c0,0,0,0,0,0c0,0,0,0,0,0c0,0,0,0,0,0c0,0,0,0,0,0s0,0,0,0c0,0,0,0,0,0
	c0,0,0,0,0,0c0,0,0,0,0,0c0,0,0,0,0,0c0,0,0,0,0,0c0,0,0,0,0,0s0,0,0,0c0,0,0,0,0,0c0,0,0,0,0,0c0,0,0,0,0,0c0,0,0,0,0,0
	c0,0,0,0,0,0c0,0,0,0,0,0s0,0,0,0c0,0,0,0,0,0c0,0,0,0,0,0c0,0,0,0,0,0c0,0,0,0,0,0c0,0,0,0,0,0c0,0,0,0,0,0c0,0,0,0,0,0s0,0,0,0
	c0,0,0,0,0,0c0,0,0,0,0,0c0,0,0,0,0,0c0,0,0,0,0,0c0,0,0,0,0,0c0,0,0,0,0,0c0,0,0,0,0,0c0,0,0,0,0,0c0,0,0,0,0,0c0,0,0,0,0,0
	c0,0,0,0,0,0c0,0,0,0,0,0s0,0,0,0c0,0,0,0,0,0c0,0,0,0,0,0c0,0,0,0,0,0c0,0,0,0,0,0c0,0,0,0,0,0c0,0,0,0,0,0s0,0,0,0c0,0,0,0,0,0
	c0,0,0,0,0,0c0,0,0,0,0,0c0,0,0,0,0,0c0,0,0,0,0,0c0,0,0,0,0,0s0,0,0,0s0,0,0,0c0,0,0,0,0,0c0,0,0,0,0,0c0,0,0,0,0,0c0,0,0,0,0,0
	c0,0,0,0,0,0c0,0,0,0,0,0s0,0,0,0c0,0,0,0,0,0c0,0,0,0,0,0c0,0,0,0,0,0c0,0,0,0,0,0c0,0,0,0,0,0c0,0,0,0,0,0c0,0,0,0,0,0
	c0,0,0,0,0,0c0,0,0,0,0,0c0,0,0,0,0,0c0,0,0,0,0,0c0,0,0,0,0,0s0,0,0,0c0,0,0,0,0,0c0,0,0,0,0,0c0,0,0,0,0,0c0,0,0,0,0,0
	c0,0,0,0,0,0c0,0,0,0,0,0c0,0,0,0,0,0c0,0,0,0,0,0c0,0,0,0,0,0c0,0,0,0,0,0c0,0,0,0,0,0c0,0,0,0,0,0c0,0,0,0,0,0c0,0,0,0,0,0
	s0,0,0,0c0,0,0,0,0,0c0,0,0,0,0,0c0,0,0,0,0,0c0,0,0,0,0,0c0,0,0,0,0,0c0,0,0,0,0,0s0,0,0,0c0,0,0,0,0,0c0,0,0,0,0,0c0,0,0,0,0,0
	c0,0,0,0,0,0c0,0,0,0,0,0c0,0,0,0,0,0c0,0,0,0,0,0c0,0,0,0,0,0c0,0,0,0,0,0c0,0,0,0,0,0c0,0,0,0,0,0c0,0,0,0,0,0c0,0,0,0,0,0
	c0,0,0,0,0,0s0,0,0,0c0,0,0,0,0,0c0,0,0,0,0,0c0,0,0,0,0,0c0,0,0,0,0,0c0,0,0,0,0,0c0,0,0,0,0,0c0,0,0,0,0,0c0,0,0,0,0,0
	c0,0,0,0,0,0c0,0,0,0,0,0c0,0,0,0,0,0c0,0,0,0,0,0s0,0,0,0c0,0,0,0,0,0c0,0,0,0,0,0c0,0,0,0,0,0c0,0,0,0,0,0c0,0,0,0,0,0
	c0,0,0,0,0,0s0,0,0,0s0,0,0,0c0,0,0,0,0,0c0,0,0,0,0,0c0,0,0,0,0,0c0,0,0,0,0,0c0,0,0,0,0,0c0,0,0,0,0,0s0,0,0,0c0,0,0,0,0,0
	c0,0,0,0,0,0c0,0,0,0,0,0c0,0,0,0,0,0c0,0,0,0,0,0c0,0,0,0,0,0s0,0,0,0c0,0,0,0,0,0c0,0,0,0,0,0c0,0,0,0,0,0c0,0,0,0,0,0
	c0,0,0,0,0,0c0,0,0,0,0,0c0,0,0,0,0,0c0,0,0,0,0,0c0,0,0,0,0,0c0,0,0,0,0,0c0,0,0,0,0,0c0,0,0,0,0,0s0,0,0,0c0,0,0,0,0,0
	c0,0,0,0,0,0c0,0,0,0,0,0c0,0,0,0,0,0c0,0,0,0,0,0c0,0,0,0,0,0c0,0,0,0,0,0s0,0,0,0c0,0,0,0,0,0c0,0,0,0,0,0c0,0,0,0,0,0
	c0,0,0,0,0,0c0,0,0,0,0,0c0,0,0,0,0,0h-3c0,0,0,0,0,0c0,0,0,0,0,0c0,0,0,0,0,0c0,0,0,0,0,0c0,0,0,0,0,0c0,0,0,0,0,0c0,0,0,0,0,0
	s0,0,0,0c0,0,0,0,0,0c0,0,0,0,0,0c0,0,0,0,0,0c0,0,0,0,0,0c0,0,0,0,0,0c0,0,0,0,0,0c0,0,0,0,0,0s0,0,0,0c0,0,0,0,0,0c0,0,0,0,0,0
	c0,0,0,0,0,0c0,0,0,0,0,0c0,0,0,0,0,0c0,0,0,0,0,0c0,0,0,0,0,0c0,0,0,0,0,0c0,0,0,0,0,0c0,0,0,0,0,0c0,0,0,0,0,0c0,0,0,0,0,0
	s0,0,0,0c0,0,0,0,0,0c0,0,0,0,0,0c0,0,0,0,0,0c0,0,0,0,0,0c0,0,0,0,0,0c0,0,0,0,0,0s0,0,0,0c0,0,0,0,0,0c0,0,0,0,0,0c0,0,0,0,0,0
	c0,0,0,0,0,0c0,0,0,0,0,0c0,0,0,0,0,0s0,0,0,0s0,0,0,0c0,0,0,0,0,0c0,0,0,0,0,0c0,0,0,0,0,0c0,0,0,0,0,0c0,0,0,0,0,0c0,0,0,0,0,0
	s0,0,0,0c0,0,0,0,0,0c0,0,0,0,0,0c0,0,0,0,0,0c0,0,0,0,0,0c0,0,0,0,0,0c0,0,0,0,0,0c0,0,0,0,0,0c0,0,0,0,0,0c0,0,0,0,0,0
	c0,0,0,0,0,0c0,0,0,0,0,0c0,0,0,0,0,0s0,0,0,0c0,0,0,0,0,0c0,0,0,0,0,0c0,0,0,0,0,0c0,0,0,0,0,0c0,0,0,0,0,0c0,0,0,0,0,0
	c0,0,0,0,0,0c0,0,0,0,0,0c0,0,0,0,0,0c0,0,0,0,0,0c0,0,0,0,0,0c0,0,0,0,0,0c0,0,0,0,0,0c0,0,0,0,0,0s0,0,0,0c0,0,0,0,0,0
	c0,0,0,0,0,0c0,0,0,0,0,0c0,0,0,0,0,0c0,0,0,0,0,0c0,0,0,0,0,0s0,0,0,0c0,0,0,0,0,0c0,0,0,0,0,0c0,0,0,0,0,0c0,0,0,0,0,0
	c0,0,0,0,0,0c0,0,0,0,0,0c0,0,0,0,0,0c0,0,0,0,0,0c0,0,0,0,0,0c0,0,0,0,0,0c0,0,0,0,0,0c0,0,0,0,0,0c0,0,0,0,0,0c0,0,0,0,0,0
	s0,0,0,0c0,0,0,0,0,0c0,0,0,0,0,0c0,0,0,0,0,0c0,0,0,0,0,0c0,0,0,0,0,0c0,0,0,0,0,0c0,0,0,0,0,0c0,0,0,0,0,0c0,0,0,0,0,0
	c0,0,0,0,0,0c0,0,0,0,0,0c0,0,0,0,0,0s0,0,0,0c0,0,0,0,0,0c0,0,0,0,0,0c0,0,0,0,0,0c0,0,0,0,0,0c0,0,0,0,0,0c0,0,0,0,0,0s0,0,0,0
	s0,0,0,0c0,0,0,0,0,0c0,0,0,0,0,0c0,0,0,0,0,0c0,0,0,0,0,0c0,0,0,0,0,0c0,0,0,0,0,0s0,0,0,0c0,0,0,0,0,0c0,0,0,0,0,0c0,0,0,0,0,0
	c0,0,0,0,0,0c0,0,0,0,0,0c0,0,0,0,0,0s0,0,0,0c0,0,0,0,0,0c0,0,0,0,0,0c0,0,0,0,0,0c0,0,0,0,0,0c0,0,0,0,0,0c0,0,0,0,0,0
	c0,0,0,0,0,0c0,0,0,0,0,0c0,0,0,0,0,0c0,0,0,0,0,0c0,0,0,0,0,0c0,0,0,0,0,0s0,0,0,0c0,0,0,0,0,0c0,0,0,0,0,0c0,0,0,0,0,0
	c0,0,0,0,0,0c0,0,0,0,0,0c0,0,0,0,0,0c0,0,0,0,0,0s0,0,0,0c0,0,0,0,0,0c0,0,0,0,0,0c0,0,0,0,0,0c0,0,0,0,0,0c0,0,0,0,0,0
	c0,0,0,0,0,0s0,0,0,0c0,0,0,0,0,0c0,0,0,0,0,0c0,0,0,0,0,0c0,0,0,0,0,0c0,0,0,0,0,0c0,0,0,0,0,0s0,0,0,0c0,0,0,0,0,0c0,0,0,0,0,0
	c0,0,0,0,0,0c0,0,0,0,0,0c0,0,0,0,0,0c0,0,0,0,0,0c0,0,0,0,0,0s0,0,0,0c0,0,0,0,0,0c0,0,0,0,0,0c0,0,0,0,0,0c0,0,0,0,0,0
	c0,0,0,0,0,0c0,0,0,0,0,0s0,0,0,0c0,0,0,0,0,0c0,0,0,0,0,0c0,0,0,0,0,0c0,0,0,0,0,0c0,0,0,0,0,0s0,0,0,0c0,0,0,0,0,0c0,0,0,0,0,0
	c0,0,0,0,0,0c0,0,0,0,0,0c0,0,0,0,0,0c0,0,0,0,0,0s0,0,0,0c0,0,0,0,0,0c0,0,0,0,0,0c0,0,0,0,0,0c0,0,0,0,0,0c0,0,0,0,0,0
	c0,0,0,0,0,0s0,0,0,0s0,0,0,0c0,0,0,0,0,0c0,0,0,0,0,0c0,0,0,0,0,0c0,0,0,0,0,0c0,0,0,0,0,0c0,0,0,0,0,0s0,0,0,0c0,0,0,0,0,0
	c0,0,0,0,0,0c0,0,0,0,0,0c0,0,0,0,0,0c0,0,0,0,0,0c0,0,0,0,0,0s0,0,0,0c0,0,0,0,0,0c0,0,0,0,0,0c0,0,0,0,0,0c0,0,0,0,0,0
	c0,0,0,0,0,0s0,0,0,0c0,0,0,0,0,0c0,0,0,0,0,0c0,0,0,0,0,0c0,0,0,0,0,0c0,0,0,0,0,0c0,0,0,0,0,0c0,0,0,0,0,0c0,0,0,0,0,0
	c0,0,0,0,0,0c0,0,0,0,0,0c0,0,0,0,0,0c0,0,0,0,0,0c0,0,0,0,0,0c0,0,0,0,0,0s0,0,0,0c0,0,0,0,0,0c0,0,0,0,0,0c0,0,0,0,0,0
	c0,0,0,0,0,0c0,0,0,0,0,0c0,0,0,0,0,0s0,0,0,0c0,0,0,0,0,0c0,0,0,0,0,0c0,0,0,0,0,0c0,0,0,0,0,0c0,0,0,0,0,0c0,0,0,0,0,0s0,0,0,0
	c0,0,0,0,0,0c0,0,0,0,0,0c0,0,0,0,0,0c0,0,0,0,0,0c0,0,0,0,0,0c0,0,0,0,0,0c0,0,0,0,0,0s0,0,0,0c0,0,0,0,0,0c0,0,0,0,0,0
	c0,0,0,0,0,0c0,0,0,0,0,0c0,0,0,0,0,0c0,0,0,0,0,0c0,0,0,0,0,0c0,0,0,0,0,0c0,0,0,0,0,0c0,0,0,0,0,0c0,0,0,0,0,0c0,0,0,0,0,0
	s0,0,0,0c0,0,0,0,0,0c0,0,0,0,0,0c0,0,0,0,0,0c0,0,0,0,0,0c0,0,0,0,0,0c0,0,0,0,0,0s0,0,0,0s0,0,0,0c0,0,0,0,0,0c0,0,0,0,0,0
	c0,0,0,0,0,0c0,0,0,0,0,0c0,0,0,0,0,0s0,0,0,0s0,0,0,0c0,0,0,0,0,0c0,0,0,0,0,0c0,0,0,0,0,0c0,0,0,0,0,0c0,0,0,0,0,0c0,0,0,0,0,0
	s0,0,0,0c0,0,0,0,0,0c0,0,0,0,0,0c0,0,0,0,0,0c0,0,0,0,0,0c0,0,0,0,0,0c0,0,0,0,0,0c0,0,0,0,0,0c0,0,0,0,0,0c0,0,0,0,0,0
	c0,0,0,0,0,0c0,0,0,0,0,0c0,0,0,0,0,0s0,0,0,0c0,0,0,0,0,0c0,0,0,0,0,0c0,0,0,0,0,0c0,0,0,0,0,0c0,0,0,0,0,0c0,0,0,0,0,0
	c0,0,0,0,0,0s0,0,0,0c0,0,0,0,0,0c0,0,0,0,0,0c0,0,0,0,0,0c0,0,0,0,0,0c0,0,0,0,0,0c0,0,0,0,0,0s0,0,0,0c0,0,0,0,0,0c0,0,0,0,0,0
	c0,0,0,0,0,0c0,0,0,0,0,0c0,0,0,0,0,0c0,0,0,0,0,0s0,0,0,0c0,0,0,0,0,0c0,0,0,0,0,0c0,0,0,0,0,0c0,0,0,0,0,0c0,0,0,0,0,0
	c0,0,0,0,0,0c0,0,0,0,0,0s0,0,0,0c0,0,0,0,0,0c0,0,0,0,0,0c0,0,0,0,0,0c0,0,0,0,0,0c0,0,0,0,0,0c0,0,0,0,0,0s0,0,0,0c0,0,0,0,0,0
	c0,0,0,0,0,0c0,0,0,0,0,0c0,0,0,0,0,0c0,0,0,0,0,0s0,0,0,0c0,0,0,0,0,0c0,0,0,0,0,0c0,0,0,0,0,0c0,0,0,0,0,0c0,0,0,0,0,0
	c0,0,0,0,0,0s0,0,0,0c0,0,0,0,0,0c0,0,0,0,0,0c0,0,0,0,0,0c0,0,0,0,0,0c0,0,0,0,0,0c0,0,0,0,0,0s0,0,0,0s0,0,0,0c0,0,0,0,0,0
	c0,0,0,0,0,0c0,0,0,0,0,0c0,0,0,0,0,0c0,0,0,0,0,0c0,0,0,0,0,0s0,0,0,0c0,0,0,0,0,0c0,0,0,0,0,0c0,0,0,0,0,0c0,0,0,0,0,0
	c0,0,0,0,0,0c0,0,0,0,0,0s0,0,0,0c0,0,0,0,0,0c0,0,0,0,0,0c0,0,0,0,0,0c0,0,0,0,0,0c0,0,0,0,0,0s0,0,0,0c0,0,0,0,0,0c0,0,0,0,0,0
	c0,0,0,0,0,0c0,0,0,0,0,0c0,0,0,0,0,0c0,0,0,0,0,0s0,0,0,0c0,0,0,0,0,0c0,0,0,0,0,0c0,0,0,0,0,0c0,0,0,0,0,0c0,0,0,0,0,0
	c0,0,0,0,0,0c0,0,0,0,0,0s0,0,0,0c0,0,0,0,0,0c0,0,0,0,0,0c0,0,0,0,0,0c0,0,0,0,0,0c0,0,0,0,0,0c0,0,0,0,0,0s0,0,0,0c0,0,0,0,0,0
	c0,0,0,0,0,0c0,0,0,0,0,0c0,0,0,0,0,0c0,0,0,0,0,0c0,0,0,0,0,0s0,0,0,0c0,0,0,0,0,0c0,0,0,0,0,0c0,0,0,0,0,0c0,0,0,0,0,0
	c0,0,0,0,0,0c0,0,0,0,0,0c0,0,0,0,0,0s0,0,0,0c0,0,0,0,0,0c0,0,0,0,0,0c0,0,0,0,0,0c0,0,0,0,0,0c0,0,0,0,0,0c0,0,0,0,0,0
	c0,0,0,0,0,0c0,0,0,0,0,0c0,0,0,0,0,0c0,0,0,0,0,0c0,0,0,0,0,0c0,0,0,0,0,0s0,0,0,0c0,0,0,0,0,0c0,0,0,0,0,0c0,0,0,0,0,0
	c0,0,0,0,0,0c0,0,0,0,0,0c0,0,0,0,0,0s0,0,0,0c0,0,0,0,0,0c0,0,0,0,0,0c0,0,0,0,0,0c0,0,0,0,0,0c0,0,0,0,0,0c0,0,0,0,0,0s0,0,0,0
	s0,0,0,0c0,0,0,0,0,0c0,0,0,0,0,0c0,0,0,0,0,0c0,0,0,0,0,0c0,0,0,0,0,0c0,0,0,0,0,0s0,0,0,0c0,0,0,0,0,0c0,0,0,0,0,0c0,0,0,0,0,0
	c0,0,0,0,0,0c0,0,0,0,0,0c0,0,0,0,0,0c0,0,0,0,0,0c0,0,0,0,0,0c0,0,0,0,0,0c0,0,0,0,0,0c0,0,0,0,0,0c0,0,0,0,0,0s0,0,0,0
	c0,0,0,0,0,0c0,0,0,0,0,0c0,0,0,0,0,0c0,0,0,0,0,0c0,0,0,0,0,0c0,0,0,0,0,0c0,0,0,0,0,0c0,0,0,0,0,0c0,0,0,0,0,0c0,0,0,0,0,0
	c0,0,0,0,0,0c0,0,0,0,0,0c0,0,0,0,0,0c0,0,0,0,0,0s0,0,0,0c0,0,0,0,0,0c0,0,0,0,0,0c0,0,0,0,0,0c0,0,0,0,0,0c0,0,0,0,0,0
	c0,0,0,0,0,0s0,0,0,0c0,0,0,0,0,0c0,0,0,0,0,0c0,0,0,0,0,0c0,0,0,0,0,0c0,0,0,0,0,0c0,0,0,0,0,0c0,0,0,0,0,0c0,0,0,0,0,0
	c0,0,0,0,0,0c0,0,0,0,0,0c0,0,0,0,0,0c0,0,0,0,0,0c0,0,0,0,0,0c0,0,0,0,0,0s0,0,0,0H1797.2z M1797.2,572.9v-48.7h-3v48.7H1797.2z
	 M1797.2,524.2c0-7.4-0.6-13.9-1.7-19.4l-2.9,0.6c1.1,5.3,1.7,11.6,1.7,18.8H1797.2z M1795.4,504.8c-1.1-5.7-3.3-10.4-6.7-14.2
	l-2.2,2c3,3.3,5,7.6,6,12.8L1795.4,504.8z M1788.8,490.6c-3.3-3.9-7.9-6.8-13.8-8.6l-0.9,2.9c5.4,1.7,9.5,4.3,12.4,7.7L1788.8,490.6
	z M1775,482c-5.7-1.8-13.2-2.7-22.3-2.7v3c8.9,0,16,0.9,21.3,2.6L1775,482z M1752.8,479.3c-5.6,0-11.6,0.5-17.8,1.4l0.5,3
	c6.1-0.9,11.9-1.4,17.3-1.4V479.3z M1735,480.7c-6.3,0.9-12.3,2.4-18.1,4.7l1.1,2.8c5.5-2.2,11.3-3.7,17.4-4.5L1735,480.7z
	 M1716.9,485.4c-5.8,2.2-10.9,5.2-15.3,9l1.9,2.3c4.2-3.5,9-6.4,14.5-8.5L1716.9,485.4z M1701.6,494.4c-4.5,3.8-7.7,8.7-9.5,14.5
	l2.9,0.9c1.6-5.3,4.4-9.6,8.5-13.1L1701.6,494.4z M1692.1,509.3v63.6h3v-63.6H1692.1z M1692.1,572.9c0,1.2,0,2.4-0.1,3.5l3,0.2
	c0.1-1.3,0.1-2.5,0.1-3.8H1692.1z M1691.9,576.4c-0.1,1.1-0.3,2-0.6,2.8l2.8,1.1c0.4-1.1,0.7-2.3,0.8-3.7L1691.9,576.4z
	 M1691.3,579.2c-0.3,0.7-0.7,1.3-1.3,1.8l2,2.3c0.9-0.8,1.6-1.8,2.1-3L1691.3,579.2z M1690.1,581c-0.3,0.3-0.8,0.5-1.7,0.5v3
	c1.4,0,2.6-0.3,3.6-1.2L1690.1,581z M1688.4,581.5c-1.1,0-1.9-0.2-2.4-0.6l-1.7,2.5c1.1,0.8,2.5,1.1,4.1,1.1V581.5z M1686.1,581
	c-0.6-0.5-1.1-1.2-1.5-1.9l-2.7,1.3c0.6,1.1,1.3,2.1,2.2,2.8L1686.1,581z M1684.7,579.2c-0.3-0.8-0.6-1.8-0.8-2.9l-3,0.5
	c0.2,1.3,0.5,2.5,0.9,3.6L1684.7,579.2z M1683.9,576.4c-0.1-1.2-0.1-2.4-0.1-3.5h-3c0,1.3,0.1,2.5,0.1,3.8L1683.9,576.4z
	 M1683.8,572.9v-91.1h-3v91.1H1683.8z M1683.8,481.8c0-1.4,0.3-2.6,0.8-3.7l-2.7-1.3c-0.8,1.5-1.1,3.2-1.1,5H1683.8z M1684.7,478
	c0.3-0.6,1.1-1.2,3.6-1.2v-3c-2.8,0-5.2,0.7-6.3,3L1684.7,478z M1688.2,476.8c2.2,0,2.8,0.6,3,1.1l2.8-1.2c-0.9-2.2-3.2-2.9-5.7-2.9
	V476.8z M1691.3,478c0.5,0.9,0.8,2.2,0.8,3.8h3c0-2-0.4-3.7-1.2-5.2L1691.3,478z M1692.1,481.8v17.7h3v-17.7H1692.1z M1694.9,500.1
	c2.5-5.8,6-10.4,10.5-13.8l-1.8-2.4c-4.9,3.7-8.7,8.7-11.4,14.9L1694.9,500.1z M1705.5,486.3c4.6-3.6,9.5-6.2,14.9-7.9l-0.9-2.9
	c-5.7,1.8-11,4.6-15.8,8.4L1705.5,486.3z M1720.3,478.4c5.5-1.8,11.1-3,16.7-3.6l-0.3-3c-5.8,0.6-11.6,1.8-17.3,3.7L1720.3,478.4z
	 M1737,474.8c5.8-0.6,11-0.8,15.7-0.8v-3c-4.8,0-10.2,0.3-16,0.9L1737,474.8z M1752.8,474c10,0,18.4,0.9,25.1,2.6l0.8-2.9
	c-7-1.8-15.6-2.7-25.8-2.7V474z M1777.9,476.6c6.7,1.6,12.1,4.4,16.1,8.2l2.1-2.2c-4.4-4.3-10.3-7.2-17.4-9L1777.9,476.6z
	 M1793.9,484.8c4.1,3.8,7,8.9,8.7,15.3l2.9-0.8c-1.8-6.9-5-12.5-9.6-16.7L1793.9,484.8z M1802.7,500.2c1.8,6.4,2.8,14.4,2.8,24.1h3
	c0-9.8-0.9-18.1-2.9-24.9L1802.7,500.2z M1805.4,524.2v48.7h3v-48.7H1805.4z M1999.1,618.4l-0.5-1.4l0,0l0,0L1999.1,618.4z
	 M2014.6,608l-1.2-1l0,0l0,0L2014.6,608z M2022.9,588.8l-1.5-0.3l0,0v0L2022.9,588.8z M2025.4,559.1h1.5l-3-0.4L2025.4,559.1z
	 M2011.9,575.8l-0.8-1.3l0,0v0L2011.9,575.8z M2001.4,580.3l-0.4-1.4l0,0L2001.4,580.3z M1989.8,583l0.2,1.5l0,0l0,0L1989.8,583z
	 M1978.2,584.1l-0.1-1.5l0,0L1978.2,584.1z M1942.2,581.7l-0.4,1.4l0,0l0,0L1942.2,581.7z M1925.3,572.5l-1.1,1v0l0,0L1925.3,572.5z
	 M1915.9,555.2l-1.4,0.4v0v0L1915.9,555.2z M1915.4,476.3l1,1.1l0,0v0L1915.4,476.3z M1921.8,476.3l-1,1.1l0,0l0.1,0L1921.8,476.3z
	 M1926,551.5l-1.5,0.3v0v0L1926,551.5z M1945.8,573.9l-0.4,1.5v0L1945.8,573.9z M2002.2,570.9l-0.5-1.4l0,0L2002.2,570.9z
	 M2016.7,562.8l-1-1.2v0l0,0L2016.7,562.8z M2025.4,549.3l1.4,0.4l0.1-0.2v-0.2H2025.4z M2025.6,481.8l-1.5-0.2v0.1l0,0.1
	L2025.6,481.8z M2027.9,476.3l1,1.1l0,0v0L2027.9,476.3z M2034,476.3l-1,1.1l0,0l0,0L2034,476.3z M2035.7,478.5l-1.4,0.6l0,0.1
	l0,0.1L2035.7,478.5z M2033.2,590.6l-1.5-0.4v0L2033.2,590.6z M2022.3,613.8l-1.1-1l0,0L2022.3,613.8z M1955,628.7l-0.2,1.5l0,0
	L1955,628.7z M1941.3,625.5l0.5-1.4l0,0l0,0L1941.3,625.5z M1925.8,616.8l-1.1,1.1l0.1,0.1l0.1,0.1L1925.8,616.8z M1925.7,610.7
	l-1.1-1l-0.1,0.1l-0.1,0.1L1925.7,610.7z M1931.5,610.3l0.9-1.2l0,0l0,0L1931.5,610.3z M1937.7,614.2l0.8-1.3l0,0l0,0L1937.7,614.2z
	 M1946.4,617.9l0.5-1.4l0,0l0,0L1946.4,617.9z M1958.5,620.5l0.2-1.5l0,0l0,0L1958.5,620.5z M1974.9,623.2c9.8,0,18-1.1,24.7-3.3
	l-0.9-2.8c-6.3,2.1-14.2,3.2-23.7,3.2V623.2z M1999.6,619.9c6.7-2.1,12.2-5.8,16.2-10.9l-2.4-1.9c-3.6,4.6-8.5,7.9-14.8,9.9
	L1999.6,619.9z M2015.8,609c4.1-5,7-11.7,8.6-19.9l-2.9-0.6c-1.6,7.9-4.2,14.1-8,18.6L2015.8,609z M2024.3,589.1
	c1.7-8.1,2.6-18.1,2.6-30h-3c0,11.8-0.8,21.5-2.5,29.4L2024.3,589.1z M2024,558.7c-1,3.6-2.6,6.7-4.8,9.3l2.3,2
	c2.5-2.9,4.3-6.4,5.4-10.4L2024,558.7z M2019.2,568c-2.2,2.6-4.9,4.8-8,6.6l1.5,2.6c3.4-2,6.4-4.4,8.8-7.2L2019.2,568z
	 M2011.2,574.5c-3.1,1.8-6.5,3.3-10.2,4.4l0.8,2.9c3.9-1.2,7.6-2.7,10.9-4.6L2011.2,574.5z M2000.9,578.9c-3.7,1.1-7.5,2-11.3,2.6
	l0.5,3c4-0.7,7.9-1.6,11.7-2.7L2000.9,578.9z M1989.6,581.5c-3.9,0.6-7.7,0.9-11.5,1.1l0.2,3c3.9-0.2,7.8-0.6,11.8-1.1L1989.6,581.5
	z M1978.1,582.6c-3.7,0.2-7.2,0.3-10.3,0.3v3c3.2,0,6.7-0.1,10.5-0.3L1978.1,582.6z M1967.8,582.9c-10.1,0-18.4-0.9-25.2-2.6
	l-0.8,2.9c7.1,1.8,15.8,2.7,26,2.7V582.9z M1942.6,580.3c-6.7-1.8-12.1-4.8-16.2-8.9l-2.1,2.1c4.5,4.5,10.4,7.7,17.5,9.7
	L1942.6,580.3z M1926.4,571.4c-4.1-4.2-7.1-9.7-9-16.6l-2.9,0.8c2,7.3,5.3,13.3,9.8,17.9L1926.4,571.4z M1917.3,554.8
	c-1.8-7-2.8-15.7-2.8-26.2h-3c0,10.7,0.9,19.7,2.9,27L1917.3,554.8z M1914.6,528.6v-43.2h-3v43.2H1914.6z M1914.6,485.4
	c0-1.2,0-2.4,0.1-3.5l-3-0.2c-0.1,1.3-0.1,2.5-0.1,3.8H1914.6z M1914.7,481.9c0.1-1.1,0.3-2,0.6-2.8l-2.8-1.1
	c-0.4,1.1-0.7,2.3-0.8,3.7L1914.7,481.9z M1915.3,479.1c0.3-0.8,0.7-1.3,1.1-1.7l-2-2.3c-0.9,0.7-1.5,1.7-2,2.8L1915.3,479.1z
	 M1916.4,477.4c0.4-0.3,1-0.6,2.1-0.6v-3c-1.6,0-3,0.4-4.1,1.4L1916.4,477.4z M1918.5,476.8c1.2,0,1.9,0.3,2.3,0.6l2-2.3
	c-1.1-1-2.6-1.4-4.2-1.4V476.8z M1920.9,477.5c0.5,0.4,0.9,0.9,1.2,1.6l2.8-1.1c-0.5-1.2-1.2-2.2-2.2-2.9L1920.9,477.5z
	 M1922.1,479.1c0.3,0.8,0.5,1.7,0.6,2.8l3-0.2c-0.1-1.3-0.4-2.6-0.8-3.7L1922.1,479.1z M1922.7,481.9c0.1,1.2,0.1,2.4,0.1,3.5h3
	c0-1.3-0.1-2.5-0.2-3.8L1922.7,481.9z M1922.8,485.4v43.2h3v-43.2H1922.8z M1922.8,528.6c0,9.2,0.6,17,1.7,23.2l2.9-0.5
	c-1.1-6-1.7-13.5-1.7-22.7H1922.8z M1924.5,551.8c1.3,6.3,3.5,11.4,6.9,15.3l2.3-2c-3-3.4-5.1-8-6.3-13.9L1924.5,551.8z
	 M1931.5,567.1c3.4,3.9,8.1,6.6,14,8.2l0.8-2.9c-5.4-1.4-9.5-3.9-12.5-7.3L1931.5,567.1z M1945.4,575.3c5.9,1.5,13.3,2.3,22.3,2.3
	v-3c-8.8,0-16-0.7-21.6-2.2L1945.4,575.3z M1967.8,577.6c5.4,0,11.2-0.4,17.3-1.1l-0.4-3c-6,0.7-11.7,1.1-17,1.1V577.6z
	 M1985.1,576.5c6.2-0.8,12.1-2.1,17.6-4.2l-1-2.8c-5.3,1.9-11,3.3-17,4L1985.1,576.5z M2002.7,572.3c5.7-2,10.7-4.8,14.9-8.4
	l-1.9-2.3c-4,3.3-8.6,6-14,7.9L2002.7,572.3z M2017.7,563.9c4.5-3.7,7.5-8.4,9.2-14.2l-2.9-0.8c-1.5,5.3-4.3,9.5-8.2,12.8
	L2017.7,563.9z M2026.9,549.3v-63.8h-3v63.8H2026.9z M2026.9,485.4c0-1.2,0-2.4,0.1-3.5l-3-0.2c-0.1,1.3-0.1,2.5-0.1,3.8H2026.9z
	 M2027,482c0.2-1.1,0.4-2.1,0.8-2.9l-2.8-1.1c-0.4,1.1-0.7,2.3-0.9,3.6L2027,482z M2027.8,479.1c0.3-0.8,0.7-1.3,1.1-1.7l-2-2.3
	c-0.9,0.7-1.5,1.7-2,2.8L2027.8,479.1z M2028.9,477.4c0.4-0.4,1-0.6,1.8-0.6v-3c-1.4,0-2.7,0.4-3.8,1.4L2028.9,477.4z M2030.8,476.8
	c1.2,0,1.9,0.3,2.3,0.6l2-2.3c-1.1-1-2.6-1.4-4.2-1.4V476.8z M2033.1,477.5c0.5,0.4,0.9,0.9,1.2,1.6l2.8-1.1
	c-0.5-1.2-1.2-2.2-2.2-2.9L2033.1,477.5z M2034.3,479.2c0.4,0.7,0.6,1.6,0.7,2.7l3-0.2c-0.1-1.4-0.4-2.7-1-3.8L2034.3,479.2z
	 M2035,481.9c0.1,1.2,0.1,2.4,0.1,3.5h3c0-1.3-0.1-2.5-0.2-3.8L2035,481.9z M2035.2,485.4v69h3v-69H2035.2z M2035.2,554.5
	c0,14.4-1.2,26.3-3.5,35.8l2.9,0.7c2.4-9.8,3.6-22,3.6-36.5H2035.2z M2031.7,590.3c-2.2,9.5-5.7,17-10.5,22.6l2.3,1.9
	c5.2-6,8.9-14,11.2-23.8L2031.7,590.3z M2021.2,612.8c-4.8,5.7-10.9,9.7-18.4,12l0.9,2.9c8-2.5,14.7-6.8,19.8-13L2021.2,612.8z
	 M2002.8,624.9c-7.6,2.4-16.9,3.6-27.8,3.6v3c11.2,0,20.8-1.2,28.7-3.7L2002.8,624.9z M1974.9,628.5c-7.8,0-14.4-0.4-19.7-1.2
	l-0.5,3c5.5,0.9,12.3,1.3,20.2,1.3V628.5z M1955.2,627.2c-5.3-0.8-9.7-1.9-13.4-3.2l-1,2.8c3.9,1.3,8.5,2.4,13.9,3.3L1955.2,627.2z
	 M1941.8,624c-3.6-1.2-6.5-2.5-8.8-4.1l-1.6,2.5c2.6,1.7,5.8,3.1,9.5,4.4L1941.8,624z M1933,620c-2.4-1.6-4.5-3-6.2-4.4l-1.9,2.4
	c1.8,1.4,4,3,6.4,4.6L1933,620z M1926.9,615.7c-0.5-0.5-0.7-1-0.7-1.6h-3c0,1.4,0.5,2.7,1.6,3.7L1926.9,615.7z M1926.2,614.1
	c0-1.1,0.3-1.9,0.7-2.5l-2.5-1.7c-0.8,1.2-1.3,2.7-1.3,4.2H1926.2z M1926.8,611.7c0.4-0.4,1-0.8,2.3-0.8v-3c-1.8,0-3.4,0.5-4.5,1.8
	L1926.8,611.7z M1929.1,610.9c0.4,0,0.9,0.1,1.6,0.6l1.7-2.5c-1-0.7-2.1-1.1-3.2-1.1V610.9z M1930.6,611.5c1.8,1.4,4,2.7,6.3,4
	l1.5-2.6c-2.3-1.3-4.3-2.6-6-3.8L1930.6,611.5z M1936.9,615.5c2.5,1.5,5.6,2.7,9,3.8l0.9-2.9c-3.3-1-6.1-2.2-8.4-3.5L1936.9,615.5z
	 M1945.9,619.3c3.6,1.2,7.7,2.1,12.3,2.7l0.4-3c-4.5-0.6-8.5-1.5-11.8-2.6L1945.9,619.3z M1958.2,622c4.8,0.8,10.3,1.1,16.7,1.1v-3
	c-6.2,0-11.6-0.4-16.2-1.1L1958.2,622z"/>
<path class="st2" d="M2.5,367h2436c1.4,0,2.5,1.1,2.5,2.5l0,0c0,1.4-1.1,2.5-2.5,2.5H2.5c-1.4,0-2.5-1.1-2.5-2.5l0,0
	C0,368.1,1.1,367,2.5,367z"/>
<path class="st0" d="M602.4,144.7L514.9,303H482l-86.9-158.3h33.6L498.5,273l70.3-128.4H602.4z M806.2,195c0,7-1.3,13.6-3.9,19.7
	c-2.6,6.1-6.2,11.4-10.8,16c-4.5,4.5-9.8,8.1-16,10.7c-6.1,2.6-12.6,3.9-19.5,3.9H645.4c2.1,4.2,4.6,8.1,7.7,11.7
	c3.1,3.6,6.6,6.6,10.4,9.1c3.8,2.5,8,4.5,12.5,5.9c4.6,1.4,9.4,2.1,14.3,2.1h94.2V303h-94.2c-10.9-0.1-21.1-2.2-30.7-6.3
	c-9.6-4.2-17.9-9.9-25-17c-7-7.2-12.6-15.6-16.7-25.2c-4.1-9.6-6.2-19.8-6.2-30.7s2.1-21.1,6.2-30.7c4.1-9.6,9.7-17.9,16.7-25
	c7.1-7.2,15.5-12.9,25-17c9.6-4.2,19.8-6.4,30.7-6.5h65.4c6.9,0,13.5,1.3,19.5,3.9c6.2,2.6,11.5,6.2,16,10.8
	c4.6,4.5,8.2,9.8,10.8,15.9C804.8,181.4,806.2,188,806.2,195z M755.8,216.7c2.9,0,5.7-0.6,8.3-1.7s4.9-2.7,6.9-4.6
	c2-2,3.5-4.3,4.6-6.9c1.1-2.6,1.7-5.4,1.7-8.4c0-2.9-0.6-5.7-1.7-8.3s-2.7-4.9-4.6-6.9c-2-2-4.3-3.5-6.9-4.6
	c-2.6-1.2-5.4-1.8-8.3-1.8h-65.4c-6.4,0-12.4,1.1-18,3.4c-5.5,2.3-10.5,5.3-14.9,9.3c-4.3,3.8-7.9,8.4-10.8,13.8
	c-2.8,5.3-4.6,10.9-5.5,16.9H755.8z M991.8,173.3h-108c-3,0-5.8,0.6-8.4,1.8c-2.6,1.1-4.9,2.7-6.9,4.6c-2,2-3.5,4.3-4.6,6.9
	c-1.1,2.6-1.7,5.4-1.7,8.3v108h-28.8V195c0-7,1.3-13.6,3.9-19.7c2.6-6.1,6.2-11.4,10.8-15.9c4.6-4.6,9.9-8.2,16-10.8
	s12.7-3.9,19.7-3.9h108V173.3z M1229.6,303h-129.8c-14,0-26.7-2.6-38.1-7.9c-11.4-5.3-21.2-12.4-29.4-21.5
	c-8.1-9.1-14.3-19.8-18.7-32.1c-4.4-12.3-6.6-25.4-6.6-39.4c0-13.9,2.2-26.9,6.6-39.1c4.4-12.3,10.6-23,18.7-32.1
	c8.2-9.2,17.9-16.4,29.4-21.7c11.4-5.3,24.1-8,38.1-8h129.8v28.8h-129.8c-9.9,0-18.9,1.9-26.9,5.8c-7.9,3.8-14.6,8.9-20.1,15.5
	c-5.4,6.5-9.7,14.1-12.7,22.8c-2.9,8.7-4.4,18-4.4,28c0,9.9,1.4,19.3,4.4,28.1c3,8.7,7.2,16.4,12.7,22.9
	c5.5,6.5,12.2,11.6,20.1,15.3c8,3.8,16.9,5.6,26.9,5.6h101v-57.5h-122.1v-28.8h150.9V303z M1426.3,173.3h-108c-3,0-5.8,0.6-8.4,1.8
	c-2.6,1.1-4.9,2.7-6.9,4.6c-2,2-3.5,4.3-4.6,6.9c-1.1,2.6-1.7,5.4-1.7,8.3v108h-28.8V195c0-7,1.3-13.6,3.9-19.7
	c2.6-6.1,6.2-11.4,10.8-15.9c4.6-4.6,9.9-8.2,16-10.8c6.1-2.6,12.7-3.9,19.7-3.9h108V173.3z M1639.1,223.8c0,10.9-2.1,21.1-6.2,30.7
	c-4.1,9.6-9.8,18-16.9,25.2c-7,7.1-15.3,12.8-24.9,17c-9.6,4.1-19.8,6.2-30.7,6.3h-44.3c-10.9-0.1-21.1-2.2-30.7-6.3
	c-9.6-4.2-17.9-9.9-25-17c-7-7.2-12.6-15.6-16.7-25.2c-4.1-9.6-6.2-19.8-6.2-30.7s2.1-21.1,6.2-30.7c4.1-9.7,9.7-18,16.7-25.2
	c7.1-7.2,15.5-12.9,25-17c9.6-4.2,19.8-6.3,30.7-6.3h44.3c7.2,0,14.2,0.9,21,2.8s13,4.5,18.8,8c5.8,3.5,11.1,7.6,15.9,12.5
	c4.8,4.8,8.9,10.1,12.2,16c3.4,5.8,6,12.1,7.9,18.8C1638.1,209.6,1639.1,216.6,1639.1,223.8z M1610.4,223.8c0-6.9-1.3-13.5-3.9-19.5
	c-2.6-6.1-6.2-11.4-10.7-15.9c-4.5-4.6-9.8-8.2-15.9-10.8c-6-2.7-12.5-4.1-19.4-4.2h-44.3c-6.9,0.1-13.5,1.5-19.6,4.2
	c-6,2.6-11.2,6.2-15.7,10.8c-4.5,4.5-8.1,9.8-10.7,15.9c-2.5,6.1-3.8,12.6-3.8,19.5c0,6.9,1.3,13.5,3.8,19.5
	c2.6,6.1,6.2,11.4,10.7,16c4.5,4.5,9.7,8.1,15.7,10.8c6.1,2.6,12.6,3.9,19.6,3.9h44.3c6.9,0,13.4-1.3,19.4-3.9
	c6.1-2.7,11.4-6.3,15.9-10.8c4.5-4.6,8.1-9.9,10.7-16C1609.1,237.3,1610.4,230.8,1610.4,223.8z M1905.1,223.8
	c0,10.9-2.1,21.1-6.2,30.8c-4.1,9.6-9.8,18-16.9,25.2c-7.1,7.1-15.5,12.8-25,17c-9.6,4.1-19.8,6.2-30.7,6.2h-79.7
	c-10.9,0-21.1-2.1-30.7-6.2c-9.6-4.2-17.9-9.9-25-17c-7-7.2-12.6-15.6-16.7-25.2c-4.1-9.7-6.2-19.9-6.2-30.8v-79.2h28.8v79.2
	c0,6.9,1.3,13.5,3.8,19.5c2.6,6,6.2,11.3,10.7,15.9c4.5,4.5,9.8,8.1,15.8,10.8c6.1,2.6,12.6,4,19.6,4.1h25.6V144.7h28.6v129.5h25.6
	c6.9-0.1,13.4-1.5,19.4-4.1c6.1-2.7,11.4-6.3,15.9-10.8c4.5-4.6,8.1-9.9,10.7-15.9c2.6-6.1,3.9-12.6,3.9-19.5v-79.2h28.8V223.8z
	 M1999.6,303h-28.8V173.3h-43.2v-28.7h43.2V87h28.8v57.7h100.8v28.7h-100.8V303z M2309.9,303H2281v-79.2c0-6.9-1.3-13.5-3.9-19.5
	c-2.6-6.1-6.2-11.4-10.7-15.9c-4.5-4.6-9.8-8.2-15.9-10.8c-6-2.7-12.5-4.1-19.4-4.2h-79.2V303h-28.8V87h28.8v57.7h79.2
	c10.9,0,21.1,2.1,30.7,6.3c9.6,4.1,17.9,9.8,25,17c7.1,7.1,12.8,15.5,16.9,25.2c4.1,9.6,6.2,19.8,6.2,30.7V303z"/>
<path class="st0" d="M602.4,144.7l2.6,1.5l2.5-4.5h-5.1V144.7z M514.9,303v3h1.8l0.9-1.5L514.9,303z M482,303l-2.6,1.4l0.9,1.6h1.8
	V303z M395.1,144.7v-3H390l2.4,4.4L395.1,144.7z M428.7,144.7l2.6-1.4l-0.9-1.6h-1.8V144.7z M498.5,273l-2.6,1.4l2.6,4.8l2.6-4.8
	L498.5,273z M568.8,144.7v-3H567l-0.9,1.6L568.8,144.7z M599.8,143.2l-87.5,158.3l5.3,2.9L605,146.1L599.8,143.2z M514.9,300H482v6
	h32.9V300z M484.6,301.6l-86.9-158.3l-5.3,2.9l86.9,158.3L484.6,301.6z M395.1,147.7h33.6v-6h-33.6V147.7z M426.1,146.1l69.8,128.4
	l5.3-2.9l-69.8-128.4L426.1,146.1z M501.1,274.5l70.3-128.4l-5.3-2.9l-70.3,128.4L501.1,274.5z M568.8,147.7h33.6v-6h-33.6V147.7z
	 M775.4,241.4l-1.2-2.8l0,0l0,0L775.4,241.4z M645.4,245.3v-3h-4.8l2.1,4.3L645.4,245.3z M676.1,272.1l-0.9,2.9l0,0l0,0L676.1,272.1
	z M784.6,274.2h3v-3h-3V274.2z M784.6,303v3h3v-3H784.6z M690.4,303l0,3h0h0V303z M659.8,296.7l-1.2,2.7l0,0l0,0L659.8,296.7z
	 M634.7,279.7l-2.1,2.1l0,0l0,0L634.7,279.7z M634.7,168.1l-2.1-2.1l0,0L634.7,168.1z M659.8,151.1l1.2,2.8l0,0l0,0L659.8,151.1z
	 M690.4,144.7v-3h0h0L690.4,144.7z M775.4,148.6l-1.2,2.8l0,0l0,0L775.4,148.6z M791.4,159.4l-2.1,2.1l0,0l0,0L791.4,159.4z
	 M764.1,175.2l-1.3,2.7l0,0l0,0L764.1,175.2z M672.4,176.7l-1.1-2.8l0,0l0,0L672.4,176.7z M657.5,186l2,2.2l0,0L657.5,186z
	 M646.7,199.8l-2.6-1.4l0,0l0,0L646.7,199.8z M641.2,216.7l-3-0.4l-0.5,3.4h3.5V216.7z M803.2,195c0,6.6-1.2,12.8-3.7,18.5l5.5,2.4
	c2.8-6.5,4.2-13.5,4.2-20.9H803.2z M799.5,213.5c-2.5,5.8-5.9,10.8-10.2,15.1l4.2,4.2c4.9-4.9,8.7-10.5,11.5-17L799.5,213.5z
	 M789.3,228.6c-4.2,4.2-9.2,7.6-15.1,10l2.3,5.5c6.5-2.8,12.2-6.5,17-11.3L789.3,228.6z M774.2,238.7c-5.7,2.5-11.8,3.7-18.4,3.7v6
	c7.3,0,14.2-1.4,20.7-4.2L774.2,238.7z M755.8,242.3H645.4v6h110.4V242.3z M642.7,246.7c2.2,4.5,4.9,8.6,8.2,12.3l4.5-3.9
	c-2.9-3.4-5.4-7-7.3-11L642.7,246.7z M650.9,259c3.3,3.8,6.9,7,11,9.7l3.3-5c-3.6-2.4-6.9-5.2-9.8-8.6L650.9,259z M661.9,268.7
	c4.1,2.7,8.5,4.8,13.3,6.3l1.8-5.7c-4.2-1.3-8.2-3.2-11.8-5.5L661.9,268.7z M675.2,274.9c4.9,1.5,10,2.2,15.2,2.2v-6
	c-4.7,0-9.2-0.7-13.5-2L675.2,274.9z M690.4,277.2h94.2v-6h-94.2V277.2z M781.6,274.2V303h6v-28.8H781.6z M784.6,300h-94.2v6h94.2
	V300z M690.4,300c-10.5-0.1-20.3-2.1-29.5-6.1l-2.4,5.5c9.9,4.3,20.6,6.5,31.8,6.6L690.4,300z M661,293.9
	c-9.2-4.1-17.3-9.5-24.1-16.4l-4.2,4.2c7.4,7.4,16.1,13.3,25.9,17.6L661,293.9z M636.9,277.6c-6.8-6.9-12.1-15-16.1-24.3l-5.5,2.4
	c4.3,9.9,10,18.6,17.3,26.1L636.9,277.6z M620.8,253.3c-4-9.2-5.9-19-5.9-29.5h-6c0,11.3,2.1,21.9,6.4,31.8L620.8,253.3z
	 M614.8,223.8c0-10.5,2-20.3,5.9-29.5l-5.5-2.4c-4.3,10-6.4,20.6-6.4,31.8H614.8z M620.8,194.4c4-9.2,9.4-17.3,16.1-24.1l-4.3-4.2
	c-7.3,7.4-13.1,16.1-17.4,26L620.8,194.4z M636.9,170.2c6.8-6.9,14.9-12.4,24.1-16.4l-2.4-5.5c-9.9,4.3-18.6,10.2-26,17.7
	L636.9,170.2z M661,153.9c9.2-4,19-6.1,29.5-6.2l-0.1-6c-11.3,0.1-21.9,2.3-31.8,6.7L661,153.9z M690.4,147.7h65.4v-6h-65.4V147.7z
	 M755.8,147.7c6.5,0,12.7,1.2,18.4,3.7l2.4-5.5c-6.5-2.8-13.4-4.2-20.7-4.2V147.7z M774.2,151.4c5.8,2.5,10.8,5.9,15.1,10.2l4.3-4.2
	c-4.8-4.9-10.5-8.7-17-11.5L774.2,151.4z M789.3,161.6c4.3,4.2,7.7,9.2,10.2,14.9l5.5-2.4c-2.8-6.4-6.6-12.1-11.5-16.8L789.3,161.6z
	 M799.5,176.5c2.5,5.7,3.7,11.9,3.7,18.5h6c0-7.4-1.4-14.4-4.2-20.9L799.5,176.5z M755.8,219.7c3.3,0,6.5-0.6,9.5-1.9l-2.4-5.5
	c-2.2,1-4.6,1.4-7.1,1.4V219.7z M765.3,217.7c3-1.3,5.6-3,7.8-5.3l-4.2-4.2c-1.7,1.7-3.7,3-6,4L765.3,217.7z M773.1,212.4
	c2.2-2.2,4-4.9,5.3-7.8l-5.5-2.4c-1,2.3-2.3,4.3-4,6L773.1,212.4z M778.4,204.6c1.3-3,1.9-6.2,1.9-9.6h-6c0,2.6-0.5,5-1.4,7.3
	L778.4,204.6z M780.3,195c0-3.3-0.6-6.5-1.9-9.5l-5.5,2.4c1,2.2,1.4,4.6,1.4,7.1H780.3z M778.4,185.5c-1.3-3-3-5.6-5.3-7.8l-4.2,4.2
	c1.7,1.7,3,3.7,4,6L778.4,185.5z M773.1,177.7c-2.2-2.2-4.9-4-7.8-5.3l-2.4,5.5c2.3,1,4.3,2.3,6,4L773.1,177.7z M765.4,172.5
	c-3-1.4-6.2-2.1-9.6-2.1v6c2.5,0,4.8,0.5,7,1.5L765.4,172.5z M755.8,170.3h-65.4v6h65.4V170.3z M690.4,170.3
	c-6.7,0-13.1,1.2-19.1,3.6l2.2,5.6c5.3-2.1,10.9-3.2,16.9-3.2V170.3z M671.3,173.9c-5.8,2.4-11.1,5.7-15.8,9.8l4,4.5
	c4.1-3.7,8.8-6.6,14-8.7L671.3,173.9z M655.5,183.8c-4.6,4.1-8.4,9-11.5,14.6l5.3,2.9c2.8-5.1,6.1-9.4,10.2-13L655.5,183.8z
	 M644,198.4c-3,5.6-4.9,11.5-5.8,17.9l5.9,0.8c0.8-5.7,2.5-10.9,5.2-15.9L644,198.4z M641.2,219.7h114.6v-6H641.2V219.7z
	 M991.8,173.3v3h3v-3H991.8z M875.3,175.2l1.2,2.8l0,0l0,0L875.3,175.2z M862.1,303v3h3v-3H862.1z M833.3,303h-3v3h3V303z
	 M848.1,159.4l2.1,2.1l0,0l0,0L848.1,159.4z M991.8,144.7h3v-3h-3V144.7z M991.8,170.3h-108v6h108V170.3z M883.8,170.3
	c-3.4,0-6.7,0.7-9.7,2.1l2.5,5.4c2.2-1,4.6-1.5,7.2-1.5V170.3z M874.2,172.4c-3,1.3-5.6,3-7.8,5.3l4.2,4.2c1.7-1.7,3.7-3,6-4
	L874.2,172.4z M866.3,177.7c-2.2,2.2-4,4.9-5.3,7.8l5.5,2.4c1-2.3,2.3-4.3,4-6L866.3,177.7z M861.1,185.5c-1.3,3-1.9,6.2-1.9,9.5h6
	c0-2.5,0.5-4.9,1.4-7.1L861.1,185.5z M859.1,195v108h6V195H859.1z M862.1,300h-28.8v6h28.8V300z M836.3,303V195h-6v108H836.3z
	 M836.3,195c0-6.6,1.2-12.8,3.7-18.5l-5.5-2.4c-2.8,6.5-4.2,13.5-4.2,20.9H836.3z M840,176.5c2.5-5.7,5.9-10.7,10.2-14.9l-4.2-4.3
	c-4.9,4.8-8.7,10.4-11.5,16.8L840,176.5z M850.2,161.5c4.3-4.3,9.3-7.7,15.1-10.2l-2.4-5.5c-6.4,2.8-12.1,6.6-17,11.5L850.2,161.5z
	 M865.3,151.3c5.7-2.5,11.9-3.7,18.5-3.7v-6c-7.4,0-14.4,1.4-20.9,4.2L865.3,151.3z M883.8,147.7h108v-6h-108V147.7z M988.8,144.7
	v28.7h6v-28.7H988.8z M1229.6,303v3h3v-3H1229.6z M1032.3,273.6l-2.2,2v0l0,0L1032.3,273.6z M1013.6,163.1l2.8,1v0L1013.6,163.1z
	 M1032.3,131l-2.2-2v0L1032.3,131z M1061.7,109.4l1.3,2.7l0,0l0,0L1061.7,109.4z M1229.6,101.3h3v-3h-3V101.3z M1229.6,130.2v3h3v-3
	H1229.6z M1072.9,135.9l1.3,2.7l0,0l0,0L1072.9,135.9z M1052.8,151.4l-2.3-1.9v0L1052.8,151.4z M1040.2,174.2l-2.8-1l0,0v0
	L1040.2,174.2z M1040.2,230.3l-2.8,0.9v0l0,0L1040.2,230.3z M1052.8,253.2l-2.3,1.9l0,0l0,0L1052.8,253.2z M1072.9,268.5l-1.3,2.7
	l0,0L1072.9,268.5z M1200.8,274.2v3h3v-3H1200.8z M1200.8,216.7h3v-3h-3V216.7z M1078.7,216.7h-3v3h3V216.7z M1078.7,187.8v-3h-3v3
	H1078.7z M1229.6,187.8h3v-3h-3V187.8z M1229.6,300h-129.8v6h129.8V300z M1099.8,300c-13.6,0-25.8-2.6-36.9-7.6l-2.5,5.5
	c11.9,5.4,25,8.1,39.4,8.1V300z M1062.9,292.4c-11.1-5.1-20.5-12-28.4-20.8l-4.5,4c8.4,9.4,18.6,16.8,30.4,22.2L1062.9,292.4z
	 M1034.5,271.6c-7.8-8.8-13.8-19.1-18.1-31.1l-5.7,2c4.5,12.6,11,23.6,19.3,33L1034.5,271.6z M1016.4,240.5
	c-4.3-11.9-6.4-24.7-6.4-38.4h-6c0,14.3,2.3,27.8,6.8,40.4L1016.4,240.5z M1010,202.2c0-13.6,2.2-26.2,6.4-38.1l-5.6-2
	c-4.5,12.5-6.8,25.9-6.8,40.1H1010z M1016.4,164.1c4.3-11.9,10.3-22.3,18.1-31.1l-4.5-4c-8.3,9.4-14.8,20.4-19.3,33L1016.4,164.1z
	 M1034.5,133c7.9-8.9,17.3-15.8,28.4-20.9l-2.5-5.5c-11.8,5.4-21.9,12.9-30.4,22.4L1034.5,133z M1062.9,112.1
	c11-5.1,23.3-7.7,36.8-7.7v-6c-14.4,0-27.5,2.7-39.4,8.3L1062.9,112.1z M1099.8,104.3h129.8v-6h-129.8V104.3z M1226.6,101.3v28.8h6
	v-28.8H1226.6z M1229.6,127.2h-129.8v6h129.8V127.2z M1099.8,127.2c-10.3,0-19.7,2-28.2,6.1l2.6,5.4c7.5-3.6,16-5.5,25.6-5.5V127.2z
	 M1071.6,133.2c-8.3,3.9-15.3,9.3-21.1,16.2l4.6,3.9c5.3-6.2,11.6-11.1,19.1-14.7L1071.6,133.2z M1050.5,149.5
	c-5.7,6.8-10.1,14.7-13.2,23.7l5.7,2c2.9-8.4,6.9-15.7,12.1-21.8L1050.5,149.5z M1037.3,173.2c-3,9-4.5,18.7-4.5,28.9h6
	c0-9.6,1.4-18.6,4.2-27L1037.3,173.2z M1032.8,202.2c0,10.2,1.5,19.9,4.5,29.1l5.7-1.9c-2.8-8.5-4.2-17.5-4.2-27.2H1032.8z
	 M1037.3,231.3c3.1,9,7.5,17,13.2,23.9l4.6-3.8c-5.2-6.3-9.2-13.6-12.1-22L1037.3,231.3z M1050.5,255.2c5.8,6.8,12.9,12.2,21.1,16.1
	l2.6-5.4c-7.5-3.6-13.9-8.4-19.1-14.6L1050.5,255.2z M1071.6,271.3c8.4,4,17.8,5.9,28.1,5.9v-6c-9.6,0-18.1-1.8-25.6-5.3
	L1071.6,271.3z M1099.8,277.2h101v-6h-101V277.2z M1203.8,274.2v-57.5h-6v57.5H1203.8z M1200.8,213.7h-122.1v6h122.1V213.7z
	 M1081.7,216.7v-28.8h-6v28.8H1081.7z M1078.7,190.8h150.9v-6h-150.9V190.8z M1226.6,187.8V303h6V187.8H1226.6z M1426.3,173.3v3h3
	v-3H1426.3z M1309.9,175.2l1.2,2.8l0,0l0,0L1309.9,175.2z M1296.7,303v3h3v-3H1296.7z M1267.8,303h-3v3h3V303z M1282.6,159.4
	l2.1,2.1l0,0l0,0L1282.6,159.4z M1426.3,144.7h3v-3h-3V144.7z M1426.3,170.3h-108v6h108V170.3z M1318.3,170.3
	c-3.4,0-6.7,0.7-9.7,2.1l2.5,5.4c2.2-1,4.6-1.5,7.2-1.5V170.3z M1308.7,172.4c-3,1.3-5.6,3-7.8,5.3l4.3,4.2c1.7-1.7,3.7-3,6-4
	L1308.7,172.4z M1300.9,177.7c-2.2,2.2-4,4.9-5.3,7.8l5.5,2.4c1-2.3,2.3-4.3,4-6L1300.9,177.7z M1295.6,185.5
	c-1.3,3-1.9,6.2-1.9,9.5h6c0-2.5,0.5-4.9,1.4-7.1L1295.6,185.5z M1293.7,195v108h6V195H1293.7z M1296.7,300h-28.8v6h28.8V300z
	 M1270.8,303V195h-6v108H1270.8z M1270.8,195c0-6.6,1.2-12.8,3.7-18.5l-5.5-2.4c-2.8,6.5-4.2,13.5-4.2,20.9H1270.8z M1274.5,176.5
	c2.5-5.7,5.9-10.7,10.2-14.9l-4.2-4.3c-4.9,4.8-8.7,10.4-11.5,16.8L1274.5,176.5z M1284.7,161.5c4.3-4.3,9.3-7.7,15.1-10.2l-2.4-5.5
	c-6.4,2.8-12.1,6.6-17,11.5L1284.7,161.5z M1299.8,151.3c5.7-2.5,11.8-3.7,18.5-3.7v-6c-7.4,0-14.4,1.4-20.9,4.2L1299.8,151.3z
	 M1318.3,147.7h108v-6h-108V147.7z M1423.3,144.7v28.7h6v-28.7H1423.3z M1616,279.7l-2.1-2.1l0,0L1616,279.7z M1591.1,296.7l1.2,2.8
	l0,0l0,0L1591.1,296.7z M1560.5,303v3h0h0L1560.5,303z M1516.2,303l0,3h0h0V303z M1485.5,296.7l-1.2,2.7l0,0l0,0L1485.5,296.7z
	 M1460.5,279.7l-2.1,2.1l0,0l0,0L1460.5,279.7z M1443.8,193.2l2.8,1.2l0,0L1443.8,193.2z M1460.5,168l-2.1-2.1l0,0L1460.5,168z
	 M1485.5,151l1.2,2.8l0,0l0,0L1485.5,151z M1616.2,168l-2.2,2.1l0,0l0,0L1616.2,168z M1628.4,184l-2.6,1.5v0l0,0L1628.4,184z
	 M1595.8,188.4l-2.2,2.1l0,0l0,0L1595.8,188.4z M1579.9,177.6l-1.2,2.7l0,0l0,0L1579.9,177.6z M1560.5,173.3l0-3h0h0V173.3z
	 M1516.2,173.3v-3h0h0L1516.2,173.3z M1496.6,177.6l1.2,2.7l0,0l0,0L1496.6,177.6z M1480.9,188.4l2.1,2.1l0,0l0,0L1480.9,188.4z
	 M1470.2,204.3l-2.8-1.2l0,0v0L1470.2,204.3z M1470.2,243.4l-2.8,1.2v0l0,0L1470.2,243.4z M1480.9,259.4l-2.2,2.1l0,0l0,0
	L1480.9,259.4z M1496.6,270.2l-1.2,2.7l0,0l0,0L1496.6,270.2z M1579.9,270.2l1.2,2.7l0,0l0,0L1579.9,270.2z M1595.8,259.4l2.1,2.1
	l0,0l0,0L1595.8,259.4z M1636.1,223.8c0,10.5-2,20.3-5.9,29.5l5.5,2.4c4.3-10,6.4-20.6,6.4-31.8H1636.1z M1630.1,253.3
	c-4,9.2-9.4,17.3-16.3,24.3l4.3,4.2c7.4-7.5,13.2-16.2,17.5-26.1L1630.1,253.3z M1613.9,277.5c-6.8,6.8-14.7,12.3-24,16.4l2.4,5.5
	c9.9-4.4,18.5-10.2,25.8-17.7L1613.9,277.5z M1589.9,293.9c-9.2,4-19,6-29.5,6.1l0.1,6c11.3-0.1,21.9-2.3,31.8-6.6L1589.9,293.9z
	 M1560.5,300h-44.3v6h44.3V300z M1516.2,300c-10.5-0.1-20.3-2.1-29.5-6.1l-2.4,5.5c9.9,4.3,20.6,6.5,31.8,6.6L1516.2,300z
	 M1486.7,293.9c-9.2-4.1-17.3-9.5-24.1-16.4l-4.3,4.2c7.4,7.4,16.1,13.3,25.9,17.6L1486.7,293.9z M1462.6,277.6
	c-6.8-6.9-12.1-15-16.1-24.3l-5.5,2.4c4.3,9.9,10,18.6,17.3,26.1L1462.6,277.6z M1446.5,253.3c-3.9-9.2-5.9-19-5.9-29.5h-6
	c0,11.3,2.1,21.9,6.4,31.8L1446.5,253.3z M1440.6,223.8c0-10.5,2-20.3,5.9-29.5l-5.5-2.4c-4.3,10-6.4,20.6-6.4,31.8H1440.6z
	 M1446.5,194.4c4-9.3,9.4-17.4,16.1-24.2l-4.3-4.2c-7.3,7.4-13.1,16.1-17.4,26.1L1446.5,194.4z M1462.6,170.1
	c6.8-6.9,14.9-12.4,24.1-16.4l-2.4-5.5c-9.9,4.3-18.6,10.2-26,17.7L1462.6,170.1z M1486.7,153.7c9.2-4,19-6.1,29.4-6.1v-6
	c-11.3,0-21.9,2.2-31.9,6.6L1486.7,153.7z M1516.2,147.7h44.3v-6h-44.3V147.7z M1560.5,147.7c7,0,13.7,0.9,20.2,2.7l1.6-5.8
	c-7-1.9-14.3-2.9-21.8-2.9V147.7z M1580.6,150.4c6.5,1.8,12.5,4.4,18.1,7.7l3.1-5.2c-6.1-3.6-12.6-6.4-19.6-8.3L1580.6,150.4z
	 M1598.7,158.1c5.6,3.3,10.7,7.3,15.3,12l4.3-4.2c-5-5.1-10.5-9.4-16.5-13L1598.7,158.1z M1614,170.1c4.6,4.6,8.5,9.7,11.8,15.4
	l5.2-3c-3.5-6.1-7.8-11.7-12.7-16.7L1614,170.1z M1625.8,185.5c3.2,5.6,5.8,11.6,7.6,18.1l5.8-1.6c-1.9-7-4.7-13.5-8.2-19.5
	L1625.8,185.5z M1633.4,203.7c1.8,6.5,2.7,13.2,2.7,20.2h6c0-7.5-1-14.7-2.9-21.8L1633.4,203.7z M1613.4,223.8
	c0-7.3-1.4-14.2-4.2-20.7l-5.5,2.4c2.5,5.7,3.7,11.8,3.7,18.4H1613.4z M1609.2,203.1c-2.8-6.4-6.5-12-11.3-16.8l-4.3,4.2
	c4.2,4.2,7.6,9.2,10.1,15L1609.2,203.1z M1597.9,186.3c-4.8-4.9-10.4-8.7-16.8-11.5l-2.4,5.5c5.8,2.5,10.7,5.9,14.9,10.2
	L1597.9,186.3z M1581.1,174.8c-6.4-2.9-13.3-4.4-20.6-4.5l-0.1,6c6.5,0.1,12.6,1.4,18.2,4L1581.1,174.8z M1560.5,170.3h-44.3v6h44.3
	V170.3z M1516.1,170.3c-7.3,0.1-14.3,1.6-20.7,4.5l2.4,5.5c5.7-2.5,11.8-3.9,18.4-4L1516.1,170.3z M1495.4,174.8
	c-6.3,2.8-11.9,6.6-16.7,11.5l4.3,4.2c4.2-4.3,9.2-7.7,14.8-10.2L1495.4,174.8z M1478.8,186.3c-4.8,4.8-8.6,10.4-11.3,16.8l5.5,2.4
	c2.5-5.8,5.8-10.7,10.1-15L1478.8,186.3z M1467.4,203.1c-2.7,6.5-4,13.4-4,20.7h6c0-6.6,1.2-12.7,3.6-18.4L1467.4,203.1z
	 M1463.4,223.8c0,7.3,1.3,14.2,4,20.7l5.5-2.3c-2.4-5.7-3.6-11.8-3.6-18.4H1463.4z M1467.4,244.6c2.8,6.4,6.5,12.1,11.3,16.9
	l4.3-4.2c-4.2-4.3-7.6-9.4-10.1-15.1L1467.4,244.6z M1478.8,261.5c4.8,4.8,10.3,8.6,16.6,11.4l2.5-5.5c-5.7-2.6-10.6-6-14.9-10.2
	L1478.8,261.5z M1495.4,273c6.5,2.8,13.4,4.2,20.7,4.2v-6c-6.6,0-12.7-1.2-18.4-3.7L1495.4,273z M1516.2,277.2h44.3v-6h-44.3V277.2z
	 M1560.5,277.2c7.3,0,14.2-1.4,20.6-4.2l-2.4-5.5c-5.6,2.4-11.7,3.7-18.2,3.7V277.2z M1581.1,273c6.4-2.9,12-6.7,16.8-11.4l-4.3-4.2
	c-4.2,4.2-9.2,7.6-15,10.2L1581.1,273z M1597.9,261.5c4.8-4.9,8.5-10.5,11.3-16.9l-5.5-2.4c-2.5,5.8-5.8,10.8-10.1,15.1
	L1597.9,261.5z M1609.2,244.6c2.8-6.5,4.2-13.4,4.2-20.7h-6c0,6.5-1.2,12.7-3.7,18.4L1609.2,244.6z M1898.9,254.6l2.8,1.2v0
	L1898.9,254.6z M1882.1,279.8l2.1,2.1l0,0v0L1882.1,279.8z M1857.1,296.8l1.2,2.8l0,0l0,0L1857.1,296.8z M1716,296.8l-1.2,2.7l0,0
	l0,0L1716,296.8z M1691,279.8l-2.2,2.1l0,0l0,0L1691,279.8z M1674.2,254.6l-2.8,1.2v0L1674.2,254.6z M1668.1,144.7v-3h-3v3H1668.1z
	 M1696.9,144.7h3v-3h-3V144.7z M1700.7,243.4l-2.8,1.2l0,0l0,0L1700.7,243.4z M1711.4,259.3l-2.1,2.1l0,0l0,0L1711.4,259.3z
	 M1727.1,270.1l-1.2,2.7l0,0l0,0L1727.1,270.1z M1746.7,274.2l0,3h0h0V274.2z M1772.3,274.2v3h3v-3H1772.3z M1772.3,144.7v-3h-3v3
	H1772.3z M1800.8,144.7h3v-3h-3V144.7z M1800.8,274.2h-3v3h3V274.2z M1826.4,274.2v3h0h0L1826.4,274.2z M1845.8,270.1l1.2,2.7l0,0
	l0,0L1845.8,270.1z M1861.7,259.3l2.1,2.1l0,0l0,0L1861.7,259.3z M1872.4,243.4l2.7,1.2l0,0v0L1872.4,243.4z M1876.3,144.7v-3h-3v3
	H1876.3z M1905.1,144.7h3v-3h-3V144.7z M1902.1,223.8c0,10.5-2,20.3-6,29.6l5.5,2.4c4.3-10,6.4-20.7,6.4-32H1902.1z M1896.2,253.4
	c-4,9.2-9.4,17.3-16.3,24.3l4.3,4.2c7.4-7.5,13.2-16.2,17.5-26.1L1896.2,253.4z M1880,277.7c-6.9,6.9-14.9,12.3-24.1,16.4l2.4,5.5
	c9.9-4.4,18.5-10.2,25.9-17.6L1880,277.7z M1855.9,294.1c-9.2,4-19,5.9-29.5,5.9v6c11.3,0,21.9-2.1,31.8-6.4L1855.9,294.1z
	 M1826.4,300h-79.7v6h79.7V300z M1746.7,300c-10.5,0-20.3-2-29.5-5.9l-2.4,5.5c10,4.3,20.6,6.4,31.8,6.4V300z M1717.2,294.1
	c-9.2-4.1-17.3-9.5-24.1-16.4l-4.2,4.2c7.4,7.4,16.1,13.3,25.9,17.6L1717.2,294.1z M1693.1,277.7c-6.8-6.9-12.2-15-16.1-24.3
	l-5.5,2.4c4.3,9.9,10,18.6,17.3,26.1L1693.1,277.7z M1677,253.4c-4-9.3-5.9-19.1-5.9-29.6h-6c0,11.3,2.1,21.9,6.4,32L1677,253.4z
	 M1671.1,223.8v-79.2h-6v79.2H1671.1z M1668.1,147.7h28.8v-6h-28.8V147.7z M1693.9,144.7v79.2h6v-79.2H1693.9z M1693.9,223.8
	c0,7.3,1.3,14.2,4,20.7l5.5-2.3c-2.4-5.7-3.6-11.8-3.6-18.4H1693.9z M1697.9,244.6c2.8,6.3,6.5,11.9,11.3,16.8l4.3-4.2
	c-4.2-4.3-7.6-9.3-10.1-15L1697.9,244.6z M1709.2,261.4c4.8,4.8,10.3,8.6,16.6,11.4l2.5-5.5c-5.7-2.6-10.6-6-14.9-10.2L1709.2,261.4
	z M1725.9,272.8c6.5,2.8,13.4,4.2,20.7,4.3l0.1-6c-6.6-0.1-12.7-1.4-18.4-3.8L1725.9,272.8z M1746.7,277.2h25.6v-6h-25.6V277.2z
	 M1775.3,274.2V144.7h-6v129.5H1775.3z M1772.3,147.7h28.6v-6h-28.6V147.7z M1797.8,144.7v129.5h6V144.7H1797.8z M1800.8,277.2h25.6
	v-6h-25.6V277.2z M1826.4,277.2c7.3-0.1,14.2-1.5,20.6-4.3l-2.4-5.5c-5.6,2.5-11.7,3.7-18.2,3.8L1826.4,277.2z M1847,272.8
	c6.4-2.9,12-6.7,16.8-11.4l-4.2-4.2c-4.2,4.2-9.2,7.6-15,10.2L1847,272.8z M1863.8,261.4c4.8-4.9,8.5-10.5,11.3-16.8l-5.5-2.4
	c-2.5,5.7-5.8,10.7-10.1,15L1863.8,261.4z M1875.1,244.6c2.8-6.5,4.2-13.4,4.2-20.7h-6c0,6.5-1.2,12.7-3.7,18.4L1875.1,244.6z
	 M1879.3,223.8v-79.2h-6v79.2H1879.3z M1876.3,147.7h28.8v-6h-28.8V147.7z M1902.1,144.7v79.2h6v-79.2H1902.1z M1999.6,303v3h3v-3
	H1999.6z M1970.8,303h-3v3h3V303z M1970.8,173.3h3v-3h-3V173.3z M1927.6,173.3h-3v3h3V173.3z M1927.6,144.7v-3h-3v3H1927.6z
	 M1970.8,144.7v3h3v-3H1970.8z M1970.8,87v-3h-3v3H1970.8z M1999.6,87h3v-3h-3V87z M1999.6,144.7h-3v3h3V144.7z M2100.5,144.7h3v-3
	h-3V144.7z M2100.5,173.3v3h3v-3H2100.5z M1999.6,173.3v-3h-3v3H1999.6z M1999.6,300h-28.8v6h28.8V300z M1973.8,303V173.3h-6V303
	H1973.8z M1970.8,170.3h-43.2v6h43.2V170.3z M1930.6,173.3v-28.7h-6v28.7H1930.6z M1927.6,147.7h43.2v-6h-43.2V147.7z M1973.8,144.7
	V87h-6v57.7H1973.8z M1970.8,90h28.8v-6h-28.8V90z M1996.6,87v57.7h6V87H1996.6z M1999.6,147.7h100.8v-6h-100.8V147.7z
	 M2097.5,144.7v28.7h6v-28.7H2097.5z M2100.5,170.3h-100.8v6h100.8V170.3z M1996.6,173.3V303h6V173.3H1996.6z M2309.9,303v3h3v-3
	H2309.9z M2281,303h-3v3h3V303z M2266.4,188.4l-2.1,2.1l0,0l0,0L2266.4,188.4z M2250.5,177.6l-1.2,2.7l0,0l0,0L2250.5,177.6z
	 M2231.1,173.3l0-3h0h0V173.3z M2151.9,173.3v-3h-3v3H2151.9z M2151.9,303v3h3v-3H2151.9z M2123.1,303h-3v3h3V303z M2123.1,87v-3h-3
	v3H2123.1z M2151.9,87h3v-3h-3V87z M2151.9,144.7h-3v3h3V144.7z M2261.8,151l-1.2,2.7l0,0l0,0L2261.8,151z M2286.8,168l-2.1,2.1l0,0
	l0,0L2286.8,168z M2303.7,193.2l-2.8,1.2l0,0L2303.7,193.2z M2309.9,300H2281v6h28.8V300z M2284,303v-79.2h-6V303H2284z M2284,223.8
	c0-7.3-1.4-14.2-4.2-20.7l-5.5,2.4c2.4,5.7,3.7,11.8,3.7,18.4H2284z M2279.9,203.1c-2.8-6.4-6.5-12-11.3-16.8l-4.3,4.2
	c4.2,4.2,7.6,9.2,10.1,15L2279.9,203.1z M2268.6,186.3c-4.8-4.9-10.4-8.7-16.9-11.5l-2.4,5.5c5.8,2.5,10.7,5.9,14.9,10.2
	L2268.6,186.3z M2251.8,174.8c-6.4-2.9-13.3-4.4-20.6-4.5l-0.1,6c6.6,0.1,12.6,1.4,18.2,4L2251.8,174.8z M2231.1,170.3h-79.2v6h79.2
	V170.3z M2148.9,173.3V303h6V173.3H2148.9z M2151.9,300h-28.8v6h28.8V300z M2126.1,303V87h-6v216H2126.1z M2123.1,90h28.8v-6h-28.8
	V90z M2148.9,87v57.7h6V87H2148.9z M2151.9,147.7h79.2v-6h-79.2V147.7z M2231.1,147.7c10.5,0,20.3,2,29.4,6.1l2.4-5.5
	c-10-4.4-20.6-6.6-31.9-6.6V147.7z M2260.6,153.7c9.2,4,17.2,9.4,24.1,16.4l4.3-4.2c-7.4-7.5-16.1-13.4-26-17.7L2260.6,153.7z
	 M2284.7,170.1c6.8,6.8,12.3,14.9,16.2,24.2l5.5-2.4c-4.3-10-10.1-18.7-17.5-26.1L2284.7,170.1z M2300.9,194.4
	c4,9.2,5.9,19,5.9,29.5h6c0-11.3-2.1-21.9-6.4-31.8L2300.9,194.4z M2306.9,223.8V303h6v-79.2H2306.9z"/>
<path class="st2" d="M132,0h126c16.6,0,30,13.4,30,30v271c0,16.6-13.4,30-30,30H132c-16.6,0-30-13.4-30-30V30
	C102,13.4,115.4,0,132,0z"/>
<path class="st2" d="M231,0h121c16.6,0,30,13.4,30,30v75c0,16.6-13.4,30-30,30H231c-16.6,0-30-13.4-30-30V30C201,13.4,214.4,0,231,0
	z"/>
<ellipse class="st2" cx="252.5" cy="202.5" rx="116.5" ry="82.5"/>
<path class="st2" d="M379.3,202.2c0,14-2.2,27.1-6.6,39.4c-4.4,12.3-10.7,23-18.8,32.1c-8.1,9.1-17.8,16.3-29.1,21.5
	c-11.3,5.3-24,7.9-37.8,7.9h-67.1c-14,0-26.7-2.6-38.1-7.9c-11.4-5.3-21.2-12.4-29.4-21.5c-8.1-9.1-14.3-19.8-18.7-32.1
	c-4.4-12.3-6.6-25.4-6.6-39.4c0-13.9,2.2-26.9,6.6-39.1c4.4-12.3,10.6-23,18.7-32.1c8.2-9.2,18-16.4,29.4-21.7
	c11.4-5.3,24.1-8,38.1-8H287c13.9,0,26.5,2.7,37.8,8c11.3,5.3,21,12.5,29.1,21.7c8.2,9.1,14.4,19.8,18.8,32.1
	C377.1,175.3,379.3,188.3,379.3,202.2z M350.5,202.2c0-9.9-1.5-19.3-4.4-28c-2.9-8.7-7.1-16.3-12.7-22.8c-5.4-6.6-12.1-11.7-20-15.5
	c-7.8-3.8-16.6-5.8-26.6-5.8h-67.1c-9.9,0-18.9,1.9-26.9,5.8c-7.9,3.8-14.6,8.9-20.1,15.5c-5.4,6.5-9.7,14.1-12.7,22.8
	c-2.9,8.7-4.4,18-4.4,28c0,9.9,1.5,19.3,4.4,28.1c3,8.7,7.2,16.4,12.7,22.9c5.5,6.5,12.2,11.6,20.1,15.3c8,3.8,16.9,5.6,26.9,5.6
	H287c9.9,0,18.8-1.9,26.6-5.6c7.9-3.8,14.5-8.9,20-15.3c5.5-6.6,9.8-14.2,12.7-22.9C349.1,221.5,350.5,212.1,350.5,202.2z"/>
<path class="st3" d="M353.9,273.6l-16.4-14.7l0,0l0,0L353.9,273.6z M152.4,273.6l-16.5,14.6l0,0l0,0L152.4,273.6z M133.7,163.1
	l20.7,7.5l0,0l0,0L133.7,163.1z M152.4,131l-16.5-14.6l0,0l0,0L152.4,131z M181.8,109.4l9.2,20l0.1,0l0.1,0L181.8,109.4z
	 M324.8,109.4l-9.4,19.9l0.1,0l0.1,0L324.8,109.4z M353.9,131l-16.5,14.5l0.1,0.1l0.1,0.1L353.9,131z M372.7,163.1l-20.7,7.4l0,0
	l0,0L372.7,163.1z M333.5,151.4l-16.9,14l0.1,0.1l0.1,0.1L333.5,151.4z M313.5,135.9l-9.7,19.7l0.1,0.1l0.1,0.1L313.5,135.9z
	 M193,135.9l9.5,19.9l0.1,0l0.1,0L193,135.9z M172.9,151.4l-16.8-14.2l0,0l0,0L172.9,151.4z M160.3,174.2l-20.8-7.2l0,0.1l0,0.1
	L160.3,174.2z M160.3,230.3l-20.9,6.9l0,0.1l0,0.1L160.3,230.3z M172.9,253.2l-16.9,14l0.1,0.1l0.1,0.1L172.9,253.2z M193,268.5
	l-9.5,19.9l0,0l0,0L193,268.5z M313.5,268.5l-9.5-19.9l0,0l0,0L313.5,268.5z M333.5,253.2L316.7,239l0,0l0,0L333.5,253.2z
	 M346.2,230.3l20.9,7l0,0l0,0L346.2,230.3z M357.3,202.2c0,11.6-1.8,22.2-5.3,31.9l41.4,14.9c5.3-14.8,7.9-30.5,7.9-46.8H357.3z
	 M352,234.1c-3.5,9.8-8.4,18-14.5,24.8l32.8,29.4c10.2-11.4,17.9-24.5,23.2-39.3L352,234.1z M337.4,259c-6,6.8-13.2,12.1-21.9,16.1
	l18.5,39.9c14-6.5,26.2-15.5,36.3-26.9L337.4,259z M315.5,275.2c-8.1,3.8-17.5,5.8-28.6,5.8v44c16.7,0,32.5-3.2,47.1-9.9
	L315.5,275.2z M287,281h-67.1v44H287V281z M219.9,281c-11.2,0-20.7-2.1-28.9-5.9l-18.4,40c14.6,6.7,30.5,9.9,47.3,9.9V281z
	 M190.9,275.1c-8.8-4-16.1-9.4-22.2-16.2L136,288.3c10.2,11.4,22.5,20.4,36.6,26.8L190.9,275.1z M168.8,259
	c-6.1-6.8-10.9-15.1-14.5-24.9L113,249c5.3,14.7,12.9,27.9,22.9,39.2L168.8,259z M154.4,234.1c-3.5-9.7-5.3-20.3-5.3-31.9h-44
	c0,16.3,2.6,32,7.9,46.8L154.4,234.1z M149.1,202.2c0-11.5,1.8-22,5.3-31.6l-41.4-15c-5.3,14.8-7.9,30.3-7.9,46.6H149.1z
	 M154.4,170.5c3.5-9.8,8.4-18.1,14.5-24.9l-32.9-29.2c-10.1,11.3-17.7,24.5-22.9,39.2L154.4,170.5z M168.8,145.6
	c6.1-6.9,13.4-12.3,22.1-16.3l-18.4-40c-14.1,6.5-26.4,15.5-36.7,27L168.8,145.6z M191.1,129.3c8.2-3.8,17.7-5.9,28.8-5.9v-44
	c-16.8,0-32.8,3.2-47.4,10.1L191.1,129.3z M219.9,123.3H287v-44h-67.1V123.3z M287,123.3c11,0,20.3,2.1,28.5,5.9l18.8-39.8
	c-14.6-6.9-30.4-10.1-47.2-10.1V123.3z M315.5,129.3c8.6,4,15.8,9.4,21.8,16.2l33.1-29C360.3,105,348.1,95.9,334,89.4L315.5,129.3z
	 M337.5,145.7c6.1,6.8,11,15,14.5,24.8l41.4-14.9c-5.3-14.8-13-28-23.2-39.3L337.5,145.7z M352,170.6c3.5,9.6,5.3,20.1,5.3,31.6h44
	c0-16.2-2.6-31.8-7.9-46.6L352,170.6z M372.5,202.2c0-12.1-1.8-23.8-5.5-34.9l-41.7,13.9c2.1,6.3,3.2,13.3,3.2,21H372.5z M367,167.2
	c-3.7-11.2-9.3-21.3-16.8-30.1l-33.4,28.6c3.5,4.1,6.4,9.2,8.5,15.4L367,167.2z M350.4,137.4c-7.5-9.1-16.8-16.2-27.5-21.3
	l-18.9,39.7c5.1,2.4,9.1,5.6,12.5,9.6L350.4,137.4z M323.3,116.2c-11.2-5.5-23.5-8-36.3-8v44c7,0,12.5,1.3,16.8,3.5L323.3,116.2z
	 M287,108.2h-67.1v44H287V108.2z M219.9,108.2c-12.8,0-25.1,2.5-36.4,8l19.1,39.6c4.6-2.2,10.3-3.6,17.3-3.6V108.2z M183.6,116.1
	c-10.7,5.1-19.9,12.2-27.5,21.2l33.6,28.4c3.5-4.1,7.7-7.4,12.7-9.8L183.6,116.1z M156.1,137.3c-7.3,8.7-12.8,18.7-16.6,29.8
	l41.6,14.3c2.2-6.4,5.1-11.6,8.7-15.8L156.1,137.3z M139.4,167.2c-3.7,11.1-5.5,22.8-5.5,34.9h44c0-7.8,1.1-14.7,3.2-21L139.4,167.2
	z M133.9,202.2c0,12.1,1.8,23.8,5.5,35l41.8-13.8c-2.1-6.4-3.3-13.5-3.3-21.2H133.9z M139.4,237.5c3.8,11,9.3,21,16.5,29.8
	l33.9-28.1c-3.6-4.4-6.6-9.6-8.8-16L139.4,237.5z M156.2,267.5c7.6,8.9,16.8,15.9,27.4,20.9l18.9-39.7c-5.2-2.5-9.4-5.7-12.8-9.8
	L156.2,267.5z M183.6,288.5c11.3,5.3,23.5,7.7,36.2,7.7v-44c-7.1,0-12.8-1.3-17.5-3.5L183.6,288.5z M219.9,296.2H287v-44h-67.1
	V296.2z M287,296.2c12.7,0,25-2.4,36.1-7.8L304,248.7c-4.4,2.1-9.9,3.4-17,3.4V296.2z M323,288.4c10.6-5.1,19.8-12.1,27.4-21
	l-33.7-28.3c-3.3,4-7.5,7.2-12.6,9.6L323,288.4z M350.3,267.4c7.5-8.8,13-19,16.7-30.1l-41.7-13.9c-2.1,6.3-5,11.4-8.6,15.7
	L350.3,267.4z M367,237.2c3.7-11.2,5.5-22.9,5.5-35h-44c0,7.8-1.1,14.8-3.3,21.2L367,237.2z"/>
</svg>
